<svg xmlns="http://www.w3.org/2000/svg" xmlns:xlink="http://www.w3.org/1999/xlink" width="500" zoomAndPan="magnify" viewBox="0 0 375 374.999991" height="500" preserveAspectRatio="xMidYMid meet" version="1.0"><defs><clipPath id="b3307f4439"><path d="M 89 66.894531 L 292 66.894531 L 292 138 L 89 138 Z M 89 66.894531 " clip-rule="nonzero"/></clipPath><clipPath id="5393c8befb"><path d="M 41.808594 185 L 73 185 L 73 285 L 41.808594 285 Z M 41.808594 185 " clip-rule="nonzero"/></clipPath><clipPath id="6809da9c6b"><path d="M 308 185 L 339.558594 185 L 339.558594 285 L 308 285 Z M 308 185 " clip-rule="nonzero"/></clipPath></defs><path fill="#000000" d="M 73.683594 177.605469 C 74.265625 174.496094 74.945312 171.425781 75.722656 168.394531 C 78.171875 158.84375 81.578125 149.730469 85.824219 141.199219 C 87.761719 143.285156 90.160156 144.894531 92.851562 145.824219 C 89.058594 153.589844 86.007812 161.835938 83.796875 170.457031 C 83.195312 172.808594 82.65625 175.191406 82.179688 177.605469 Z M 73.683594 177.605469 " fill-opacity="1" fill-rule="evenodd"/><path fill="#000000" d="M 299.191406 177.605469 C 298.714844 175.191406 298.175781 172.808594 297.570312 170.457031 C 295.363281 161.835938 292.308594 153.585938 288.519531 145.824219 C 291.207031 144.894531 293.605469 143.285156 295.542969 141.199219 C 299.789062 149.730469 303.199219 158.839844 305.648438 168.394531 C 306.421875 171.425781 307.105469 174.496094 307.683594 177.605469 Z M 299.191406 177.605469 " fill-opacity="1" fill-rule="evenodd"/><path fill="#000000" d="M 269.039062 239.53125 L 246.628906 239.523438 C 245.136719 239.523438 243.765625 238.730469 243.015625 237.4375 L 230.621094 216.078125 L 209.117188 294.703125 C 208.308594 298.996094 202.195312 299.320312 200.988281 295.074219 L 176.195312 208.191406 L 162.972656 275.652344 C 162.246094 279.304688 157.402344 280.304688 155.355469 277.109375 L 131.257812 239.53125 L 112.332031 239.53125 L 112.332031 231.152344 L 133.535156 231.152344 C 135.113281 231.152344 136.488281 232.027344 137.203125 233.320312 L 156.765625 263.835938 L 171.335938 189.503906 C 172.179688 185.175781 178.292969 184.980469 179.46875 189.179688 L 204.929688 278.414062 L 225.207031 204.265625 C 226.1875 200.664062 231.007812 200.105469 232.835938 203.269531 L 249.027344 231.152344 L 269.039062 231.152344 Z M 269.039062 239.53125 " fill-opacity="1" fill-rule="evenodd"/><g clip-path="url(#b3307f4439)"><path fill="#000000" d="M 104.683594 134.804688 C 103.371094 136.417969 101.550781 137.550781 99.484375 137.882812 C 94.34375 138.710938 90.238281 134.488281 89.585938 129.640625 C 89.242188 127.074219 89.804688 124.433594 91.257812 122.277344 C 96.976562 113.8125 103.628906 105.976562 111.121094 99.03125 C 118.429688 92.253906 126.515625 86.335938 135.226562 81.496094 C 152.289062 72.007812 171.148438 66.949219 190.683594 66.949219 C 210.222656 66.949219 229.078125 72.007812 246.144531 81.496094 C 254.851562 86.335938 262.941406 92.257812 270.25 99.03125 C 277.738281 105.976562 284.390625 113.8125 290.109375 122.277344 C 291.566406 124.433594 292.128906 127.074219 291.78125 129.640625 C 291.128906 134.488281 287.023438 138.707031 281.886719 137.882812 C 279.820312 137.550781 278.003906 136.417969 276.6875 134.808594 C 270.765625 127.5625 266.058594 120.617188 259.097656 114.164062 C 252.8125 108.34375 245.867188 103.25 238.378906 99.085938 C 231.082031 95.027344 223.304688 91.882812 215.226562 89.769531 C 207.210938 87.675781 198.96875 86.609375 190.683594 86.609375 C 182.398438 86.609375 174.15625 87.675781 166.140625 89.769531 C 158.0625 91.882812 150.285156 95.027344 142.988281 99.085938 C 135.503906 103.25 128.554688 108.34375 122.269531 114.164062 C 115.304688 120.621094 110.597656 127.535156 104.683594 134.804688 Z M 104.683594 134.804688 " fill-opacity="1" fill-rule="evenodd"/></g><g clip-path="url(#5393c8befb)"><path fill="#000000" d="M 71.277344 284.699219 L 71.277344 203.695312 C 71.277344 197.703125 71.652344 191.789062 72.378906 185.984375 L 68.699219 185.984375 C 61.378906 185.984375 54.703125 189.308594 49.839844 194.664062 C 44.886719 200.121094 41.808594 207.683594 41.808594 216.023438 L 41.808594 254.664062 C 41.808594 263.003906 44.886719 270.5625 49.839844 276.023438 C 54.703125 281.375 61.378906 284.699219 68.699219 284.699219 Z M 71.277344 284.699219 " fill-opacity="1" fill-rule="evenodd"/></g><path fill="#000000" d="M 80.800781 185.984375 C 80.042969 191.757812 79.648438 197.671875 79.648438 203.695312 L 79.648438 284.699219 L 92.890625 284.699219 C 94.59375 284.699219 95.589844 282.835938 95.589844 281.308594 L 95.589844 189.378906 C 95.589844 187.847656 94.59375 185.984375 92.890625 185.984375 Z M 80.800781 185.984375 " fill-opacity="1" fill-rule="evenodd"/><g clip-path="url(#6809da9c6b)"><path fill="#000000" d="M 308.988281 185.984375 C 309.714844 191.792969 310.089844 197.703125 310.089844 203.695312 L 310.089844 284.699219 L 312.671875 284.699219 C 319.988281 284.699219 326.667969 281.375 331.527344 276.023438 C 336.480469 270.5625 339.558594 263.003906 339.558594 254.664062 L 339.558594 216.023438 C 339.558594 207.683594 336.484375 200.121094 331.527344 194.664062 C 326.667969 189.308594 319.988281 185.984375 312.671875 185.984375 Z M 308.988281 185.984375 " fill-opacity="1" fill-rule="evenodd"/></g><path fill="#000000" d="M 301.71875 284.699219 L 301.71875 203.695312 C 301.71875 197.671875 301.328125 191.757812 300.566406 185.984375 L 288.480469 185.984375 C 286.773438 185.984375 285.78125 187.847656 285.78125 189.378906 L 285.78125 281.308594 C 285.78125 282.839844 286.777344 284.699219 288.480469 284.699219 Z M 301.71875 284.699219 " fill-opacity="1" fill-rule="evenodd"/></svg>