<svg xmlns="http://www.w3.org/2000/svg" xmlns:xlink="http://www.w3.org/1999/xlink" width="500" zoomAndPan="magnify" viewBox="0 0 375 374.999991" height="500" preserveAspectRatio="xMidYMid meet" version="1.0"><defs><clipPath id="40d8d60dd8"><path d="M 112.5 156 L 189 156 L 189 254 L 112.5 254 Z M 112.5 156 " clip-rule="nonzero"/></clipPath><clipPath id="8cf0b567a4"><path d="M 117 126 L 262 126 L 262 255.339844 L 117 255.339844 Z M 117 126 " clip-rule="nonzero"/></clipPath></defs><g clip-path="url(#40d8d60dd8)"><path fill="#000000" d="M 186.632812 250.578125 C 184.542969 247.71875 180.941406 246.550781 178.28125 244.285156 C 172.367188 239.464844 166.054688 235.132812 160.34375 230.058594 C 156.179688 226.664062 152.820312 222.5 149.09375 218.675781 C 144.796875 214.410156 139.902344 209.171875 135.605469 204.839844 C 126.835938 195.4375 118.621094 184.5 117.253906 171.347656 C 116.328125 166.390625 118.660156 160.597656 115.546875 156.269531 C 114.21875 157.207031 112.53125 159.765625 112.90625 161.4375 C 113.234375 164.929688 113.09375 168.511719 113.914062 171.921875 C 114.792969 177.15625 115.640625 182.417969 118.34375 187.085938 C 121.597656 194.328125 126.488281 200.546875 131.855469 206.324219 C 143.234375 220.523438 156.925781 232.613281 170.945312 244.15625 C 174.75 247.214844 178.597656 250.226562 182.554688 253.101562 C 184.410156 254.101562 186.417969 253.667969 188.683594 253.945312 C 188.554688 252.59375 187.367188 251.636719 186.632812 250.578125 Z M 186.632812 250.578125 " fill-opacity="1" fill-rule="nonzero"/></g><g clip-path="url(#8cf0b567a4)"><path fill="#000000" d="M 261.617188 169.289062 C 259.917969 142.949219 239.488281 119.59375 211.625 128.914062 C 200.609375 133.015625 193.464844 143.421875 187.300781 152.832031 C 180.542969 138.875 166.964844 127.160156 150.941406 126.5 C 134.550781 125.679688 116.011719 139.203125 117.3125 156.695312 C 122.804688 147.296875 128.972656 136.820312 139.699219 132.691406 C 146.085938 130.125 153.242188 130.519531 159.707031 132.628906 C 171.351562 136.160156 180.011719 145.894531 184.949219 156.738281 C 184.941406 156.753906 184.933594 156.769531 184.925781 156.78125 L 184.96875 156.777344 C 185.507812 157.96875 186.992188 160.621094 188.3125 158.703125 C 190.769531 154.480469 193.566406 150.378906 196.605469 146.554688 C 200.816406 141.527344 205.488281 136.476562 211.46875 133.628906 C 220.40625 129.726562 230.984375 130.792969 239.28125 135.773438 C 250.546875 142.339844 256.785156 155.679688 257.742188 168.410156 C 258.378906 176.867188 255.234375 185.167969 250.769531 192.304688 C 241.726562 206.65625 228.523438 217.578125 215.839844 228.59375 C 209.246094 234.261719 202.121094 239.421875 196.003906 245.636719 C 193.382812 248.605469 189.929688 251.542969 188.792969 255.34375 C 191.199219 254.609375 192.921875 252.839844 195.078125 251.695312 C 196.859375 250.667969 198.398438 249.496094 199.796875 247.855469 C 205.5625 241.898438 212.121094 236.675781 218.222656 231.015625 C 226.421875 223.679688 235.292969 216.953125 242.492188 208.527344 C 252.308594 197.710938 262.472656 184.71875 261.617188 169.289062 Z M 261.617188 169.289062 " fill-opacity="1" fill-rule="nonzero"/></g></svg>