<svg xmlns="http://www.w3.org/2000/svg" xmlns:xlink="http://www.w3.org/1999/xlink" width="500" zoomAndPan="magnify" viewBox="0 0 375 374.999991" height="500" preserveAspectRatio="xMidYMid meet" version="1.0"><defs><clipPath id="ce4e80841e"><path d="M 121 112.5 L 253.75 112.5 L 253.75 262.5 L 121 262.5 Z M 121 112.5 " clip-rule="nonzero"/></clipPath></defs><g clip-path="url(#ce4e80841e)"><path fill="#000000" d="M 247.601562 112.984375 C 246.046875 113.714844 238.90625 116.695312 233.871094 118.714844 C 226.34375 121.71875 220.621094 123.78125 202.863281 129.832031 C 184.074219 136.253906 175.082031 139.898438 166.730469 144.414062 C 155.722656 150.375 147.230469 157.164062 140.710938 165.253906 C 134.988281 172.363281 130.457031 181.714844 128.511719 190.472656 C 125.835938 202.625 126.316406 217.160156 129.886719 231.167969 C 130.414062 233.300781 131.121094 235.777344 131.417969 236.671875 L 131.96875 238.253906 L 129.839844 241.484375 C 125.101562 248.730469 121.007812 256.753906 121.007812 258.792969 C 121.007812 260.765625 122.242188 262.1875 124.140625 262.417969 C 126.546875 262.667969 127.207031 262.027344 129.496094 257.304688 C 131.464844 253.199219 133 250.496094 135.765625 246.230469 C 137.300781 243.871094 137.691406 243.410156 138.078125 243.503906 C 149.132812 245.886719 155.378906 246.550781 164.875 246.347656 C 174.714844 246.117188 182.746094 244.855469 190.847656 242.242188 C 207.121094 236.992188 220.347656 226.722656 230.597656 211.335938 C 242.660156 193.25 250.574219 168.007812 252.980469 140.152344 C 253.917969 129.214844 254.03125 116.46875 253.207031 114.726562 C 252.269531 112.730469 249.773438 111.972656 247.601562 112.984375 Z M 246.226562 124.605469 C 246.207031 134.695312 244.855469 148.359375 242.886719 158.492188 C 238.449219 181.097656 230.78125 199.507812 220.140625 213.078125 C 217.644531 216.289062 212.269531 221.699219 209.042969 224.269531 C 199.613281 231.789062 188.378906 236.371094 174.96875 238.183594 C 170.527344 238.78125 160.117188 239.03125 155.492188 238.644531 C 150.710938 238.253906 143 237.015625 142.496094 236.578125 C 142.265625 236.351562 147.277344 229.746094 151.648438 224.542969 C 155.722656 219.660156 154.96875 220.164062 160.183594 218.878906 C 168.101562 216.953125 178.308594 216.425781 186.683594 217.550781 C 188.972656 217.847656 189.910156 217.710938 190.871094 216.910156 C 192.769531 215.28125 192.65625 212.347656 190.621094 210.832031 C 189.863281 210.28125 186.570312 209.800781 181.375 209.457031 C 177.003906 209.183594 170.09375 209.457031 166.132812 210.054688 C 165.058594 210.214844 164.167969 210.328125 164.121094 210.304688 C 163.847656 210.078125 180.917969 193.226562 187.234375 187.492188 C 190.460938 184.558594 190.070312 184.742188 195.3125 183.597656 C 202.496094 182.015625 209.5 181.464844 215.21875 182.015625 C 216.984375 182.175781 218.835938 182.3125 219.339844 182.3125 C 221.375 182.265625 222.886719 180.707031 222.886719 178.667969 C 222.886719 177.269531 222.292969 176.078125 221.308594 175.480469 C 219.660156 174.515625 211.695312 173.96875 205.859375 174.402344 C 203.984375 174.539062 202.40625 174.609375 202.359375 174.5625 C 202.152344 174.378906 215.976562 163.511719 218.722656 161.703125 C 219.84375 160.96875 220.597656 159.683594 220.597656 158.5625 C 220.597656 157.574219 219.75 155.902344 218.949219 155.328125 C 218.242188 154.800781 216.386719 154.570312 215.5625 154.890625 C 214.855469 155.167969 208.058594 160.28125 202.542969 164.660156 C 191.765625 173.28125 181.125 182.609375 172.632812 191 L 168.925781 194.648438 L 168.765625 192.148438 C 168.285156 184.375 166.636719 175.296875 165.492188 173.921875 C 163.34375 171.355469 158.925781 172.753906 158.925781 175.984375 C 158.925781 176.582031 159.269531 178.667969 159.679688 180.617188 C 160.847656 186.324219 161.121094 188.890625 161.261719 195.929688 L 161.398438 202.394531 L 159.589844 204.296875 C 152.519531 211.726562 143.042969 222.753906 138.902344 228.371094 L 137.414062 230.390625 L 136.886719 228.257812 C 133.820312 215.554688 133.523438 202.304688 136.042969 191.484375 C 137.367188 185.867188 140.183594 179.171875 143.203125 174.539062 C 149.589844 164.75 159.246094 156.566406 172.265625 149.941406 C 181.144531 145.402344 188.882812 142.398438 209.5 135.449219 C 218.5625 132.402344 223.824219 130.542969 230.484375 128.023438 C 235.769531 126.050781 244.191406 122.636719 245.289062 122.039062 C 245.609375 121.855469 245.953125 121.71875 246.066406 121.695312 C 246.160156 121.695312 246.226562 123 246.226562 124.605469 Z M 246.226562 124.605469 " fill-opacity="1" fill-rule="nonzero"/></g></svg>