<svg xmlns="http://www.w3.org/2000/svg" xmlns:xlink="http://www.w3.org/1999/xlink" width="1000" zoomAndPan="magnify" viewBox="0 0 750 487.499991" height="650" preserveAspectRatio="xMidYMid meet" version="1.0"><defs><clipPath id="844687d873"><path d="M 12.289062 122.773438 L 737.707031 122.773438 L 737.707031 364.027344 L 12.289062 364.027344 Z M 12.289062 122.773438 " clip-rule="nonzero"/></clipPath></defs><path fill="#2f6319" d="M 150.925781 142.851562 C 151.683594 142.851562 152.4375 142.851562 153.191406 142.851562 C 153.3125 144.5 150.808594 144.5 150.925781 142.851562 " fill-opacity="1" fill-rule="evenodd"/><path fill="#2f6319" d="M 226.015625 145.765625 C 224.820312 145.554688 224.316406 144.65625 224.074219 143.5 C 225.003906 142.886719 225.890625 144.550781 226.015625 145.765625 " fill-opacity="1" fill-rule="evenodd"/><path fill="#2f6319" d="M 272.621094 143.5 C 273.921875 145.722656 273.878906 148.878906 273.589844 151.589844 C 273.136719 155.902344 271.449219 160.796875 269.707031 163.242188 C 270.722656 156.703125 272.941406 151.371094 272.621094 143.5 " fill-opacity="1" fill-rule="evenodd"/><path fill="#2f6319" d="M 137.980469 145.117188 C 138.941406 145.585938 137.554688 146.378906 137.980469 147.382812 C 136.769531 147.128906 137.773438 145.816406 137.980469 145.117188 " fill-opacity="1" fill-rule="evenodd"/><path fill="#2f6319" d="M 145.75 146.414062 C 146.5 146.308594 146.992188 146.464844 147.367188 146.738281 C 147.339844 147.699219 145.4375 147.601562 145.75 146.414062 " fill-opacity="1" fill-rule="evenodd"/><path fill="#2f6319" d="M 222.128906 146.414062 C 223.378906 147.214844 223.347656 149.296875 224.398438 150.296875 C 223.433594 151.734375 221.199219 147.90625 222.128906 146.414062 " fill-opacity="1" fill-rule="evenodd"/><path fill="#2f6319" d="M 265.824219 151.589844 C 268.085938 153.640625 269.261719 161.445312 266.796875 164.214844 C 266.464844 160.28125 266.71875 155.671875 265.824219 151.589844 " fill-opacity="1" fill-rule="evenodd"/><path fill="#2f6319" d="M 285.242188 159.035156 C 286.660156 158.910156 286.90625 159.960938 288.15625 160.007812 C 287.621094 161.355469 284.941406 160.53125 285.242188 159.035156 " fill-opacity="1" fill-rule="evenodd"/><path fill="#2f6319" d="M 103.675781 160.007812 C 105.148438 159.960938 104.808594 163 104.644531 163.566406 C 102.996094 163.789062 103.105469 160.976562 103.675781 160.007812 " fill-opacity="1" fill-rule="evenodd"/><path fill="#2f6319" d="M 281.683594 160.976562 C 282.085938 162.035156 279.828125 163.664062 278.445312 164.859375 C 276.925781 166.175781 275.273438 167.597656 273.914062 168.417969 C 275.695312 165.128906 278.804688 163.167969 281.683594 160.976562 " fill-opacity="1" fill-rule="evenodd"/><path fill="#2f6319" d="M 344.792969 161.625 C 346.003906 161.492188 346.695312 161.882812 346.738281 162.917969 C 345.527344 163.046875 344.839844 162.660156 344.792969 161.625 " fill-opacity="1" fill-rule="evenodd"/><path fill="#2f6319" d="M 344.148438 164.214844 C 344.796875 164.640625 345.242188 165.273438 345.441406 166.15625 C 344.386719 166.125 343.609375 164.847656 344.148438 164.214844 " fill-opacity="1" fill-rule="evenodd"/><path fill="#2f6319" d="M 356.125 164.859375 C 356.398438 164.800781 356.429688 164.984375 356.445312 165.183594 C 356.546875 165.621094 357.257812 165.453125 357.742188 165.507812 C 357.839844 166.359375 357.292969 166.570312 356.445312 166.476562 C 356.175781 166.101562 356.019531 165.609375 356.125 164.859375 " fill-opacity="1" fill-rule="evenodd"/><path fill="#2f6319" d="M 286.539062 174.570312 C 285.375 175.109375 284.226562 174.214844 283.949219 172.953125 C 284.59375 172.621094 286.324219 173.445312 286.539062 174.570312 " fill-opacity="1" fill-rule="evenodd"/><path fill="#2f6319" d="M 363.242188 175.21875 C 364.207031 175.5 364.582031 177.3125 363.566406 177.808594 C 362.34375 178.019531 362.960938 175.539062 363.242188 175.21875 " fill-opacity="1" fill-rule="evenodd"/><path fill="#2f6319" d="M 358.066406 176.511719 C 359.066406 176.480469 359.027344 177.488281 359.035156 178.453125 C 358.347656 178.128906 357.46875 177.148438 358.066406 176.511719 " fill-opacity="1" fill-rule="evenodd"/><path fill="#2f6319" d="M 156.105469 215.027344 C 152.617188 210.097656 150.613281 203.691406 144.453125 201.433594 C 144.453125 201.109375 144.453125 200.785156 144.453125 200.460938 C 150.398438 201.96875 154.976562 207.628906 156.105469 215.027344 " fill-opacity="1" fill-rule="evenodd"/><path fill="#2f6319" d="M 415.675781 210.171875 C 415.792969 211.542969 414.273438 210.457031 413.734375 210.496094 C 413.582031 209.765625 415.488281 209.496094 415.675781 210.171875 " fill-opacity="1" fill-rule="evenodd"/><path fill="#2f6319" d="M 428.945312 211.464844 C 428.140625 211.503906 427.941406 212.070312 427.328125 211.464844 C 427.449219 210.601562 429.046875 209.949219 428.945312 211.464844 " fill-opacity="1" fill-rule="evenodd"/><path fill="#2f6319" d="M 427.328125 214.378906 C 427.269531 215.289062 426.761719 215.757812 425.710938 215.675781 C 425.535156 215.414062 425.371094 215.148438 425.386719 214.703125 C 425.769531 214.328125 426.53125 214.335938 427.328125 214.378906 " fill-opacity="1" fill-rule="evenodd"/><path fill="#2f6319" d="M 204.652344 215.996094 C 207.5625 217.175781 206.703125 223.761719 205.949219 226.675781 C 205.054688 223.582031 205.414062 219.230469 204.652344 215.996094 " fill-opacity="1" fill-rule="evenodd"/><path fill="#2f6319" d="M 268.089844 249.332031 C 268.300781 251.054688 265.542969 249.808594 266.144531 251.925781 C 265.375 251.511719 264.828125 250.867188 264.855469 249.65625 C 265.828125 248.796875 266.613281 249.210938 268.089844 249.332031 " fill-opacity="1" fill-rule="evenodd"/><path fill="#2f6319" d="M 265.5 257.75 C 265.75 257.109375 267.585938 257.574219 267.441406 258.394531 C 266.234375 258.742188 266.519531 257.59375 265.5 257.75 " fill-opacity="1" fill-rule="evenodd"/><path fill="#2f6319" d="M 340.261719 282.347656 C 341.472656 282.21875 342.164062 282.605469 342.207031 283.640625 C 341.152344 283.613281 340.464844 283.226562 340.261719 282.347656 " fill-opacity="1" fill-rule="evenodd"/><path fill="#2f6319" d="M 589.800781 285.582031 C 591.785156 286.40625 589.882812 289.949219 588.507812 290.4375 C 587.699219 288.761719 589.589844 287.285156 589.800781 285.582031 " fill-opacity="1" fill-rule="evenodd"/><path fill="#2f6319" d="M 340.261719 287.199219 C 339.589844 288.265625 338.898438 286.65625 338.320312 286.554688 C 338.832031 285.082031 339.480469 287.035156 340.261719 287.199219 " fill-opacity="1" fill-rule="evenodd"/><path fill="#2f6319" d="M 351.589844 291.40625 C 351.660156 292.664062 348.691406 292.144531 349.003906 291.085938 C 349.601562 290.523438 351.320312 290.667969 351.589844 291.40625 " fill-opacity="1" fill-rule="evenodd"/><path fill="#2f6319" d="M 673.625 300.472656 C 674.628906 302.664062 672.648438 304.664062 672.011719 306.296875 C 669.902344 304.964844 673.035156 302.152344 673.625 300.472656 " fill-opacity="1" fill-rule="evenodd"/><path fill="#2f6319" d="M 424.089844 302.089844 C 424.238281 303.101562 423.804688 303.53125 422.792969 303.382812 C 422.570312 302.296875 423.335938 302.199219 424.089844 302.089844 " fill-opacity="1" fill-rule="evenodd"/><path fill="#2f6319" d="M 518.273438 321.832031 C 520.082031 323.585938 520.890625 326.332031 521.507812 329.277344 C 519.527344 327.882812 517.902344 324.511719 518.273438 321.832031 " fill-opacity="1" fill-rule="evenodd"/><path fill="#2f6319" d="M 634.789062 348.371094 C 637.257812 348.816406 638.847656 350.136719 639.96875 351.929688 C 637.617188 351.363281 635.855469 350.21875 634.789062 348.371094 " fill-opacity="1" fill-rule="evenodd"/><g clip-path="url(#844687d873)"><path fill="#2f6319" d="M 633.492188 343.839844 C 633.050781 343.738281 632.867188 343.378906 632.199219 343.515625 C 632.046875 348.464844 631.421875 355.347656 635.113281 358.082031 C 636.117188 356.71875 635.71875 353.941406 637.375 353.226562 C 641.6875 354.203125 644.195312 356.976562 648.703125 357.757812 C 647.265625 353.796875 645.292969 350.375 644.816406 345.457031 C 639.050781 345.9375 636.4375 343.269531 632.84375 341.574219 C 632.628906 342.757812 633.546875 342.816406 633.492188 343.839844 Z M 665.535156 318.917969 C 666.992188 319.507812 670.488281 319.347656 671.035156 317.949219 C 669.714844 317.5 666.085938 317.523438 665.535156 318.917969 Z M 516.652344 318.269531 C 514.824219 322.636719 508.339844 325.507812 511.476562 334.132812 C 513.542969 333.179688 514.382812 331 516.976562 330.570312 C 520.464844 332.148438 521.609375 336.078125 525.070312 337.691406 C 525.070312 335.964844 525.070312 334.238281 525.070312 332.511719 C 526.007812 330.292969 528.953125 330.503906 529.273438 328.304688 C 529.984375 323.492188 518.558594 321.441406 517.296875 317.300781 C 517.085938 317.300781 516.871094 317.300781 516.652344 317.300781 C 516.558594 317.585938 516.769531 317.996094 516.652344 318.269531 Z M 672.652344 291.085938 C 674.078125 299.203125 667.601562 299.410156 667.800781 306.296875 C 668.917969 306.042969 669.222656 306.597656 669.414062 307.269531 C 666.835938 311.375 664.433594 315.660156 661.648438 319.566406 C 662.5625 320.5625 663.882812 319.230469 665.210938 319.566406 C 665.46875 318.441406 664.730469 318.324219 664.886719 317.300781 C 668.164062 315.507812 668.164062 310.4375 671.035156 308.238281 C 671.492188 311.335938 678.167969 310.539062 678.15625 307.589844 C 676.691406 307.757812 675.824219 307.332031 675.566406 306.296875 C 677.835938 302.066406 679.632812 294.730469 677.832031 288.496094 C 675.105469 288.433594 675.550781 293.25 672.652344 291.085938 Z M 505.972656 286.230469 C 506.800781 288.316406 507.304688 290.722656 509.207031 291.730469 C 510.261719 290.640625 507.609375 288.621094 509.207031 287.847656 C 543.367188 300.835938 576.335938 315.011719 618.925781 319.566406 C 620.203125 319.476562 619.914062 320.949219 621.191406 320.859375 C 632.40625 319.894531 650.515625 322.503906 661.324219 319.242188 C 633.371094 319.183594 604.160156 316.15625 580.085938 310.179688 C 581.636719 306.632812 586.039062 302.003906 585.269531 298.53125 C 582.3125 302.15625 580.386719 306.808594 576.851562 309.859375 C 550.359375 301.609375 525.175781 292.058594 499.820312 282.671875 C 500.546875 285.179688 503.929688 285.035156 505.972656 286.230469 Z M 420.203125 285.90625 C 418.503906 290.570312 414.421875 292.855469 409.523438 294.320312 C 410.453125 299.011719 417.566406 299.386719 420.851562 296.585938 C 422.734375 295.132812 422.226562 291.167969 424.089844 290.113281 C 423.601562 290.390625 426.214844 290.90625 426.03125 290.113281 C 429.78125 293.375 430.113281 305.902344 425.707031 307.589844 C 427.769531 303.535156 428.273438 294.285156 425.058594 291.085938 C 424.613281 296.523438 417.707031 298.660156 417.613281 304.355469 C 417.519531 310.261719 423.207031 314.515625 428.945312 316.328125 C 428.105469 311.933594 427.253906 304.792969 432.179688 304.355469 C 432.429688 305.898438 431.027344 305.789062 431.207031 307.269531 C 432.839844 310.574219 438.683594 309.6875 439.625 306.296875 C 437.886719 304.121094 434.675781 302.882812 433.796875 299.5 C 432.953125 296.25 433.914062 292.511719 431.207031 290.4375 C 431.378906 289.53125 432.734375 289.808594 432.828125 288.820312 C 428.457031 286.394531 423.304688 284.75 419.882812 281.375 C 419.664062 281.375 419.449219 281.375 419.234375 281.375 C 419.28125 283.160156 420.226562 284.054688 420.203125 285.90625 Z M 419.234375 279.109375 C 418.996094 276.867188 418.480469 274.898438 416.320312 274.578125 C 417.046875 276.332031 416.871094 278.996094 419.234375 279.109375 Z M 586.5625 283.640625 C 584.960938 283.40625 585.035156 281.5 583.972656 280.726562 C 582.457031 280.304688 580.421875 280.394531 578.472656 280.40625 C 577.875 286.929688 580.378906 290.367188 584.296875 292.378906 C 584.523438 290.300781 582.726562 287.960938 584.296875 286.554688 C 585.339844 290.398438 586.34375 294.332031 585.269531 297.878906 C 586.980469 297.941406 587.367188 295.429688 588.179688 294.644531 C 590.730469 292.179688 593.832031 291.285156 594.328125 287.199219 C 594.992188 281.773438 592.410156 276.113281 588.503906 272.3125 C 588.289062 272.3125 588.070312 272.3125 587.855469 272.3125 C 588.320312 275.777344 588.578125 281.605469 586.5625 283.640625 Z M 472.3125 272.636719 C 475.105469 273.964844 478.589844 271.125 479.429688 268.429688 C 476.542969 269.3125 475.082031 271.632812 472.3125 272.636719 Z M 255.140625 245.449219 C 257.269531 245.289062 260.753906 244.03125 261.941406 245.773438 C 259.703125 251.996094 262.5625 261.449219 266.792969 265.191406 C 275.75 261.203125 267.625 247.976562 269.058594 240.597656 C 271.226562 244.46875 271.820312 249.917969 272.621094 255.160156 C 274.660156 256.785156 277.058594 258.054688 279.738281 259.042969 C 282.25 254.683594 282.449219 247.890625 279.738281 244.480469 C 277.484375 241.636719 272.816406 240.65625 270.355469 237.035156 C 268.027344 233.609375 267.597656 230.945312 265.824219 227.003906 C 265.5 227.003906 265.175781 227.003906 264.851562 227.003906 C 267.738281 238.265625 258.347656 239.28125 255.140625 245.449219 Z M 486.875 230.886719 C 486.894531 233.421875 484.507812 235.652344 485.261719 238.332031 C 485.46875 239.070312 487.3125 240.738281 487.527344 240.917969 C 492.1875 244.84375 496.542969 239.015625 494.96875 232.503906 C 493.425781 232.253906 492.882812 233.011719 491.40625 232.828125 C 491.949219 235.53125 491.699219 239.078125 490.117188 240.597656 C 489.40625 234.910156 492.863281 229.089844 489.789062 224.089844 C 486.898438 224.5 485.75 223.167969 482.996094 223.441406 C 483.246094 225.871094 486.859375 227.019531 486.875 230.886719 Z M 143.484375 143.175781 C 146.898438 139.148438 152.363281 137.167969 155.132812 132.496094 C 142.390625 133.667969 131.929688 137.125 133.125 152.238281 C 135.113281 152.492188 135.679688 149.625 137.007812 150.296875 C 130.390625 158.566406 123.433594 166.492188 115.648438 173.601562 C 114.65625 171.246094 115.015625 167.542969 114.355469 164.859375 C 121.539062 156.675781 108.078125 143.058594 99.464844 150.621094 C 102.5625 153.695312 113.691406 153.476562 110.46875 159.683594 C 108.953125 153.648438 100.207031 154.84375 96.550781 150.945312 C 94.578125 152.074219 90.851562 152.144531 88.136719 151.589844 C 91.335938 160.367188 97.203125 166.476562 107.882812 167.773438 C 109.625 168.222656 109.238281 166.542969 110.792969 166.804688 C 111.921875 168.589844 113.011719 170.410156 113.058594 173.277344 C 110.515625 175.195312 106.933594 176.335938 103.996094 177.160156 C 88.585938 181.488281 73.074219 182.785156 59.007812 187.839844 C 44.972656 192.886719 33.726562 200.433594 20.820312 205.640625 C 19.304688 205 17.824219 204.320312 15.316406 204.671875 C 14.445312 205.578125 14.492188 208.210938 14.992188 209.523438 C 16.660156 209.90625 18.011719 210.605469 19.199219 211.46875 C 26.890625 209.597656 33.570312 205.433594 40.886719 202.082031 C 47.929688 198.851562 55.71875 196.734375 63.863281 193.664062 C 74.929688 189.496094 86.285156 184.96875 99.464844 182.335938 C 107.753906 180.683594 113.242188 179.316406 119.53125 182.015625 C 121.863281 183.015625 125.730469 186.472656 129.566406 189.457031 C 133.136719 192.238281 136.863281 194.667969 138.953125 197.550781 C 141.847656 201.550781 138.859375 206.808594 141.542969 211.46875 C 147.117188 212.050781 152.257812 212.578125 155.132812 216.644531 C 156.339844 218.347656 156.214844 220.316406 158.046875 221.824219 C 163.179688 215.320312 160.566406 204.492188 155.457031 200.460938 C 149.042969 195.40625 138.671875 198.011719 135.066406 190.105469 C 131.292969 186.976562 127.109375 184.253906 124.386719 180.074219 C 138.90625 180.445312 153.179688 181.019531 166.785156 182.660156 C 171.132812 183.1875 175.496094 183.800781 179.730469 184.28125 C 186.945312 185.09375 194.023438 184.203125 199.472656 187.839844 C 201.070312 194.332031 202.796875 200.703125 203.683594 207.90625 C 201.390625 211.632812 195.585938 213.542969 196.238281 218.585938 C 196.550781 221.011719 200.453125 222.566406 201.09375 225.382812 C 202.007812 229.414062 199.761719 231.046875 198.828125 235.09375 C 204.835938 234.558594 209.257812 231.578125 212.097656 228.296875 C 216.710938 222.964844 213.800781 214.265625 210.480469 209.523438 C 209.246094 207.765625 206.992188 206.648438 205.949219 204.671875 C 204.738281 202.378906 204.382812 198.867188 203.683594 195.929688 C 202.910156 192.703125 201.992188 189.617188 201.738281 187.195312 C 220.667969 188.871094 237.480469 195.46875 254.820312 199.816406 C 254.785156 201.25 255.722656 201.714844 255.464844 203.375 C 258.914062 207.988281 261.066406 214.242188 262.910156 220.207031 C 263.488281 222.074219 263.660156 224.59375 265.175781 226.03125 C 265.148438 216.996094 259.703125 208.847656 258.703125 200.785156 C 279.277344 205.890625 300.140625 210.703125 319.226562 217.292969 C 320.445312 217.539062 320.773438 216.898438 321.816406 216.96875 C 335.148438 230.070312 339.984375 253.390625 343.5 275.226562 C 343.0625 273.828125 343.046875 272.007812 341.558594 271.664062 C 340.097656 275.597656 336.890625 277.789062 331.523438 277.8125 C 329.542969 280.726562 331.332031 284.371094 332.496094 286.878906 C 335.980469 289.730469 344.230469 292.722656 345.765625 286.554688 C 346.289062 284.457031 344.558594 281.464844 346.738281 279.433594 C 350.925781 286.4375 344 295.144531 336.054688 291.085938 C 333.9375 293.28125 332.988281 296.648438 330.875 298.851562 C 333.40625 301.167969 338.492188 302.269531 341.558594 300.148438 C 343.785156 298.605469 343.027344 295.695312 345.441406 294.96875 C 346.511719 296.441406 344.753906 297.382812 345.117188 299.175781 C 347.695312 300.375 349.558594 302.289062 353.210938 302.414062 C 352.925781 298.71875 352.808594 292.636719 356.125 290.761719 C 357.128906 291.839844 356.210938 292.449219 356.125 293.996094 C 357.914062 294.796875 358.769531 296.53125 361.625 296.265625 C 363.109375 284.285156 350.351562 283.335938 346.410156 276.519531 C 344.226562 272.738281 343.925781 266.398438 342.851562 261.308594 C 339.441406 245.128906 334.367188 231.023438 327.964844 219.558594 C 351.851562 227.171875 375.066406 235.460938 398.199219 243.832031 C 400.734375 247.226562 402.300781 251.59375 405.640625 254.191406 C 405.816406 251.3125 401.472656 248.433594 402.078125 245.128906 C 425.847656 253.726562 448.183594 263.753906 471.988281 272.3125 C 471.546875 270.03125 468.707031 270.046875 467.132812 269.402344 C 439.875 258.207031 413.523438 244.429688 385.574219 234.121094 C 394.0625 228.046875 402.8125 222.234375 413.085938 217.941406 C 412.386719 218.632812 412.921875 219.75 413.410156 220.207031 C 419.402344 224.824219 431.289062 222.832031 437.359375 219.558594 C 434.9375 216.046875 436.25 208.796875 433.472656 205.640625 C 437.871094 203.140625 438.195312 192.746094 434.445312 189.132812 C 432.101562 192.507812 429.519531 195.644531 426.03125 197.875 C 426.878906 198.964844 426.957031 200.832031 428.296875 201.433594 C 430.867188 200.84375 432.222656 197.425781 434.445312 197.550781 C 433.699219 200.257812 430.894531 200.90625 429.914062 203.375 C 430.253906 203.933594 431.808594 203.777344 430.882812 204.671875 C 424.289062 203.042969 422 211.023438 419.558594 215.675781 C 418.125 212.242188 419.796875 208.75 421.824219 205.964844 C 423.035156 204.300781 425.558594 203.515625 425.707031 201.757812 C 426.046875 197.683594 419.359375 194.878906 415.027344 193.664062 C 412.023438 199.414062 407.996094 206.8125 410.496094 215.996094 C 400.96875 221.679688 391.464844 227.394531 381.367188 232.503906 C 358.0625 223.859375 332.6875 213.882812 308.542969 208.230469 C 318.648438 195.03125 334.207031 187.285156 347.382812 177.160156 C 348.09375 177.527344 348.707031 177.996094 349.972656 177.808594 C 351.898438 177.574219 351.503906 175.023438 353.53125 174.894531 C 354.765625 176.554688 352.289062 177.507812 353.210938 178.777344 C 356.839844 183.582031 367.296875 184.578125 374.894531 183.308594 C 373.113281 179.457031 375.238281 175.039062 373.925781 171.980469 C 372.09375 167.738281 366.667969 169.855469 362.917969 170.363281 C 362.8125 166.753906 367.609375 167.441406 370.039062 166.15625 C 374.902344 163.578125 379.320312 156.824219 375.21875 150.296875 C 372.503906 151.6875 370.496094 154.105469 367.125 154.828125 C 364.335938 155.425781 361.726562 154.960938 359.359375 155.800781 C 354.894531 157.375 351.949219 161.832031 349.972656 166.15625 C 347.171875 161.234375 353.707031 159.125 353.855469 156.121094 C 354.09375 151.273438 345.609375 149.683594 340.261719 150.945312 C 339.710938 159.535156 338.703125 170.074219 346.410156 171.332031 C 346.75 172.074219 346.617188 173.285156 347.058594 173.921875 C 332.207031 184.097656 317.195312 194.113281 305.308594 207.257812 C 287 202.15625 268.65625 197.089844 249.964844 192.371094 C 248.292969 192.316406 248.46875 194.113281 246.726562 193.992188 C 250.285156 188.054688 257.105469 185.378906 260.320312 179.101562 C 264.21875 177.683594 264.699219 172.90625 269.058594 172.628906 C 274.617188 172.277344 279.699219 179.933594 286.859375 180.398438 C 289.488281 180.566406 291.496094 179.683594 294.949219 179.425781 C 297.972656 176.839844 290.855469 168.523438 288.476562 168.097656 C 284.429688 167.371094 282.917969 172.246094 279.414062 171.011719 C 282.859375 164.3125 295.78125 167.089844 297.863281 159.035156 C 292.53125 156.492188 292.5625 148.589844 282.976562 150.296875 C 281.074219 153.082031 279.722656 157.980469 276.179688 158.0625 C 277.585938 154.378906 281.441406 151.21875 282.007812 146.414062 C 282.863281 139.109375 278.875 134.460938 275.535156 131.199219 C 272.152344 134.183594 269.828125 138.226562 268.089844 142.851562 C 269.074219 145.433594 270.066406 149.71875 269.382812 152.886719 C 268.0625 147.734375 267.144531 142.179688 261.941406 140.910156 C 261.746094 146.496094 259.710938 149.476562 259.675781 154.179688 C 259.632812 159.539062 263.71875 162.800781 264.203125 167.128906 C 264.972656 173.945312 258.054688 179.089844 254.171875 182.660156 C 249.816406 186.667969 246.058594 190.933594 242.195312 193.019531 C 241.449219 192.351562 243.289062 191.121094 242.195312 190.105469 C 228.582031 187.433594 214.074219 185.648438 202.710938 180.71875 C 209.070312 174.132812 214.914062 167.03125 222.777344 161.945312 C 236.253906 164.515625 239.035156 150.8125 240.578125 139.292969 C 236.417969 138.347656 232.511719 138.351562 231.839844 141.882812 C 231.566406 143.316406 232.894531 145.324219 233.132812 147.382812 C 233.59375 151.335938 233.429688 155.167969 230.222656 156.445312 C 232.257812 145.589844 229.296875 131.066406 215.007812 132.496094 C 216.320312 136.359375 218.242188 139.609375 217.597656 144.792969 C 217.246094 147.609375 215.664062 150.152344 215.980469 152.5625 C 216.1875 154.144531 219.191406 159.546875 220.511719 158.710938 C 213.472656 165.480469 207.261719 173.078125 200.121094 179.75 C 197.878906 179.234375 197.351562 180.429688 195.914062 180.71875 C 172.46875 176.296875 142.601562 175.472656 118.238281 174.894531 C 124.375 167.007812 130.839844 159.445312 139.277344 153.855469 C 139.582031 152.113281 140.335938 150.816406 141.863281 150.296875 C 142.582031 150.980469 142.667969 152.296875 144.128906 152.238281 C 156.949219 149.847656 166.347656 144.03125 165.167969 127.640625 C 157.292969 132.175781 152.304688 139.59375 143.484375 143.175781 Z M 167.109375 123.109375 C 167.566406 127.914062 168.199219 133.714844 166.785156 138.644531 C 164.535156 146.507812 153.070312 154.949219 144.453125 154.828125 C 143.40625 154.8125 141.949219 154.007812 140.894531 154.179688 C 138.160156 154.625 132.535156 161.296875 130.535156 163.242188 C 126.902344 166.78125 123.582031 169.308594 121.148438 173.277344 C 146.953125 173.90625 173.308594 173.980469 194.621094 179.101562 C 196.382812 178.8125 196.867188 177.25 199.472656 177.808594 C 205.890625 172.140625 210.460938 164.628906 217.597656 159.683594 C 217.449219 156.957031 214.570312 155.824219 214.039062 153.210938 C 213.234375 149.226562 216.242188 144.890625 215.65625 140.261719 C 215.136719 136.152344 212.691406 134.953125 212.417969 130.875 C 220.519531 128.789062 227.914062 132.804688 230.222656 138.644531 C 233.25 135.679688 239.015625 135.832031 243.816406 137.351562 C 240.363281 148.753906 239.9375 163.351562 226.660156 164.535156 C 225.386719 164.652344 223.550781 163.9375 222.128906 164.214844 C 219.101562 164.800781 215.46875 169.671875 213.066406 171.980469 C 209.898438 175.035156 206.441406 177.210938 204.976562 180.71875 C 213.964844 183.523438 223.578125 185.289062 234.429688 187.195312 C 237.976562 187.816406 241.96875 189.492188 244.460938 189.132812 C 247.828125 188.648438 251.957031 182.238281 254.171875 179.75 C 255.40625 178.359375 257.035156 176.808594 258.703125 174.894531 C 260.800781 172.480469 263.414062 170.90625 262.585938 167.449219 C 261.796875 164.144531 258.332031 161.523438 257.730469 157.742188 C 256.582031 150.492188 259.707031 145.410156 260.644531 138.320312 C 263.964844 137.914062 264.34375 140.449219 266.792969 140.910156 C 268.855469 135.742188 272.492188 132.152344 274.882812 127.316406 C 277.410156 129.480469 280.515625 133.332031 282.328125 136.703125 C 283.628906 139.113281 284.058594 142.777344 283.949219 147.382812 C 291.390625 147.273438 294.464844 151.539062 297.21875 156.121094 C 298.710938 156.945312 300.507812 155.742188 301.425781 156.769531 C 300.230469 162.265625 296.167969 164.890625 292.039062 167.449219 C 294.316406 171.75 301.363281 176.21875 295.921875 181.691406 C 292.453125 181.835938 290.125 183.050781 287.507812 182.984375 C 279.816406 182.792969 273.214844 173.125 267.117188 175.539062 C 264.480469 176.585938 261.433594 180.175781 258.703125 182.660156 C 255.800781 185.304688 253.226562 188.296875 251.257812 190.753906 C 268.695312 195.972656 286.765625 200.558594 304.660156 205.316406 C 316.890625 193.378906 330.269531 182.59375 345.441406 173.601562 C 342.554688 171.558594 339.152344 170.28125 338 166.15625 C 336.558594 161.011719 338.695312 154.636719 337.675781 149.972656 C 343.90625 145.972656 354.4375 149.164062 356.125 154.828125 C 359.800781 152.300781 367.082031 153.765625 371.011719 150.621094 C 372.496094 149.433594 372.566406 148.050781 374.570312 146.738281 C 382.523438 151.839844 378.699219 163.082031 372.628906 167.449219 C 373.417969 169.316406 375.847656 169.390625 376.511719 171.980469 C 377.027344 173.980469 376.300781 176.664062 376.511719 178.777344 C 376.824219 181.882812 378.128906 182.914062 378.453125 184.925781 C 370.246094 187.007812 355.335938 186.328125 351.589844 179.101562 C 346.136719 178.164062 342.730469 183.003906 338.320312 185.574219 C 328.460938 191.324219 319.222656 199.292969 311.78125 206.613281 C 330.707031 212.777344 352.992188 220.476562 372.953125 227.648438 C 375.875 228.699219 379.519531 230.683594 381.691406 230.5625 C 383.839844 230.441406 386.140625 228.144531 388.484375 226.675781 C 395.074219 222.558594 402.628906 219.675781 408.554688 215.351562 C 405.46875 205.453125 411.125 197.679688 414.378906 191.078125 C 418.351562 192.394531 421.792969 194.234375 424.734375 196.578125 C 429.632812 194.464844 432.507812 190.324219 433.472656 184.28125 C 437.644531 187.03125 442.050781 201.796875 436.0625 205.316406 C 438.324219 209.097656 436.949219 216.515625 440.273438 219.234375 C 434.382812 225.300781 417.160156 227.484375 411.140625 220.207031 C 403.609375 224.429688 395.746094 228.328125 389.136719 233.472656 C 411.992188 243.265625 438.566406 255.324219 462.929688 265.839844 C 466.109375 267.214844 471.191406 270.277344 473.609375 270.046875 C 477.347656 269.6875 481.742188 262.144531 483.640625 259.042969 C 486.609375 254.195312 488.414062 249.933594 490.117188 244.800781 C 486.988281 242.171875 483.398438 241.3125 482.996094 237.359375 C 482.761719 235.148438 484.699219 233.011719 484.609375 230.5625 C 484.457031 226.328125 480.863281 225.84375 479.429688 222.46875 C 482.492188 220.585938 487.058594 222.195312 490.761719 222.46875 C 492.507812 223.953125 492.761719 226.941406 493.027344 229.914062 C 494.007812 231.21875 495.160156 228.886719 495.941406 229.914062 C 498.433594 235.402344 496.738281 243.101562 491.40625 244.480469 C 490.296875 256.964844 484.636719 264.894531 478.460938 272.3125 C 509.835938 285.386719 542.308594 297.363281 576.203125 307.914062 C 580.105469 305.023438 581.816406 299.933594 584.617188 295.9375 C 582.460938 293.234375 578.320312 291.058594 576.851562 287.199219 C 575.882812 284.65625 576.261719 281.0625 575.234375 278.785156 C 578.265625 278.0625 582.894531 278.429688 585.589844 279.109375 C 586.71875 276.289062 585.023438 270.648438 586.238281 268.753906 C 591.847656 270.640625 595.332031 277.863281 595.949219 283.964844 C 596.871094 293.101562 590.5 293.804688 586.882812 299.824219 C 584.683594 303.488281 584.5 306.503906 582.351562 309.210938 C 605.949219 314.402344 633.054688 318.855469 661.648438 316.976562 C 663.863281 314.546875 665.210938 311.261719 667.152344 308.5625 C 666.84375 306.890625 665.574219 306.175781 665.535156 304.679688 C 665.441406 301.464844 669.21875 300.152344 670.386719 296.585938 C 671.554688 293.011719 669.726562 291.339844 670.386719 287.199219 C 672.128906 286.039062 672.371094 288.777344 673.945312 288.820312 C 675.722656 288.105469 676.785156 284.972656 678.480469 285.257812 C 681.492188 289.425781 681.050781 297.546875 679.773438 303.382812 C 679.628906 305.035156 681.894531 304.285156 681.71875 305.972656 C 680.835938 310.726562 675.632812 314.40625 670.386719 311.796875 C 668.867188 312.542969 668.503906 314.445312 667.800781 316.007812 C 695.28125 315.546875 717.546875 305.339844 737.707031 297.558594 C 737.5 301.742188 732.394531 301.589844 729.617188 302.734375 C 720.511719 306.492188 711.492188 311.621094 700.488281 314.386719 C 678.105469 320.011719 652.289062 324.691406 623.78125 322.15625 C 625.300781 326.464844 628.339844 329.25 629.609375 333.808594 C 633.03125 335.160156 633.753906 339.457031 636.726562 341.574219 C 639.578125 343.605469 643.945312 342.351562 647.410156 344.488281 C 646.835938 351.75 650.429688 354.84375 652.585938 359.375 C 646.796875 361.71875 642.726562 357.007812 638.347656 355.816406 C 636.265625 357.761719 637.285156 362.335938 636.726562 364.230469 C 634.433594 362.664062 630.902344 356.550781 630.253906 351.929688 C 629.804688 348.699219 630.917969 345.523438 631.226562 342.222656 C 626.277344 336.164062 623.011719 328.429688 618.925781 321.507812 C 577.230469 316.917969 544.765625 303.105469 511.152344 290.4375 C 514.890625 302.34375 516.128906 319.550781 528.953125 323.449219 C 529.886719 325.210938 531.066406 326.726562 531.542969 328.953125 C 530.441406 330.761719 528.222656 331.460938 527.007812 333.160156 C 526.394531 336.667969 529.050781 340.671875 526.6875 342.871094 C 523.5 342.542969 520.15625 333.179688 516.976562 332.835938 C 514.160156 332.53125 513.835938 336.0625 512.121094 338.015625 C 508.695312 334.261719 507.972656 329.386719 509.855469 324.421875 C 510.996094 321.417969 515.269531 319.1875 515.359375 316.007812 C 515.40625 314.28125 513.652344 311.363281 512.773438 308.886719 C 510.832031 303.445312 509.980469 299.566406 507.914062 294.320312 C 507.207031 292.53125 506.035156 288.988281 505 287.847656 C 503.011719 285.652344 496.332031 284.191406 492.378906 282.671875 C 463.734375 271.640625 433.089844 257.878906 404.671875 248.039062 C 406.039062 252.792969 409.507812 257.257812 412.4375 262.605469 C 416.078125 269.25 418.414062 278.761719 425.058594 282.671875 C 427.125 283.882812 430.546875 285.371094 432.828125 286.230469 C 435.578125 287.269531 440.191406 287.839844 440.273438 290.113281 C 440.359375 292.566406 437.144531 292.824219 434.769531 292.378906 C 435.136719 298.914062 437.402344 303.554688 441.890625 305.972656 C 441.050781 308.359375 438.105469 311.421875 435.417969 311.472656 C 433.023438 311.523438 432.433594 309.410156 430.238281 308.886719 C 429.09375 312.988281 431.953125 317.480469 432.503906 319.890625 C 430.90625 320.082031 429.046875 318.777344 427.328125 317.949219 C 421.675781 315.234375 414.003906 309.972656 416.644531 301.117188 C 414.054688 300.414062 406.589844 298.335938 406.933594 294.644531 C 407.265625 291.132812 417.605469 291.191406 418.265625 285.582031 C 418.417969 284.257812 417.574219 281.066406 417.292969 280.082031 C 416.480469 277.234375 414.398438 273.992188 412.761719 271.019531 C 408.082031 262.503906 402.734375 253.777344 397.871094 245.449219 C 375.894531 237.4375 354.136719 229.203125 331.199219 222.148438 C 336 231.039062 340.554688 245.992188 343.824219 258.722656 C 345.460938 265.101562 345.6875 271.925781 349 276.199219 C 352.152344 280.261719 359.253906 282.433594 361.949219 288.171875 C 362.898438 290.199219 365.425781 297.113281 361.949219 298.203125 C 359.007812 299.125 357.214844 295.851562 355.472656 295.9375 C 354.417969 298.234375 355.839844 302.414062 355.148438 304.355469 C 351.160156 304.617188 347.25 302.160156 344.46875 300.148438 C 340.316406 305.058594 330.757812 303.269531 327.640625 298.53125 C 328.125 296.960938 330.003906 296.792969 331.199219 295.9375 C 332.042969 294.085938 332.84375 292.1875 334.113281 290.761719 C 330.226562 288.371094 326.429688 281.0625 330.230469 275.875 C 335.453125 276.171875 340.472656 273.511719 340.910156 268.429688 C 341.21875 264.855469 338.53125 259.105469 337.351562 254.511719 C 333.929688 241.210938 329.074219 225.683594 321.167969 218.910156 C 302.078125 212.539062 281.527344 207.628906 260.320312 203.375 C 265.382812 214.238281 265.863281 228.121094 272.945312 236.710938 C 275.957031 240.367188 282.515625 242.050781 283.625 248.363281 C 284.359375 252.535156 283.4375 257.660156 280.710938 261.308594 C 277.816406 261.074219 276.597656 259.164062 273.914062 258.722656 C 271.777344 263.164062 268.992188 266.960938 265.175781 269.722656 C 263.570312 262.09375 257.523438 257.398438 259.351562 247.390625 C 256.457031 246.445312 254.515625 249.242188 251.582031 249.332031 C 249.609375 245.628906 253.640625 242.84375 256.113281 240.597656 C 258.753906 238.191406 262.359375 236.253906 263.882812 233.472656 C 262.683594 220.824219 258.027344 209.230469 251.582031 200.785156 C 235.28125 197.453125 222.429688 190.667969 203.683594 189.78125 C 204.410156 194.125 205.535156 198.070312 206.59375 202.082031 C 213.78125 208.230469 220.910156 220.792969 213.390625 229.914062 C 210.804688 233.054688 201.734375 240.53125 196.238281 235.417969 C 196.742188 231.722656 199.570312 230.324219 199.152344 226.675781 C 198.757812 223.253906 194.285156 221.625 193.972656 218.585938 C 193.40625 213.046875 198.925781 210.773438 202.0625 207.257812 C 200.648438 201.230469 199.671875 194.765625 197.855469 189.132812 C 176.703125 185.582031 154.546875 183.035156 129.890625 182.984375 C 132.777344 187.433594 137.082031 190.460938 141.21875 193.664062 C 150.90625 194.304688 161.4375 199.265625 162.902344 208.554688 C 164.027344 215.664062 162.148438 222.800781 157.078125 225.382812 C 154.242188 223.273438 155.136719 219.730469 153.191406 217.292969 C 150.289062 213.652344 144.867188 214.914062 139.921875 213.082031 C 136.191406 209.972656 139.589844 204.289062 138.628906 200.140625 C 137.824219 196.675781 131.867188 193.667969 129.566406 191.722656 C 124.601562 187.53125 121.546875 183.226562 114.03125 182.660156 C 105.992188 182.058594 96.277344 185.457031 88.136719 187.515625 C 80.152344 189.535156 72.367188 192.597656 65.160156 195.285156 C 53.742188 199.539062 42.695312 203.109375 32.148438 208.554688 C 27.382812 211.011719 23.472656 213.671875 18.554688 213.410156 C 17.402344 212.058594 14.785156 212.574219 13.375 210.820312 C 11.875 208.957031 11.878906 204.96875 13.699219 203.375 C 15.757812 201.574219 19.152344 203.3125 21.789062 203.050781 C 24.542969 202.78125 28.402344 199.59375 31.820312 197.875 C 41.824219 192.847656 51.535156 187.828125 62.894531 184.28125 C 79.714844 179.027344 96.003906 177.5 110.792969 172.628906 C 111.027344 171.640625 110.234375 171.675781 110.46875 170.6875 C 100.765625 169.164062 94.132812 166.746094 89.433594 160.007812 C 87.097656 156.65625 84.6875 152.289062 83.929688 148.679688 C 87.777344 148.304688 89.925781 149.714844 93.316406 149.324219 C 98.355469 148.746094 102.070312 145.042969 107.234375 145.765625 C 112.613281 146.515625 119.027344 153.5 119.210938 159.359375 C 119.34375 163.75 115.394531 166.339844 116.941406 170.6875 C 120.003906 168.457031 121.933594 165.113281 124.386719 162.273438 C 126.769531 159.515625 129.492188 156.992188 131.832031 154.179688 C 128.996094 145.972656 133.082031 138.15625 138.628906 134.4375 C 144.246094 130.671875 152.585938 132.296875 159.019531 128.613281 C 161.816406 127.011719 163.617188 124.5 166.140625 122.785156 C 166.414062 122.726562 166.441406 122.910156 166.460938 123.109375 C 166.675781 123.109375 166.894531 123.109375 167.109375 123.109375 " fill-opacity="1" fill-rule="evenodd"/></g></svg>