<svg xmlns="http://www.w3.org/2000/svg" xmlns:xlink="http://www.w3.org/1999/xlink" width="500" zoomAndPan="magnify" viewBox="0 0 375 374.999991" height="500" preserveAspectRatio="xMidYMid meet" version="1.0"><defs><clipPath id="fcedd5d400"><path d="M 90.332031 128.714844 L 284.582031 128.714844 L 284.582031 246.464844 L 90.332031 246.464844 Z M 90.332031 128.714844 " clip-rule="nonzero"/></clipPath></defs><g clip-path="url(#fcedd5d400)"><path fill="#1a1a1a" d="M 117.191406 176.089844 C 137.53125 176.75 145.28125 179.582031 148.199219 181.855469 C 155.402344 187.941406 164.25 191.679688 174.519531 192.980469 C 174.519531 193.039062 174.523438 193.097656 174.527344 193.15625 C 174.925781 200.914062 175.414062 210.347656 177.320312 221.15625 C 169.65625 219.675781 159.980469 220.527344 148.457031 223.699219 C 147.210938 220.722656 145.535156 218.933594 143.375 218.269531 C 140.957031 217.527344 138.335938 218.328125 135.582031 220.648438 C 135.398438 220.804688 135.234375 220.988281 135.09375 221.1875 C 132.613281 224.773438 128.425781 227.855469 122.648438 230.335938 C 122.519531 230.390625 122.398438 230.457031 122.285156 230.527344 C 120.332031 231.738281 119.085938 234.03125 119.03125 236.507812 C 118.980469 238.964844 120.117188 241.308594 122.003906 242.625 C 122.472656 242.953125 123.023438 243.117188 123.578125 243.117188 C 123.964844 243.117188 124.359375 243.035156 124.722656 242.867188 C 132.5625 239.261719 139.351562 237.59375 144.90625 237.914062 C 144.917969 237.914062 144.925781 237.914062 144.9375 237.914062 C 144.945312 237.914062 144.953125 237.914062 144.964844 237.914062 C 160.058594 238.46875 173.011719 239.046875 184.558594 239.675781 C 195.460938 240.582031 205.492188 240.988281 217.085938 240.988281 C 218.605469 240.988281 219.835938 239.753906 219.835938 238.230469 C 219.835938 236.707031 218.605469 235.472656 217.085938 235.472656 C 208.726562 235.472656 201.1875 235.257812 193.542969 234.792969 C 198.175781 228.21875 200.863281 214.875 201.902344 193.449219 C 203.625 193.480469 205.308594 193.496094 206.957031 193.496094 C 206.988281 193.496094 207.015625 193.503906 207.046875 193.503906 C 207.078125 193.503906 207.109375 193.496094 207.144531 193.496094 C 213.511719 193.492188 219.300781 193.257812 224.433594 192.796875 C 227.558594 195.707031 231.703125 197.144531 235.78125 196.675781 C 237.273438 196.507812 238.671875 196.082031 239.933594 195.429688 C 241.523438 215.570312 244.769531 228.144531 248.078125 238.71875 C 248.257812 239.285156 248.613281 239.78125 249.09375 240.128906 C 249.488281 240.417969 249.886719 240.679688 250.28125 240.933594 C 247.171875 240.9375 244.082031 240.933594 241.082031 240.933594 L 236.558594 240.929688 C 235.039062 240.929688 233.804688 242.164062 233.804688 243.6875 C 233.804688 245.210938 235.039062 246.445312 236.558594 246.445312 L 241.078125 246.449219 C 242.710938 246.449219 244.363281 246.449219 246.035156 246.449219 C 258.472656 246.449219 271.792969 246.378906 281.957031 245.703125 C 283.472656 245.601562 284.621094 244.289062 284.519531 242.769531 C 284.417969 241.25 283.109375 240.101562 281.59375 240.199219 C 279.585938 240.332031 277.445312 240.441406 275.214844 240.53125 C 275.867188 239.703125 276.339844 238.679688 276.285156 237.441406 C 276.160156 234.53125 273.257812 232.824219 271.085938 231.796875 C 270.953125 231.734375 270.816406 231.679688 270.675781 231.640625 C 269.34375 231.253906 267.859375 231.027344 263.457031 230.359375 C 262.359375 230.191406 261.074219 229.996094 259.558594 229.765625 C 257.863281 215.046875 255.179688 191.449219 254.875 177.625 C 255.597656 173.195312 255.769531 169.453125 255.398438 166.296875 L 259.058594 165.691406 C 267.492188 164.3125 275.300781 155.222656 276.464844 145.441406 C 277.117188 139.984375 275.632812 135.070312 272.386719 131.957031 C 269.648438 129.332031 265.949219 128.242188 261.964844 128.886719 L 261.835938 128.902344 C 261.800781 128.910156 261.765625 128.914062 261.730469 128.917969 C 253.296875 130.316406 245.492188 139.40625 244.332031 149.179688 L 243.78125 153.738281 C 237.296875 153.074219 233.90625 155.3125 230.324219 157.679688 C 229.675781 158.105469 229.019531 158.542969 228.320312 158.976562 C 228.257812 159.011719 228.191406 159.050781 228.132812 159.09375 C 227.429688 159.523438 226.6875 159.957031 225.875 160.382812 C 218.050781 164.460938 210.148438 165.898438 202.382812 164.648438 C 200.808594 164.394531 199.140625 164.042969 197.527344 163.703125 C 190.847656 162.292969 183.941406 160.835938 179.046875 165.0625 C 174.664062 164.816406 169.144531 164.953125 162.605469 165.46875 C 157.660156 165.285156 153.710938 164.433594 150.859375 162.929688 C 144.769531 158.089844 134.921875 156.839844 120.828125 159.128906 C 120.605469 157.808594 120.078125 156.660156 119.257812 155.6875 C 117.734375 153.886719 116.160156 152.972656 114.441406 152.894531 C 111.9375 152.777344 110.214844 154.46875 108.828125 155.832031 C 108.441406 156.210938 108.078125 156.566406 107.722656 156.867188 C 105.359375 158.867188 103.125 159.640625 100.890625 159.242188 C 100.683594 159.203125 100.078125 158.96875 99.675781 158.816406 C 97.769531 158.078125 95.164062 157.070312 92.878906 158.402344 C 91.960938 158.9375 90.796875 160.054688 90.457031 162.332031 C 90.199219 163.984375 90.65625 165.792969 91.839844 167.828125 C 95.519531 174.320312 103.8125 177.027344 117.191406 176.089844 Z M 179.925781 227.554688 C 180.859375 227.890625 181.902344 227.691406 182.652344 227.035156 C 183.402344 226.382812 183.742188 225.375 183.542969 224.398438 C 183.039062 221.957031 182.613281 219.578125 182.253906 217.265625 C 184.789062 218.160156 187.601562 218.617188 190.6875 218.617188 C 191.660156 218.617188 192.660156 218.570312 193.683594 218.480469 C 191.917969 227.347656 189.6875 231.367188 187.761719 233.097656 C 186.859375 233.902344 185.960938 234.246094 184.9375 234.171875 C 184.925781 234.171875 184.910156 234.171875 184.894531 234.171875 C 174.144531 233.585938 162.179688 233.042969 148.414062 232.527344 C 148.695312 231.148438 148.914062 230.054688 149.078125 229.257812 C 162.234375 225.527344 172.613281 224.949219 179.925781 227.554688 Z M 124.546875 236.917969 C 124.535156 236.824219 124.53125 236.726562 124.535156 236.625 C 124.546875 236.003906 124.808594 235.523438 125.078125 235.292969 C 131.523438 232.480469 136.335938 228.90625 139.390625 224.652344 C 140.613281 223.675781 141.425781 223.4375 141.761719 223.539062 C 142.175781 223.667969 143.058594 224.585938 143.878906 227.195312 C 143.703125 228.070312 143.351562 229.796875 142.828125 232.371094 C 137.449219 232.496094 131.320312 234.023438 124.546875 236.917969 Z M 249.191406 154.832031 L 249.792969 149.835938 C 250.667969 142.472656 256.519531 135.402344 262.578125 134.367188 L 262.703125 134.351562 C 262.738281 134.347656 262.769531 134.34375 262.804688 134.335938 C 265.09375 133.957031 267.089844 134.511719 268.582031 135.941406 C 270.5625 137.84375 271.445312 141.066406 271 144.785156 C 270.121094 152.171875 264.246094 159.253906 258.167969 160.25 L 253.835938 160.964844 C 253.832031 160.964844 253.828125 160.96875 253.828125 160.96875 C 253.328125 161.050781 252.878906 161.054688 252.460938 160.988281 C 252.4375 160.984375 252.414062 160.980469 252.390625 160.980469 C 251.625 160.839844 250.984375 160.4375 250.394531 159.742188 C 249.355469 158.523438 248.953125 156.867188 249.191406 154.832031 Z M 243.304688 159.226562 C 243.574219 159.257812 243.832031 159.300781 244.089844 159.347656 C 244.511719 160.824219 245.21875 162.160156 246.207031 163.320312 C 247.226562 164.519531 248.4375 165.398438 249.78125 165.933594 C 250.28125 168.757812 250.15625 172.460938 249.40625 176.972656 C 249.378906 177.140625 249.367188 177.3125 249.367188 177.484375 C 249.65625 191.867188 252.398438 215.6875 254.214844 231.449219 L 254.332031 232.484375 C 254.472656 233.71875 255.421875 234.703125 256.644531 234.894531 C 259.109375 235.277344 261.0625 235.574219 262.628906 235.8125 C 266.488281 236.398438 267.960938 236.621094 268.941406 236.882812 C 269.558594 237.183594 269.992188 237.4375 270.289062 237.636719 C 270.179688 237.714844 270.054688 237.800781 269.90625 237.894531 C 269.546875 237.957031 269.175781 238.023438 268.796875 238.09375 C 264.300781 238.898438 258.75 239.890625 253.050781 236.164062 C 249.136719 223.5 246.277344 210.527344 245.03125 189.335938 C 245.03125 189.332031 245.03125 189.332031 245.03125 189.332031 C 245.03125 189.320312 245.03125 189.308594 245.03125 189.300781 C 245.03125 189.296875 245.03125 189.292969 245.03125 189.292969 C 245.027344 189.257812 245.023438 189.226562 245.019531 189.195312 C 245.015625 189.136719 245.007812 189.082031 245 189.027344 C 244.996094 189.015625 244.996094 189.003906 244.996094 188.996094 C 244.074219 183.605469 243.722656 180.65625 244.234375 175.03125 C 244.371094 173.515625 243.253906 172.175781 241.742188 172.035156 C 240.226562 171.898438 238.890625 173.015625 238.753906 174.53125 C 238.449219 177.867188 238.425781 180.390625 238.617188 182.890625 C 234.371094 178.140625 232.324219 171.542969 232.394531 162.914062 C 232.722656 162.699219 233.042969 162.488281 233.355469 162.28125 C 236.695312 160.074219 238.710938 158.738281 243.304688 159.226562 Z M 226.960938 166 C 227.5 176.609375 231.277344 184.660156 238.226562 190.015625 C 237.371094 190.652344 236.332031 191.0625 235.15625 191.199219 C 232.4375 191.511719 229.515625 190.320312 227.523438 188.089844 C 226.9375 187.433594 226.074219 187.101562 225.199219 187.1875 C 220.445312 187.660156 215.054688 187.921875 209.105469 187.972656 C 207.957031 183.648438 207.09375 177.816406 206.523438 170.578125 C 213.34375 170.808594 220.195312 169.273438 226.960938 166 Z M 196.390625 169.097656 C 197.886719 169.414062 199.429688 169.734375 200.957031 169.996094 C 201.496094 177.347656 202.3125 183.277344 203.425781 187.957031 C 202.089844 187.941406 200.730469 187.914062 199.34375 187.875 C 197.828125 187.832031 196.585938 189.015625 196.523438 190.519531 C 196.148438 199.742188 195.484375 207.046875 194.644531 212.828125 C 189.222656 213.539062 184.769531 212.851562 181.375 210.78125 C 180.605469 204.121094 180.292969 198.105469 180.023438 192.871094 C 179.894531 190.375 179.773438 188.015625 179.613281 185.78125 C 179 177.09375 180.007812 171.535156 182.613281 169.261719 C 185.445312 166.785156 190.761719 167.910156 196.390625 169.097656 Z M 97.695312 163.960938 C 98.46875 164.257812 99.199219 164.542969 99.921875 164.671875 C 103.808594 165.367188 107.628906 164.160156 111.265625 161.085938 C 111.78125 160.65625 112.238281 160.203125 112.679688 159.769531 C 113.121094 159.339844 113.824219 158.644531 114.199219 158.4375 C 114.339844 158.523438 114.628906 158.742188 115.058594 159.25 C 115.574219 159.863281 115.492188 161.046875 115.332031 161.933594 C 115.171875 162.828125 115.457031 163.746094 116.101562 164.382812 C 116.746094 165.023438 117.664062 165.304688 118.558594 165.132812 C 132.703125 162.417969 142.472656 163.171875 147.585938 167.371094 C 147.71875 167.480469 147.859375 167.574219 148.011719 167.65625 C 151.71875 169.691406 156.480469 170.777344 162.574219 170.984375 C 162.675781 170.988281 162.78125 170.984375 162.882812 170.976562 C 167.691406 170.59375 171.902344 170.421875 175.46875 170.460938 C 174.074219 174.25 173.644531 179.402344 174.125 186.171875 C 174.152344 186.566406 174.179688 186.96875 174.203125 187.371094 C 165.417969 186.09375 157.859375 182.816406 151.710938 177.609375 C 151.683594 177.589844 151.660156 177.570312 151.632812 177.550781 C 146.40625 173.425781 135.152344 171.148438 117.226562 170.574219 C 117.128906 170.574219 117.035156 170.574219 116.941406 170.582031 C 105.964844 171.367188 99.128906 169.523438 96.609375 165.078125 C 96.0625 164.136719 95.929688 163.59375 95.902344 163.34375 C 96.453125 163.480469 97.21875 163.777344 97.695312 163.960938 Z M 97.695312 163.960938 " fill-opacity="1" fill-rule="nonzero"/></g></svg>