<svg xmlns="http://www.w3.org/2000/svg" xmlns:xlink="http://www.w3.org/1999/xlink" width="500" zoomAndPan="magnify" viewBox="0 0 375 374.999991" height="500" preserveAspectRatio="xMidYMid meet" version="1.0"><defs><clipPath id="f430be15dc"><path d="M 1.875 156.246094 L 369.375 156.246094 L 369.375 218.496094 L 1.875 218.496094 Z M 1.875 156.246094 " clip-rule="nonzero"/></clipPath></defs><g clip-path="url(#f430be15dc)"><path fill="#000000" d="M 1.875 178.007812 C 11.75 167.886719 24.128906 162.121094 37.976562 158.9375 C 58.753906 154.148438 79.179688 156.476562 99.386719 161.894531 C 118.855469 167.113281 137.132812 175.292969 155.503906 183.230469 C 171.46875 190.132812 187.511719 196.867188 204.542969 201.101562 C 233.15625 208.21875 261.664062 207.425781 290.09375 200.132812 C 319.558594 192.570312 345.3125 178.660156 367.5 158.625 C 367.910156 158.257812 368.351562 157.929688 369.375 157.945312 C 368.847656 158.742188 368.386719 159.582031 367.78125 160.324219 C 351.644531 179.96875 331.375 194.453125 307.605469 204.550781 C 282.757812 215.101562 256.746094 219.59375 229.636719 218.132812 C 209.511719 217.046875 190.332031 212.027344 171.988281 204.277344 C 154.078125 196.710938 136.492188 188.453125 118.667969 180.707031 C 101.101562 173.074219 83.113281 166.578125 63.730469 164.636719 C 41.894531 162.445312 21.25 165.550781 2.742188 177.726562 C 2.503906 177.863281 2.171875 177.90625 1.875 178.007812 Z M 1.875 178.007812 " fill-opacity="1" fill-rule="nonzero"/></g></svg>