<svg xmlns="http://www.w3.org/2000/svg" xmlns:xlink="http://www.w3.org/1999/xlink" width="500" zoomAndPan="magnify" viewBox="0 0 375 374.999991" height="500" preserveAspectRatio="xMidYMid meet" version="1.0"><defs><clipPath id="cd10786321"><path d="M 113 120 L 262.5 120 L 262.5 255 L 113 255 Z M 113 120 " clip-rule="nonzero"/></clipPath></defs><g clip-path="url(#cd10786321)"><path fill="#000000" d="M 262.5 247.917969 C 261.996094 245.78125 262.285156 243.6875 262.15625 241.527344 C 261.464844 237.855469 260.542969 234.199219 259.796875 230.539062 C 253.886719 216.390625 240.679688 225.550781 240.535156 216.085938 C 245.574219 213.097656 248.726562 207.167969 248.753906 201.367188 C 249.699219 200.808594 250.8125 200.175781 251.179688 199.078125 C 252.042969 194.910156 252.71875 190.367188 250.574219 186.523438 C 250.976562 185.160156 250.148438 183.570312 248.601562 183.570312 C 248.210938 183.070312 247.804688 182.589844 247.378906 182.136719 C 247.917969 180.84375 246.464844 179.4375 245.214844 180.128906 C 244.691406 179.703125 244.15625 179.296875 243.605469 178.910156 C 244.003906 177.984375 242.789062 177.085938 242.039062 177.777344 C 233.828125 172.390625 221.457031 175.625 215.800781 183.34375 C 213.902344 186.355469 211.789062 189.707031 212.410156 193.40625 C 212.625 195.765625 212.941406 198.859375 215.371094 200.023438 C 215.863281 202.605469 215.574219 205.433594 216.765625 207.804688 C 218.230469 210.28125 219.8125 212.9375 222.425781 214.332031 C 222.34375 214.367188 222.238281 214.40625 222.152344 214.4375 C 222.351562 214.375 222.351562 214.378906 222.503906 214.378906 C 222.570312 214.417969 222.640625 214.460938 222.707031 214.503906 C 222.664062 214.515625 222.609375 214.527344 222.539062 214.542969 C 222.136719 214.640625 222.875 214.652344 222.601562 214.953125 C 223.429688 215.746094 222.367188 215.339844 221.957031 215.601562 C 221.90625 215.644531 222.054688 215.777344 221.9375 215.800781 C 221.609375 215.835938 221.449219 215.855469 221.617188 216.125 C 217.855469 214.589844 213.308594 215.375 209.667969 214.492188 C 204.652344 213.519531 200.585938 209.449219 201.085938 204.070312 C 201.144531 201.886719 202.457031 199.949219 202.109375 197.742188 C 208.660156 194.183594 213.589844 187.492188 213.996094 179.898438 C 214.691406 179.515625 216 179.488281 215.972656 178.460938 C 216.449219 176.527344 217.707031 174.878906 218.324219 172.960938 C 220.675781 168.679688 221.761719 165.855469 221.769531 160.828125 C 221.910156 157.113281 220.28125 153.644531 218.714844 150.367188 C 216.542969 144 210.53125 139.085938 204.480469 136.503906 C 205.257812 134.867188 202.175781 129.222656 200.96875 127.84375 C 196.5625 123.796875 191.089844 120.015625 184.832031 120.738281 C 179.457031 121.265625 174.417969 124.109375 171.597656 128.765625 C 169.617188 130.714844 167.84375 135.589844 169.253906 138.136719 C 167.453125 140.085938 165.332031 141.707031 163.746094 143.832031 C 162.578125 145.363281 161.609375 147.089844 160.289062 148.492188 C 155.613281 153.28125 153.636719 160.585938 154.941406 167.132812 C 155.464844 170.582031 156.84375 173.953125 159.039062 176.691406 C 159.703125 177.378906 160.253906 178.535156 161.425781 178.191406 C 161.492188 180.078125 161.761719 181.964844 162.28125 183.78125 C 158.535156 178.542969 152.652344 174.027344 145.980469 174.042969 C 137.753906 173.726562 128.976562 178.398438 126.136719 186.40625 C 124.296875 189.519531 124.667969 198.09375 128.089844 199.964844 C 128.933594 205.378906 132.144531 210.488281 136.289062 214.027344 C 135.953125 215.683594 134.136719 216.238281 133.320312 217.59375 C 127.398438 221.972656 122.316406 218.628906 116.703125 228.550781 C 112.488281 235.421875 113.851562 243.753906 114.804688 251.308594 C 114.925781 252.300781 115.765625 253.085938 116.796875 253.101562 C 119.808594 253.164062 122.820312 253.285156 125.832031 253.339844 C 136.476562 253.246094 147.128906 253.03125 157.738281 254.066406 C 170.902344 254.566406 184.050781 254.859375 197.230469 254.96875 C 215.128906 254.609375 233.003906 254.9375 250.910156 253.953125 C 253.796875 253.574219 256.257812 251.773438 258.765625 250.347656 C 255.929688 249.292969 252.671875 249.375 249.636719 249.078125 C 248.886719 248.199219 248.601562 246.910156 249.425781 246.011719 C 249.847656 243.984375 249.675781 241.9375 248.699219 240.101562 C 248.816406 239.667969 249.035156 239.257812 248.957031 238.78125 C 249.003906 238.351562 249.589844 237.851562 249.003906 237.554688 C 248.105469 237.035156 246.324219 236.867188 245.089844 237.40625 C 244.679688 237.507812 244.527344 237.601562 244.84375 237.699219 C 245.367188 237.902344 245.300781 238.449219 245.582031 238.851562 C 245.707031 239.101562 245.617188 239.351562 245.355469 239.609375 C 245.019531 240.019531 245.496094 240.464844 245.519531 240.894531 C 245.527344 241.289062 245.386719 241.683594 245.613281 242.046875 C 246.398438 243.375 245.25 243.769531 245.089844 244.957031 C 245.390625 245.738281 244.679688 246.46875 244.953125 247.222656 C 245.253906 247.980469 245.261719 248.738281 245.359375 249.496094 C 240.042969 250 234.6875 250.148438 229.339844 250.207031 C 231.050781 248.492188 230.222656 245.835938 230.566406 243.695312 C 230.839844 240.609375 230.859375 237.535156 230.183594 234.511719 C 228.996094 228.992188 229.40625 222.3125 224.921875 218.195312 C 224.957031 217.746094 225.441406 217.824219 225.742188 217.730469 C 226.191406 217.320312 226.429688 216.828125 226.519531 216.242188 C 229.648438 218.003906 233.253906 218.394531 236.679688 217.332031 C 237.832031 220.796875 240.441406 224.035156 244.230469 224.5 C 246.613281 225.523438 249.320312 225.101562 251.53125 226.375 C 255.007812 229.683594 256.898438 234.121094 257.609375 238.84375 C 257.921875 241.832031 257.757812 244.816406 257.578125 247.871094 C 258.011719 248.902344 259.320312 249.375 260.289062 250.261719 C 261.171875 250.117188 262.480469 248.75 262.5 247.917969 Z M 219.636719 193.023438 C 219.757812 192.375 219.898438 191.726562 220.050781 191.082031 C 220.261719 191.707031 220.898438 192.214844 221.59375 192.238281 C 220.851562 192.511719 220.183594 192.902344 219.570312 193.394531 C 219.589844 193.273438 219.613281 193.148438 219.636719 193.023438 Z M 238.71875 181.757812 C 238.8125 181.480469 238.910156 181.203125 239.007812 180.929688 C 239.25 181.050781 239.488281 181.175781 239.722656 181.3125 C 239.222656 182.226562 238.5625 183.078125 237.988281 183.964844 C 238.226562 183.226562 238.46875 182.492188 238.71875 181.757812 Z M 246.160156 193.546875 C 246.234375 194.21875 246.320312 194.898438 246.40625 195.617188 C 246.1875 195.765625 245.949219 195.855469 245.707031 195.9375 C 245.6875 195.882812 245.675781 195.832031 245.65625 195.78125 C 245.625 195.851562 245.585938 195.917969 245.546875 195.984375 C 245.035156 196.144531 244.480469 196.167969 243.949219 196.128906 C 244.738281 195.308594 245.476562 194.445312 246.160156 193.546875 Z M 243.121094 183.457031 C 242.6875 184.269531 242.261719 185.085938 241.828125 185.898438 C 242.074219 184.953125 242.289062 183.992188 242.546875 183.046875 C 242.742188 183.179688 242.933594 183.316406 243.121094 183.457031 Z M 234.589844 180.316406 C 234.640625 180.128906 234.691406 179.9375 234.742188 179.75 C 234.824219 179.757812 234.902344 179.761719 234.984375 179.765625 C 234.855469 179.949219 234.722656 180.128906 234.589844 180.316406 Z M 229.140625 179.59375 C 229.589844 179.582031 230.027344 179.585938 230.464844 179.582031 C 229.914062 180.433594 229.367188 181.304688 228.828125 182.160156 C 228.914062 181.289062 229.007812 180.4375 229.140625 179.59375 Z M 225.582031 184.769531 C 225.542969 186.238281 224.492188 187.804688 225.136719 189.199219 C 224.519531 189.660156 224.023438 190.160156 223.472656 190.660156 C 224.089844 188.628906 224.683594 186.660156 225.582031 184.769531 Z M 228.554688 188.382812 C 229.140625 187.480469 229.714844 186.570312 230.28125 185.652344 C 229.964844 186.769531 229.738281 187.929688 229.222656 188.972656 C 228.980469 188.839844 228.707031 188.71875 228.398438 188.625 Z M 231.742188 190.746094 C 231.808594 190.632812 231.882812 190.515625 231.949219 190.40625 L 232.019531 190.433594 C 232.195312 189.847656 232.617188 189.363281 232.917969 188.832031 C 232.695312 189.65625 232.480469 190.480469 232.257812 191.304688 C 232.054688 191.15625 231.855469 191.007812 231.660156 190.855469 C 231.6875 190.816406 231.71875 190.78125 231.742188 190.746094 Z M 237.320312 191.324219 C 237.097656 192.542969 236.300781 193.992188 237.292969 195.0625 C 236.65625 194.808594 236.238281 194.230469 235.738281 193.792969 C 236.265625 192.96875 236.792969 192.144531 237.320312 191.324219 Z M 240.519531 194.734375 C 240.628906 194.546875 240.742188 194.351562 240.851562 194.160156 C 240.652344 194.78125 240.621094 195.472656 241.03125 196.027344 C 240.359375 196.027344 239.703125 195.878906 239.054688 195.714844 C 239.648438 195.632812 240.199219 195.292969 240.519531 194.734375 Z M 224.6875 180.757812 C 224.117188 181.683594 223.574219 182.640625 223.089844 183.621094 C 223.160156 182.9375 223.011719 182.191406 223.296875 181.5625 C 223.742188 181.269531 224.207031 181 224.6875 180.757812 Z M 218.441406 185.625 C 218.46875 185.59375 218.496094 185.566406 218.523438 185.539062 C 218.183594 186.398438 217.871094 187.273438 217.582031 188.152344 C 217.507812 187.878906 217.4375 187.605469 217.355469 187.339844 C 217.679688 186.757812 217.992188 186.148438 218.441406 185.625 Z M 188.738281 224.863281 C 185.800781 221.867188 182.585938 219.210938 179.160156 216.8125 C 178.324219 215.8125 177.550781 214.769531 176.566406 213.90625 C 175.609375 212.921875 175.042969 211.265625 173.445312 211.253906 C 176.386719 208.285156 178.515625 203.59375 177.328125 199.390625 C 183.957031 201.472656 191.304688 202.140625 197.914062 199.652344 C 197.484375 204.347656 197.160156 209.992188 200.953125 213.492188 C 199.621094 215.847656 197.234375 217.171875 195.789062 219.425781 C 193.90625 221.878906 191.214844 223.1875 188.738281 224.863281 Z M 162.792969 214.316406 C 160.347656 215.574219 157.519531 215.828125 155.046875 217.195312 C 154.527344 216.957031 154.726562 216.535156 154.863281 216.140625 C 154.671875 215.027344 154.085938 214.132812 152.992188 213.742188 C 157.121094 210.675781 159.4375 205.535156 160.183594 200.585938 C 161.628906 200.40625 163.285156 199.222656 163.863281 197.851562 C 164.542969 194.820312 164.867188 191.890625 164.453125 188.863281 C 166.574219 192.648438 169.765625 195.84375 173.640625 197.820312 C 173.46875 198.039062 173.453125 198.347656 173.351562 198.59375 C 173.234375 199.121094 172.472656 199.8125 173.117188 200.195312 C 174.035156 201.308594 173.8125 203.03125 173.75 204.445312 C 173.671875 206.007812 172.335938 206.933594 171.53125 208.136719 C 169.597656 211.3125 166.035156 212.761719 162.792969 214.316406 Z M 138.964844 184.582031 L 138.898438 184.808594 C 138.808594 184.820312 138.71875 184.832031 138.632812 184.851562 C 138.769531 184.660156 138.914062 184.46875 139.054688 184.277344 C 139.023438 184.378906 138.992188 184.480469 138.964844 184.582031 Z M 151.339844 184.769531 C 151.035156 185.089844 150.730469 185.414062 150.429688 185.738281 C 151.417969 184.09375 152.21875 182.226562 153.515625 180.832031 C 153.707031 180.945312 153.894531 181.0625 154.085938 181.175781 C 153.691406 182.691406 152.296875 183.601562 151.339844 184.769531 Z M 158.796875 194.992188 C 158.800781 195.023438 158.804688 195.050781 158.808594 195.082031 C 158.800781 195.074219 158.789062 195.066406 158.78125 195.058594 C 158.789062 195.035156 158.792969 195.015625 158.796875 194.992188 Z M 158.519531 193.050781 C 158.476562 193.011719 158.441406 192.976562 158.402344 192.9375 C 158.433594 192.914062 158.464844 192.886719 158.496094 192.863281 C 158.503906 192.925781 158.511719 192.988281 158.519531 193.050781 Z M 157.457031 183.855469 C 156.929688 184.40625 156.402344 184.960938 155.875 185.511719 C 156.191406 184.75 156.273438 183.84375 156.933594 183.289062 C 157.113281 183.46875 157.289062 183.660156 157.457031 183.855469 Z M 150.175781 179.132812 C 149.945312 179.339844 149.71875 179.546875 149.496094 179.757812 L 149.8125 179 C 149.929688 179.046875 150.054688 179.085938 150.175781 179.132812 Z M 142.859375 186.285156 C 142.742188 186.183594 142.613281 186.082031 142.476562 185.972656 C 142.933594 185.25 143.425781 184.550781 143.945312 183.871094 C 143.582031 184.675781 143.21875 185.476562 142.859375 186.285156 Z M 150.03125 190.769531 C 150.304688 190.472656 150.582031 190.171875 150.855469 189.875 C 150.628906 190.574219 150.1875 191.28125 150.363281 192.042969 C 149.988281 191.917969 149.613281 191.789062 149.253906 191.621094 C 149.511719 191.339844 149.769531 191.058594 150.03125 190.769531 Z M 154.328125 192.261719 C 154.320312 192.359375 154.328125 192.457031 154.339844 192.554688 C 154.253906 192.542969 154.167969 192.53125 154.082031 192.515625 Z M 190.566406 125.765625 C 189.863281 126.308594 189.207031 126.914062 188.566406 127.527344 C 188.824219 126.804688 189.089844 126.0625 189.351562 125.339844 C 189.765625 125.464844 190.171875 125.609375 190.566406 125.765625 Z M 212.777344 148.265625 C 212.957031 148.472656 213.125 148.6875 213.296875 148.902344 C 211.800781 151.480469 209.289062 153.335938 207.351562 155.589844 C 208.6875 152.75 210.359375 150.128906 212.300781 147.671875 C 212.460938 147.871094 212.621094 148.066406 212.777344 148.265625 Z M 172.570312 133.640625 C 172.574219 134.222656 172.605469 134.796875 172.640625 135.375 C 172.5625 134.800781 172.535156 134.214844 172.570312 133.640625 Z M 207.023438 149.195312 L 207.730469 148.160156 C 206.816406 150.226562 205.335938 151.953125 204.050781 153.792969 C 204.625 152.632812 206.257812 150.28125 207.023438 149.195312 Z M 178.6875 138.433594 C 178.726562 138.4375 178.765625 138.4375 178.808594 138.4375 C 176.953125 141.789062 174.964844 144.980469 173.714844 148.609375 C 173.984375 144.707031 176.304688 141.441406 178.6875 138.433594 Z M 180.136719 140.601562 C 180.566406 139.515625 180.984375 138.441406 181.363281 137.390625 C 181.628906 137.621094 181.851562 137.5625 182.152344 137.640625 C 181.425781 138.683594 180.730469 139.746094 180.050781 140.820312 C 180.082031 140.75 180.105469 140.675781 180.136719 140.601562 Z M 196.640625 138.160156 C 196.738281 138.179688 196.828125 138.203125 196.921875 138.21875 C 195.371094 140.652344 193.78125 143.074219 192.175781 145.488281 C 193.199219 143.007812 194.175781 140.5 195.050781 137.941406 C 195.582031 137.996094 196.113281 138.058594 196.640625 138.160156 Z M 200.253906 139.128906 C 200.386719 139.171875 200.511719 139.214844 200.644531 139.257812 C 200.1875 140.375 199.417969 141.316406 198.769531 142.339844 C 199.28125 141.28125 199.777344 140.210938 200.253906 139.128906 Z M 185.5 140.753906 C 185.183594 141.28125 184.867188 141.808594 184.550781 142.339844 C 185.214844 140.707031 185.878906 139.070312 186.542969 137.4375 C 186.851562 137.382812 187.167969 137.339844 187.488281 137.3125 C 186.96875 138.53125 186.15625 139.601562 185.5 140.753906 Z M 189.859375 139 C 190.183594 138.476562 190.507812 137.949219 190.839844 137.425781 C 191.15625 137.46875 191.476562 137.511719 191.796875 137.558594 C 190.347656 139.949219 188.480469 143.03125 187.058594 145.398438 C 187.984375 143.261719 188.917969 141.132812 189.859375 139 Z M 206.78125 165.707031 C 206.699219 165.851562 206.617188 165.996094 206.53125 166.144531 C 206.480469 166.128906 206.429688 166.113281 206.378906 166.101562 C 206.515625 165.96875 206.648438 165.839844 206.78125 165.707031 Z M 161.28125 156.742188 C 161.5 156.546875 161.742188 156.421875 162.03125 156.359375 L 159.789062 158.027344 C 159.820312 157.941406 159.851562 157.855469 159.882812 157.769531 C 160.347656 157.429688 160.816406 157.089844 161.28125 156.742188 Z M 158.601562 165.457031 C 158.464844 164.691406 158.421875 163.90625 158.425781 163.125 C 160.152344 162.390625 161.878906 161.65625 163.597656 160.90625 C 161.980469 162.589844 160.382812 164.292969 158.679688 165.890625 Z M 171.109375 154.925781 C 170.882812 154.796875 170.628906 154.714844 170.363281 154.699219 C 170.675781 154.480469 170.984375 154.265625 171.289062 154.042969 C 171.378906 154.226562 171.472656 154.402344 171.574219 154.578125 C 171.417969 154.695312 171.261719 154.8125 171.109375 154.925781 Z M 177.726562 152.066406 C 177.34375 153.125 176.855469 154.15625 176.535156 155.230469 C 176.511719 155.214844 176.484375 155.191406 176.460938 155.175781 C 176.839844 154.140625 177.265625 153.101562 177.726562 152.066406 Z M 179.347656 156.253906 C 179.507812 155.984375 179.667969 155.710938 179.832031 155.4375 C 179.621094 155.980469 179.34375 156.507812 179.171875 157.0625 C 179.035156 156.980469 178.898438 156.890625 178.765625 156.804688 C 178.996094 156.679688 179.203125 156.496094 179.347656 156.253906 Z M 182.375 158.390625 C 183.375 156.765625 184.367188 155.132812 185.359375 153.5 C 184.53125 155.339844 183.714844 157.183594 182.921875 159.054688 C 182.660156 158.9375 182.398438 158.8125 182.144531 158.691406 C 182.230469 158.601562 182.308594 158.503906 182.375 158.390625 Z M 186.871094 159.191406 C 186.695312 159.585938 186.507812 159.976562 186.261719 160.335938 C 186.230469 160.328125 186.199219 160.316406 186.171875 160.308594 C 186.40625 159.933594 186.636719 159.5625 186.871094 159.191406 Z M 192.03125 157.183594 C 191.558594 158.59375 190.109375 160.195312 191 161.691406 C 190.417969 161.53125 189.832031 161.375 189.25 161.210938 C 190.132812 159.859375 191.074219 158.515625 192.03125 157.183594 Z M 200.34375 164.292969 C 200.351562 164.308594 200.363281 164.328125 200.375 164.347656 C 200.351562 164.339844 200.335938 164.332031 200.3125 164.328125 C 200.324219 164.316406 200.335938 164.304688 200.34375 164.292969 Z M 215.03125 169.464844 C 214.652344 170.585938 213.90625 171.335938 212.925781 171.976562 C 212.871094 171.816406 212.808594 171.660156 212.746094 171.5 Z M 213.496094 173.867188 L 213.636719 173.988281 C 213.609375 174.027344 213.582031 174.0625 213.558594 174.101562 C 213.535156 174.023438 213.515625 173.945312 213.496094 173.867188 Z M 218.15625 161.875 C 217.953125 162.039062 217.75 162.203125 217.542969 162.363281 C 217.742188 162.007812 217.933594 161.652344 218.128906 161.292969 C 218.140625 161.484375 218.152344 161.679688 218.15625 161.875 Z M 215.652344 152.554688 C 215.410156 152.722656 215.230469 152.972656 215.023438 153.183594 L 214.945312 153.132812 C 214.664062 153.710938 214.09375 154.085938 213.644531 154.570312 C 214.253906 153.742188 214.777344 152.847656 215.375 152.011719 C 215.46875 152.191406 215.5625 152.375 215.652344 152.554688 Z M 210.058594 145.296875 L 209.773438 145.121094 C 209.785156 145.105469 209.796875 145.085938 209.808594 145.070312 C 209.894531 145.148438 209.976562 145.222656 210.058594 145.296875 Z M 205.519531 144.253906 C 204.609375 145.964844 203.789062 147.78125 202.664062 149.378906 C 203.449219 147.511719 204.457031 145.761719 205.597656 144.09375 C 205.570312 144.152344 205.546875 144.199219 205.519531 144.253906 Z M 203.652344 141.03125 C 203.738281 140.898438 203.824219 140.769531 203.90625 140.636719 C 204.070312 140.722656 204.234375 140.808594 204.394531 140.898438 C 204.136719 140.882812 203.886719 140.925781 203.652344 141.03125 Z M 192.550781 129.566406 C 192.886719 128.644531 193.3125 127.851562 194.183594 127.339844 C 194.230469 127.367188 194.277344 127.390625 194.324219 127.417969 C 193.734375 128.136719 193.144531 128.855469 192.550781 129.566406 Z M 182.578125 133.441406 C 182.730469 132.296875 183.203125 131.339844 183.816406 130.382812 C 183.394531 131.398438 182.980469 132.414062 182.578125 133.441406 Z M 163.535156 150.542969 C 163.671875 150.332031 163.824219 150.121094 163.972656 149.910156 C 164.007812 149.90625 164.046875 149.894531 164.085938 149.890625 L 164.117188 149.964844 C 164.632812 149.6875 165.292969 149.71875 165.859375 149.566406 C 164.832031 150.320312 163.800781 151.070312 162.765625 151.8125 C 163.011719 151.386719 163.269531 150.964844 163.535156 150.542969 Z M 210.332031 178.804688 C 209.628906 186.996094 202.753906 193.636719 195.164062 196.011719 C 184.695312 198.804688 170.402344 195.980469 166.996094 184.371094 C 165.382812 179.601562 165.480469 174.304688 167.113281 169.527344 C 168.542969 164.828125 172.09375 161.082031 172.523438 155.984375 C 178.046875 162.453125 186.652344 163.808594 194.292969 166.328125 C 194.519531 167.976562 196.75 168.71875 197.917969 167.546875 C 201.125 168.660156 204.78125 169.628906 208.058594 170.59375 C 208.097656 170.652344 208.320312 171 208.351562 171.054688 C 207.90625 171.945312 208.472656 173.179688 209.464844 173.398438 C 210.105469 175.097656 210.417969 176.992188 210.332031 178.804688 Z M 206.386719 142.355469 C 206.230469 142.71875 206.085938 143.078125 205.894531 143.46875 L 205.539062 143.265625 C 205.808594 142.796875 205.886719 142.21875 205.640625 141.734375 C 205.890625 141.945312 206.132812 142.15625 206.386719 142.355469 Z M 184.003906 125.097656 C 182.597656 126.550781 181.484375 128.183594 180.53125 129.914062 C 180.621094 128.648438 181.351562 127.8125 182.25 126.996094 L 181.601562 126.597656 C 181.808594 126.160156 182.050781 125.664062 181.75 125.210938 C 182.476562 125 183.257812 125.066406 184.003906 125.097656 Z M 177.453125 127.726562 C 177.792969 127.488281 178.109375 127.21875 178.4375 126.957031 C 177.410156 128.203125 176.578125 129.59375 175.753906 130.980469 C 175.695312 130.382812 175.625 129.773438 175.550781 129.164062 C 175.804688 128.859375 176.25 128.765625 176.4375 128.445312 L 176.421875 128.441406 C 176.757812 128.195312 177.105469 127.964844 177.453125 127.726562 Z M 159.886719 169.148438 C 160.648438 168.792969 161.417969 168.441406 162.191406 168.109375 C 161.59375 169.003906 161.082031 169.945312 160.632812 170.925781 C 160.386719 170.351562 160.132812 169.726562 159.886719 169.148438 Z M 144.886719 178.480469 C 144.449219 178.890625 144.023438 179.3125 143.605469 179.746094 C 143.675781 179.503906 143.75 179.257812 143.820312 179.015625 C 143.882812 178.960938 143.941406 178.898438 144.003906 178.84375 L 143.890625 178.773438 C 143.921875 178.671875 143.949219 178.574219 143.976562 178.476562 C 144.28125 178.472656 144.582031 178.476562 144.886719 178.480469 Z M 139.183594 178.847656 C 139.464844 178.773438 139.75 178.722656 140.035156 178.679688 C 138.964844 179.859375 137.945312 181.089844 137.011719 182.386719 C 137.261719 181.636719 137.394531 180.835938 137.980469 180.265625 L 137.730469 180.125 C 137.804688 179.847656 137.941406 179.578125 137.941406 179.285156 C 138.34375 179.109375 138.757812 178.957031 139.183594 178.847656 Z M 132.726562 182.921875 C 131.929688 184.140625 131.199219 185.402344 130.546875 186.703125 C 130.472656 186.335938 130.375 185.976562 130.246094 185.632812 C 130.863281 184.566406 131.785156 183.734375 132.726562 182.921875 Z M 133.902344 204.785156 C 132.75 201.945312 132.167969 198.707031 132.246094 195.636719 C 133.070312 194.671875 133.5625 193.453125 134.847656 193.023438 C 136.1875 192.199219 136.773438 190.574219 138.164062 189.773438 C 138.71875 190.449219 139.84375 190.425781 140.386719 189.769531 C 144.113281 194.226562 149.871094 196.753906 155.675781 197.097656 C 156.726562 198.066406 156.535156 199.703125 156.699219 201.0625 C 156.820312 202.457031 155.78125 203.476562 155.367188 204.710938 C 154.542969 207.601562 152.203125 209.75 149.722656 211.300781 C 147.277344 212.851562 144.351562 211.886719 141.710938 211.476562 C 138.1875 210.964844 135.300781 208.023438 133.902344 204.785156 Z M 133.324219 249.445312 C 132.53125 249.445312 131.734375 249.449219 130.941406 249.449219 C 130.933594 248.183594 129.675781 247.21875 130.074219 245.886719 C 130.703125 245.179688 130.632812 244.269531 130.785156 243.398438 C 130.890625 241.863281 130.519531 240.441406 129.886719 239.058594 C 130.015625 238.621094 130.238281 238.203125 130.171875 237.714844 C 130.230469 237.277344 130.832031 236.789062 130.253906 236.46875 C 129.375 235.910156 127.59375 235.660156 126.347656 236.179688 C 125.933594 236.273438 125.78125 236.367188 126.089844 236.480469 C 126.609375 236.71875 126.523438 237.28125 126.796875 237.707031 C 126.914062 237.96875 126.820312 238.226562 126.550781 238.488281 C 126.207031 238.910156 126.671875 239.378906 126.695312 239.824219 C 126.5625 240.46875 126.757812 241.027344 126.964844 241.625 C 127.355469 242.535156 126.195312 243.121094 126.210938 244.011719 C 126.5 244.816406 125.785156 245.5625 126.046875 246.339844 C 126.421875 247.386719 126.335938 248.429688 126.515625 249.480469 C 123.707031 249.511719 120.894531 249.546875 118.085938 249.578125 C 116.792969 241.828125 116.292969 232.46875 122.347656 226.550781 C 127.222656 222.019531 138.5625 225.027344 138.273438 215.054688 C 142.035156 216.601562 146.296875 216.671875 150.097656 215.21875 C 150.082031 215.878906 150.902344 215.964844 151.039062 216.53125 C 150.804688 217.269531 150.578125 217.644531 151.164062 218.265625 C 151.078125 218.953125 151.496094 219.226562 151.992188 219.523438 C 146.257812 225.179688 144.851562 233.070312 145.167969 240.800781 C 145.488281 242.992188 144.949219 248.304688 146.464844 249.613281 C 142.082031 249.539062 137.707031 249.449219 133.324219 249.445312 Z M 160.972656 249.804688 L 150.144531 249.667969 C 151.257812 247.742188 149.804688 245.785156 149.765625 243.78125 C 149.570312 241.132812 149.503906 238.503906 149.261719 235.871094 C 149.023438 228.703125 153.992188 222.074219 160.421875 219.273438 C 160.175781 219.757812 159.824219 220.179688 159.375 220.546875 C 158.496094 221.398438 158.316406 222.683594 157.746094 223.71875 C 157.011719 225.207031 154.390625 228.679688 155.898438 230.113281 C 157.671875 231.386719 158.03125 233.664062 159.300781 235.324219 C 160.121094 236.21875 160.941406 237.605469 161.40625 238.738281 C 163.792969 242.273438 165.886719 245.972656 167.410156 249.988281 C 165.269531 249.9375 163.121094 249.839844 160.972656 249.804688 Z M 171.621094 250.078125 C 172.390625 248.644531 172.132812 248.328125 171.234375 247.171875 C 170.421875 246 169.992188 244.652344 169.292969 243.429688 C 168.371094 242.152344 167.300781 240.875 166.515625 239.496094 C 165.636719 238.238281 165.105469 236.839844 164.628906 235.394531 C 163.230469 232.925781 161.527344 230.5625 159.570312 228.511719 C 160.625 226.300781 160.984375 223.742188 162.738281 221.929688 C 163.320312 220.269531 165.269531 219.1875 165.28125 217.378906 C 167.25 216.5625 169.171875 215.4375 170.808594 214.03125 C 170.8125 214.328125 170.945312 214.492188 171.269531 214.480469 C 172.046875 214.546875 172.5 215.199219 173.132812 215.566406 C 172.113281 216.039062 173.003906 216.355469 173.046875 216.972656 C 173.183594 218.503906 173.824219 220.007812 173.214844 221.519531 C 172.898438 222.652344 173.414062 223.804688 173.492188 224.9375 C 173.554688 225.957031 173.457031 226.992188 173.773438 227.984375 C 174.722656 230.546875 173.875 233.082031 174.070312 235.695312 C 174.550781 240.667969 175.832031 245.464844 177.472656 250.199219 C 175.519531 250.15625 173.570312 250.117188 171.621094 250.078125 Z M 182.78125 250.339844 C 182.757812 250.339844 182.734375 250.339844 182.714844 250.335938 C 181.613281 249.089844 181.273438 247.546875 180.730469 246.039062 C 180.074219 244.757812 179.371094 243.457031 179.058594 242.03125 C 178.363281 238.550781 178.851562 234.914062 178.085938 231.386719 C 177.9375 228.515625 177.097656 225.667969 176.59375 222.863281 C 176.71875 221.671875 176.839844 220.484375 176.832031 219.289062 C 179.191406 221.332031 181.601562 223.328125 183.910156 225.421875 C 185.304688 227.394531 187.257812 231.707031 190.183594 229.402344 C 192.71875 227.21875 195.542969 225.453125 197.8125 222.945312 C 197.25 223.863281 197.609375 224.984375 197.460938 225.992188 C 197.125 227.3125 197.078125 228.636719 197.050781 229.988281 C 197.101562 231.867188 195.617188 233.253906 195.25 235.03125 C 195.136719 236.210938 194.746094 237.300781 194.28125 238.386719 C 193.648438 240.746094 193.496094 243.234375 192.769531 245.582031 C 192.480469 246.851562 192.15625 248.113281 191.863281 249.382812 C 191.984375 249.96875 192.867188 250.445312 193.335938 250.933594 C 189.8125 250.90625 186.300781 250.464844 182.78125 250.339844 Z M 196.335938 250.992188 C 196.988281 250.398438 196.351562 249.160156 196.671875 248.390625 C 197.324219 246.3125 197.070312 244.148438 197.5 242.035156 C 198.070312 239.496094 199.539062 237.378906 200.003906 234.707031 C 200.800781 231.441406 201.0625 228.128906 200.875 224.78125 C 201.167969 223.789062 201.5 222.808594 201.570312 221.765625 C 201.695312 220.894531 202.34375 220.023438 202.058594 219.136719 C 202.871094 218.28125 203.992188 217.605469 204.609375 216.617188 C 206.09375 217.617188 207.890625 218.105469 209.636719 218.367188 C 208.859375 219.199219 209.820312 219.226562 210.105469 219.816406 C 210.832031 221.308594 212.027344 222.550781 212.125 224.285156 C 212.484375 225.988281 213.933594 227.195312 214.589844 228.789062 C 213.25 231.835938 210.203125 233.566406 208.960938 236.703125 C 205.847656 240.972656 204.261719 246.183594 202.195312 251.011719 C 200.238281 251.019531 198.289062 251.015625 196.335938 250.992188 Z M 225.523438 229.851562 C 226.226562 233.175781 226.40625 236.601562 226.328125 239.992188 C 226.265625 242.664062 225.960938 245.320312 225.417969 247.917969 C 225.355469 248.746094 226.152344 249.496094 226.535156 250.253906 C 220.039062 250.421875 213.558594 250.96875 207.054688 250.96875 C 208.363281 247.703125 208.871094 244.09375 210.847656 241.113281 C 213.941406 237.589844 216.265625 233.296875 218.667969 229.269531 C 219.335938 227.882812 217.613281 226.9375 216.976562 225.867188 C 215.265625 223.898438 214.726562 221.1875 214.074219 218.722656 C 222.078125 219.773438 223.972656 222.226562 225.523438 229.851562 Z M 232.753906 213.492188 C 227.960938 213.519531 223.363281 211.289062 220.472656 207.417969 C 219.246094 205.644531 219.117188 203.253906 219.035156 201.164062 C 219.082031 200.203125 219.507812 199.226562 219.425781 198.269531 C 220.4375 197.175781 221.367188 195.777344 222.914062 195.453125 C 223.582031 195.324219 223.960938 194.777344 224.453125 194.394531 C 225.175781 193.539062 226.480469 193.113281 227.210938 192.375 C 227.195312 192.296875 227.113281 192.203125 227.289062 192.222656 C 228.820312 192.875 229.4375 195.25 231.046875 196.039062 C 232.226562 196.636719 233.351562 197.402344 234.441406 198.152344 C 237.402344 199.566406 240.773438 200.230469 244.058594 200.550781 C 244.699219 202.84375 243.683594 205.140625 243.179688 207.363281 C 241.660156 212.070312 237.210938 213.265625 232.753906 213.492188 Z M 232.753906 213.492188 " fill-opacity="1" fill-rule="nonzero"/></g><path fill="#000000" d="M 222.152344 214.4375 C 222.125 214.445312 222.09375 214.453125 222.054688 214.46875 C 221.792969 214.554688 221.871094 214.539062 222.152344 214.4375 Z M 222.152344 214.4375 " fill-opacity="1" fill-rule="nonzero"/></svg>