<svg xmlns="http://www.w3.org/2000/svg" xmlns:xlink="http://www.w3.org/1999/xlink" width="500" zoomAndPan="magnify" viewBox="0 0 375 374.999991" height="500" preserveAspectRatio="xMidYMid meet" version="1.0"><defs><clipPath id="702f838ab3"><path d="M 112.5 136.882812 L 262.5 136.882812 L 262.5 238.132812 L 112.5 238.132812 Z M 112.5 136.882812 " clip-rule="nonzero"/></clipPath></defs><g clip-path="url(#702f838ab3)"><path fill="#000000" d="M 146.140625 158.453125 C 146.339844 157.796875 146.507812 157.140625 146.625 156.382812 C 146.742188 155.628906 146.84375 154.734375 147.097656 153.59375 C 147.113281 153.492188 147.148438 153.390625 147.164062 153.289062 C 147.246094 153.289062 147.332031 153.257812 147.449219 153.222656 C 147.71875 153.121094 148.140625 152.953125 148.40625 152.886719 C 148.675781 152.835938 148.777344 152.921875 148.828125 153.207031 C 148.894531 153.492188 148.910156 153.996094 148.84375 154.886719 C 148.777344 155.777344 148.609375 157.054688 148.355469 158.132812 C 148.105469 159.207031 147.769531 160.082031 147.515625 161.039062 C 147.265625 162 147.078125 163.023438 146.777344 163.882812 C 146.476562 164.738281 146.070312 165.425781 145.601562 166.050781 C 145.148438 166.671875 144.644531 167.242188 144.273438 167.578125 C 143.902344 167.933594 143.667969 168.050781 143.550781 168.117188 C 143.433594 168.183594 143.433594 168.183594 143.5 168.167969 C 143.566406 168.152344 143.71875 168.117188 143.953125 168.066406 C 144.171875 168 144.457031 167.914062 144.742188 167.730469 C 145.046875 167.546875 145.347656 167.261719 145.703125 166.890625 C 146.070312 166.503906 146.492188 166.015625 146.710938 165.765625 C 146.929688 165.511719 146.929688 165.511719 146.828125 165.695312 C 146.742188 165.882812 146.558594 166.269531 146.273438 166.738281 C 145.988281 167.210938 145.601562 167.765625 145.179688 168.351562 C 144.777344 168.957031 144.339844 169.597656 144.140625 170.351562 C 143.9375 171.109375 143.953125 171.96875 144.019531 172.707031 C 144.089844 173.445312 144.222656 174.050781 144.375 174.503906 C 144.523438 174.960938 144.726562 175.261719 144.8125 175.429688 C 144.894531 175.582031 144.894531 175.582031 144.878906 175.414062 C 144.863281 175.246094 144.8125 174.910156 144.777344 174.488281 C 144.761719 174.085938 144.761719 173.613281 144.84375 173.128906 C 144.929688 172.640625 145.113281 172.117188 145.214844 171.867188 C 145.296875 171.613281 145.296875 171.613281 145.347656 172 C 145.398438 172.386719 145.5 173.160156 145.632812 173.816406 C 145.785156 174.472656 145.988281 174.992188 146.003906 175.648438 C 146.019531 176.304688 145.851562 177.0625 145.617188 177.648438 C 145.382812 178.238281 145.097656 178.65625 144.660156 178.945312 C 144.222656 179.230469 143.652344 179.378906 143.367188 179.449219 C 143.078125 179.515625 143.078125 179.515625 143.632812 179.53125 C 144.1875 179.53125 145.296875 179.546875 146.039062 179.378906 C 146.777344 179.210938 147.164062 178.875 147.484375 178.386719 C 147.820312 177.917969 148.105469 177.296875 148.375 176.808594 C 148.644531 176.320312 148.910156 175.933594 149.332031 175.414062 C 149.753906 174.890625 150.324219 174.21875 150.609375 173.898438 C 150.894531 173.5625 150.894531 173.5625 150.761719 173.832031 C 150.625 174.101562 150.355469 174.625 150.207031 175.058594 C 150.039062 175.496094 149.988281 175.832031 149.988281 176.320312 C 150.003906 176.792969 150.070312 177.414062 150.105469 177.699219 C 150.140625 178.003906 150.140625 178.003906 150.222656 177.714844 C 150.289062 177.429688 150.457031 176.859375 150.742188 176.304688 C 151.046875 175.75 151.484375 175.210938 151.851562 174.792969 C 152.222656 174.371094 152.558594 174.066406 152.945312 173.632812 C 153.332031 173.195312 153.785156 172.621094 154.089844 171.898438 C 154.390625 171.195312 154.507812 170.335938 154.59375 169.898438 C 154.660156 169.480469 154.660156 169.480469 154.625 170 C 154.59375 170.519531 154.507812 171.5625 154.660156 172.269531 C 154.8125 172.957031 155.164062 173.3125 155.347656 173.480469 C 155.535156 173.648438 155.535156 173.648438 155.464844 173.328125 C 155.398438 173.007812 155.265625 172.386719 155.265625 171.679688 C 155.265625 170.976562 155.398438 170.203125 155.550781 169.53125 C 155.71875 168.855469 155.902344 168.285156 156.1875 167.746094 C 156.476562 167.210938 156.863281 166.722656 157.265625 165.714844 C 157.667969 164.703125 158.105469 163.175781 158.054688 160.9375 C 157.988281 158.6875 157.433594 155.710938 156.457031 153.792969 C 155.484375 151.878906 154.070312 151.019531 152.84375 150.601562 C 151.617188 150.199219 150.542969 150.214844 150.019531 150.230469 C 149.484375 150.246094 149.484375 150.246094 149.433594 150.214844 C 149.382812 150.179688 149.265625 150.097656 149.214844 150.0625 C 149.164062 150.027344 149.164062 150.027344 149.148438 149.878906 C 149.128906 149.726562 149.113281 149.425781 148.960938 149.15625 C 148.8125 148.886719 148.523438 148.652344 148.171875 148.550781 C 148.140625 148.53125 148.105469 148.53125 148.070312 148.53125 C 148.105469 147.910156 148.089844 147.355469 148.070312 146.800781 C 148.054688 145.878906 148.039062 145.019531 147.652344 143.976562 C 147.265625 142.917969 146.507812 141.65625 145.585938 140.480469 C 144.660156 139.304688 143.585938 138.195312 142.308594 137.589844 C 141.03125 136.984375 139.535156 136.882812 138.441406 136.949219 C 137.347656 137.019531 136.675781 137.253906 136.339844 137.371094 C 136.003906 137.488281 136.003906 137.488281 135.296875 137.625 C 134.59375 137.757812 133.179688 138.042969 132.140625 138.394531 C 131.097656 138.75 130.425781 139.167969 129.921875 139.65625 C 129.417969 140.160156 129.097656 140.734375 128.777344 141.070312 C 128.457031 141.421875 128.171875 141.539062 127.515625 141.640625 C 126.863281 141.742188 125.835938 141.824219 125.128906 141.859375 C 124.425781 141.894531 124.019531 141.894531 123.683594 141.992188 C 123.347656 142.09375 123.078125 142.3125 123.03125 142.699219 C 122.960938 143.101562 123.113281 143.691406 123.199219 143.976562 C 123.265625 144.261719 123.265625 144.261719 123.011719 144.363281 C 122.742188 144.449219 122.222656 144.632812 121.921875 144.785156 C 121.617188 144.953125 121.566406 145.105469 121.535156 145.304688 C 121.484375 145.507812 121.449219 145.757812 121.417969 145.878906 C 121.398438 146.011719 121.398438 146.011719 121.230469 146.011719 C 121.0625 146.011719 120.726562 145.996094 120.492188 146.046875 C 120.238281 146.113281 120.089844 146.246094 119.988281 146.433594 C 119.902344 146.632812 119.886719 146.886719 119.953125 147.105469 C 120.019531 147.324219 120.1875 147.507812 120.222656 147.691406 C 120.257812 147.894531 120.171875 148.097656 119.921875 148.296875 C 119.667969 148.5 119.25 148.71875 118.929688 149.054688 C 118.609375 149.390625 118.425781 149.859375 118.425781 150.28125 C 118.40625 150.683594 118.59375 151.039062 119.03125 151.492188 C 119.449219 151.945312 120.140625 152.5 120.8125 153.273438 C 121.484375 154.03125 122.15625 155.003906 122.558594 155.894531 C 122.960938 156.785156 123.078125 157.609375 123.148438 158.804688 C 123.214844 159.996094 123.179688 161.542969 123.367188 163.074219 C 123.566406 164.605469 123.953125 166.101562 124.15625 167.277344 C 124.355469 168.4375 124.355469 169.277344 124.257812 169.78125 C 124.171875 170.285156 123.988281 170.488281 123.398438 171.226562 C 122.792969 171.96875 121.785156 173.246094 120.792969 174.554688 C 119.800781 175.867188 118.828125 177.210938 117.886719 178.507812 C 116.945312 179.816406 116.070312 181.09375 115.296875 182.40625 C 114.527344 183.71875 113.871094 185.078125 113.382812 186.304688 C 112.894531 187.535156 112.558594 188.710938 112.574219 190.15625 C 112.59375 191.601562 112.945312 193.351562 113.71875 194.796875 C 114.492188 196.242188 115.667969 197.382812 116.710938 198.089844 C 117.753906 198.796875 118.675781 199.066406 119.535156 200.277344 C 120.390625 201.503906 121.199219 203.671875 122.355469 206.144531 C 123.515625 208.613281 125.03125 211.386719 126.222656 213.554688 C 127.398438 215.726562 128.238281 217.289062 128.660156 218.078125 C 129.078125 218.851562 129.078125 218.851562 129.433594 219.808594 C 129.785156 220.75 130.492188 222.667969 130.996094 224.246094 C 131.5 225.84375 131.820312 227.105469 132.121094 228.28125 C 132.425781 229.441406 132.710938 230.5 132.828125 231.140625 C 132.945312 231.777344 132.894531 231.996094 132.878906 232.097656 C 132.84375 232.214844 132.84375 232.214844 132.492188 232.097656 C 132.140625 231.996094 131.417969 231.777344 130.761719 231.679688 C 130.105469 231.578125 129.5 231.59375 128.59375 231.796875 C 127.683594 231.996094 126.507812 232.382812 125.296875 232.671875 C 124.089844 232.9375 122.84375 233.105469 122.019531 233.226562 C 121.199219 233.34375 120.761719 233.410156 120.289062 233.476562 C 119.800781 233.5625 119.28125 233.660156 118.980469 233.8125 C 118.675781 233.980469 118.609375 234.199219 118.625 234.335938 C 118.644531 234.46875 118.726562 234.484375 118.8125 234.503906 C 118.894531 234.519531 118.996094 234.503906 119.0625 234.519531 C 119.128906 234.535156 119.164062 234.585938 119.214844 234.652344 C 119.265625 234.722656 119.332031 234.789062 119.632812 234.804688 C 119.9375 234.804688 120.457031 234.738281 121.03125 234.636719 C 121.601562 234.554688 122.238281 234.417969 122.894531 234.351562 C 123.566406 234.285156 124.273438 234.265625 124.742188 234.300781 C 125.230469 234.335938 125.484375 234.402344 125.601562 234.519531 C 125.71875 234.621094 125.683594 234.769531 125.667969 234.839844 C 125.652344 234.90625 125.652344 234.90625 125.148438 234.921875 C 124.644531 234.9375 123.617188 234.972656 122.726562 235.140625 C 121.851562 235.308594 121.128906 235.613281 120.441406 235.8125 C 119.753906 236.03125 119.078125 236.183594 118.527344 236.316406 C 117.972656 236.453125 117.5 236.585938 117.296875 236.773438 C 117.078125 236.957031 117.097656 237.175781 117.382812 237.328125 C 117.667969 237.476562 118.238281 237.527344 118.507812 237.59375 C 118.777344 237.664062 118.761719 237.714844 118.828125 237.8125 C 118.894531 237.898438 119.03125 238.015625 119.921875 237.980469 C 120.8125 237.949219 122.441406 237.796875 123.28125 237.730469 C 124.121094 237.679688 124.140625 237.730469 124.273438 237.832031 C 124.40625 237.949219 124.644531 238.132812 125.25 238.117188 C 125.851562 238.117188 126.84375 237.914062 127.9375 237.746094 C 129.03125 237.578125 130.238281 237.425781 131.785156 237.359375 C 133.332031 237.292969 135.230469 237.292969 136.273438 237.175781 C 137.316406 237.058594 137.5 236.820312 137.71875 236.285156 C 137.9375 235.730469 138.222656 234.871094 138.425781 234.015625 C 138.625 233.15625 138.726562 232.316406 138.742188 231.089844 C 138.761719 229.878906 138.695312 228.300781 138.609375 227.273438 C 138.542969 226.25 138.457031 225.777344 138.425781 225.527344 C 138.375 225.289062 138.375 225.289062 139.464844 225.878906 C 140.542969 226.46875 142.695312 227.644531 144.8125 228.550781 C 146.929688 229.441406 149.03125 230.046875 150.980469 230.351562 C 152.929688 230.652344 154.761719 230.617188 156.273438 230.71875 C 157.769531 230.804688 158.945312 230.988281 161.078125 231.375 C 163.199219 231.746094 166.273438 232.300781 170.507812 232.519531 C 174.761719 232.753906 180.171875 232.652344 185.382812 232.148438 C 190.59375 231.660156 195.566406 230.769531 199.011719 230.265625 C 202.457031 229.761719 204.355469 229.675781 207.601562 229.964844 C 210.84375 230.25 215.398438 230.90625 219.785156 231.609375 C 224.171875 232.300781 228.375 233.023438 231.785156 233.730469 C 235.199219 234.433594 237.820312 235.125 240.070312 235.578125 C 242.304688 236.03125 244.171875 236.265625 246.390625 236.453125 C 248.609375 236.652344 251.195312 236.820312 253.800781 236.820312 C 256.40625 236.839844 259.011719 236.722656 260.507812 236.503906 C 262.003906 236.285156 262.390625 235.964844 262.425781 235.492188 C 262.441406 235.023438 262.105469 234.402344 261.566406 234.015625 C 261.027344 233.628906 260.289062 233.492188 259.9375 233.410156 C 259.566406 233.34375 259.566406 233.34375 259.078125 232.957031 C 258.574219 232.570312 257.601562 231.8125 256.441406 231.171875 C 255.296875 230.535156 253.96875 230.03125 252.710938 229.339844 C 251.433594 228.652344 250.1875 227.792969 249.113281 226.851562 C 248.019531 225.914062 247.078125 224.886719 246.289062 224.179688 C 245.5 223.492188 244.859375 223.121094 244.289062 222.9375 C 243.71875 222.734375 243.199219 222.703125 242.542969 222.917969 C 241.902344 223.136719 241.164062 223.609375 240.472656 224.097656 C 239.800781 224.566406 239.179688 225.039062 237.820312 225.140625 C 236.441406 225.222656 234.324219 224.921875 231.398438 223.996094 C 228.476562 223.070312 224.777344 221.523438 221.28125 220.28125 C 217.800781 219.019531 214.542969 218.042969 211.582031 217.574219 C 208.625 217.085938 205.953125 217.085938 202.996094 217.289062 C 200.039062 217.488281 196.761719 217.894531 194.40625 218.042969 C 192.070312 218.195312 190.660156 218.09375 188.105469 217.640625 C 185.550781 217.171875 181.871094 216.332031 178.003906 215.457031 C 174.140625 214.582031 170.105469 213.65625 168.089844 213.21875 C 166.070312 212.765625 166.070312 212.765625 165.382812 211.976562 C 164.691406 211.203125 163.296875 209.640625 161.632812 208.34375 C 159.953125 207.050781 158.003906 206.023438 156.003906 205.421875 C 154.019531 204.816406 152.003906 204.648438 150.476562 204.628906 C 148.960938 204.613281 147.9375 204.746094 146.761719 204.429688 C 145.601562 204.109375 144.308594 203.351562 143.464844 202.292969 C 142.625 201.234375 142.222656 199.890625 141.902344 198.242188 C 141.585938 196.59375 141.367188 194.660156 141.449219 192.105469 C 141.535156 189.566406 141.9375 186.390625 142.054688 183.851562 C 142.171875 181.3125 142.003906 179.363281 141.296875 176.960938 C 140.609375 174.554688 139.382812 171.679688 138.390625 169.679688 C 137.382812 167.679688 136.59375 166.554688 136.207031 165.984375 C 135.820312 165.410156 135.820312 165.410156 135.835938 164.90625 C 135.871094 164.402344 135.9375 163.394531 135.988281 162.890625 C 136.039062 162.402344 136.070312 162.417969 136.507812 162.6875 C 136.945312 162.957031 137.753906 163.476562 138.828125 163.59375 C 139.921875 163.695312 141.246094 163.375 142.40625 162.804688 C 143.566406 162.21875 144.542969 161.359375 145.164062 160.585938 C 145.667969 159.8125 145.9375 159.105469 146.140625 158.453125 Z M 146.140625 158.453125 " fill-opacity="1" fill-rule="evenodd"/></g></svg>