<svg xmlns="http://www.w3.org/2000/svg" xmlns:xlink="http://www.w3.org/1999/xlink" width="320" zoomAndPan="magnify" viewBox="0 0 240 239.999995" height="320" preserveAspectRatio="xMidYMid meet" version="1.0"><defs><clipPath id="a3d87a5386"><path d="M 32.449219 40.902344 L 207.199219 40.902344 L 207.199219 215.652344 L 32.449219 215.652344 Z M 32.449219 40.902344 " clip-rule="nonzero"/></clipPath></defs><g clip-path="url(#a3d87a5386)"><path fill="#000000" d="M 204.164062 125.21875 L 192.785156 125.21875 C 191.710938 125.21875 190.835938 124.382812 190.738281 123.332031 C 188.355469 88.105469 159.976562 59.726562 124.75 57.34375 C 123.699219 57.265625 122.863281 56.390625 122.863281 55.296875 L 122.863281 43.941406 C 122.863281 43.125 122.527344 42.351562 121.96875 41.796875 C 121.394531 41.21875 120.621094 40.902344 119.804688 40.902344 C 118.117188 40.902344 116.746094 42.25 116.746094 43.941406 L 116.746094 55.316406 C 116.746094 56.390625 115.914062 57.265625 114.859375 57.363281 C 79.652344 59.726562 51.277344 88.105469 48.894531 123.332031 C 48.8125 124.382812 47.941406 125.21875 46.847656 125.21875 L 35.488281 125.21875 C 33.800781 125.21875 32.449219 126.589844 32.449219 128.277344 C 32.449219 129.964844 33.800781 131.335938 35.488281 131.335938 L 46.867188 131.335938 C 47.941406 131.335938 48.8125 132.167969 48.914062 133.222656 C 51.296875 168.449219 79.671875 196.824219 114.902344 199.210938 C 115.953125 199.289062 116.789062 200.164062 116.789062 201.253906 L 116.789062 212.613281 C 116.789062 214.300781 118.15625 215.652344 119.84375 215.652344 C 121.535156 215.652344 122.902344 214.300781 122.902344 212.613281 L 122.902344 201.253906 C 122.902344 200.183594 123.738281 199.308594 124.789062 199.210938 C 160.019531 196.824219 188.394531 168.449219 190.777344 133.222656 C 190.859375 132.167969 191.730469 131.335938 192.824219 131.335938 L 204.203125 131.335938 C 205.015625 131.335938 205.789062 130.996094 206.347656 130.441406 C 206.902344 129.886719 207.242188 129.089844 207.242188 128.277344 C 207.242188 126.589844 205.890625 125.21875 204.203125 125.21875 Z M 116.769531 191.066406 C 116.769531 191.644531 116.527344 192.199219 116.132812 192.554688 C 115.734375 192.914062 115.257812 193.09375 114.761719 193.09375 L 114.601562 193.09375 C 82.613281 190.550781 57.550781 165.488281 55.007812 133.5 C 54.96875 132.941406 55.167969 132.367188 55.546875 131.96875 C 55.921875 131.554688 56.457031 131.335938 57.035156 131.335938 L 85.648438 131.335938 C 86.664062 131.335938 87.515625 132.070312 87.675781 133.082031 C 89.742188 147.101562 101 158.382812 115.019531 160.425781 C 116.03125 160.566406 116.769531 161.417969 116.769531 162.453125 Z M 116.769531 152.144531 C 116.769531 152.742188 116.488281 153.355469 116.011719 153.734375 C 115.65625 154.03125 115.199219 154.191406 114.742188 154.191406 C 114.601562 154.191406 114.445312 154.171875 114.304688 154.152344 C 104.117188 151.96875 96.136719 143.984375 93.949219 133.796875 C 93.832031 133.199219 93.96875 132.546875 94.367188 132.089844 C 94.746094 131.613281 95.339844 131.335938 95.957031 131.335938 L 114.742188 131.335938 C 115.835938 131.335938 116.765625 132.246094 116.765625 133.359375 L 116.765625 152.144531 Z M 116.769531 123.210938 C 116.769531 124.304688 115.855469 125.238281 114.742188 125.238281 L 95.957031 125.238281 C 95.359375 125.238281 94.746094 124.960938 94.367188 124.484375 C 93.96875 124.027344 93.832031 123.390625 93.949219 122.777344 C 96.136719 112.589844 104.117188 104.605469 114.304688 102.421875 C 114.902344 102.300781 115.554688 102.441406 116.011719 102.839844 C 116.488281 103.214844 116.769531 103.8125 116.769531 104.425781 Z M 116.769531 94.121094 C 116.769531 95.132812 116.03125 95.988281 115.019531 96.144531 C 101 98.210938 89.722656 109.472656 87.675781 123.492188 C 87.535156 124.503906 86.683594 125.238281 85.648438 125.238281 L 57.035156 125.238281 C 56.457031 125.238281 55.902344 125 55.546875 124.601562 C 55.167969 124.1875 54.96875 123.628906 55.007812 123.074219 C 57.550781 91.082031 82.613281 66.023438 114.601562 63.480469 C 115.160156 63.441406 115.734375 63.640625 116.132812 64.015625 C 116.550781 64.394531 116.769531 64.929688 116.769531 65.503906 Z M 122.882812 104.425781 C 122.882812 103.832031 123.160156 103.214844 123.636719 102.839844 C 124.09375 102.441406 124.730469 102.300781 125.347656 102.421875 C 135.535156 104.605469 143.515625 112.589844 145.699219 122.777344 C 145.71875 122.835938 145.679688 122.894531 145.699219 122.972656 C 145.699219 123.054688 145.742188 123.113281 145.742188 123.210938 C 145.742188 123.3125 145.699219 123.371094 145.679688 123.472656 C 145.679688 123.589844 145.660156 123.730469 145.621094 123.828125 C 145.5625 124.007812 145.480469 124.164062 145.382812 124.285156 C 145.34375 124.34375 145.324219 124.425781 145.285156 124.484375 C 145.265625 124.503906 145.222656 124.523438 145.203125 124.542969 C 145.066406 124.683594 144.90625 124.820312 144.746094 124.921875 C 144.6875 124.960938 144.628906 125.019531 144.550781 125.058594 C 144.269531 125.140625 144.03125 125.21875 143.714844 125.21875 L 124.929688 125.21875 C 123.835938 125.21875 122.902344 124.304688 122.902344 123.191406 L 122.902344 104.40625 Z M 122.882812 133.359375 C 122.882812 132.269531 123.796875 131.335938 124.910156 131.335938 L 143.695312 131.335938 C 144.289062 131.335938 144.90625 131.613281 145.285156 132.089844 C 145.679688 132.546875 145.820312 133.179688 145.699219 133.796875 C 143.515625 143.984375 135.535156 151.96875 125.347656 154.152344 C 125.207031 154.171875 125.046875 154.191406 124.910156 154.191406 C 124.453125 154.191406 123.996094 154.03125 123.636719 153.734375 C 123.160156 153.355469 122.882812 152.761719 122.882812 152.144531 Z M 125.066406 193.113281 L 124.910156 193.113281 C 124.414062 193.113281 123.9375 192.933594 123.539062 192.578125 C 123.121094 192.199219 122.902344 191.664062 122.902344 191.085938 L 122.902344 162.472656 C 122.902344 161.460938 123.636719 160.605469 124.652344 160.445312 C 138.671875 158.382812 149.949219 147.121094 151.996094 133.101562 C 152.132812 132.089844 152.988281 131.355469 154.019531 131.355469 L 182.636719 131.355469 C 183.210938 131.355469 183.769531 131.59375 184.125 131.988281 C 184.503906 132.40625 184.703125 132.960938 184.660156 133.519531 C 182.121094 165.511719 157.058594 190.570312 125.066406 193.113281 Z M 184.105469 124.582031 C 183.730469 125 183.191406 125.21875 182.617188 125.21875 L 154 125.21875 C 152.988281 125.21875 152.132812 124.484375 151.976562 123.472656 C 149.910156 109.449219 138.652344 98.171875 124.632812 96.125 C 123.617188 95.988281 122.882812 95.132812 122.882812 94.101562 L 122.882812 65.484375 C 122.882812 64.910156 123.121094 64.355469 123.519531 63.996094 C 123.9375 63.617188 124.492188 63.421875 125.046875 63.460938 C 157.039062 66 182.101562 91.0625 184.640625 123.054688 C 184.683594 123.609375 184.484375 124.1875 184.105469 124.582031 Z M 184.105469 124.582031 " fill-opacity="1" fill-rule="nonzero"/></g></svg>