<svg xmlns="http://www.w3.org/2000/svg" xmlns:xlink="http://www.w3.org/1999/xlink" width="500" zoomAndPan="magnify" viewBox="0 0 375 374.999991" height="500" preserveAspectRatio="xMidYMid meet" version="1.0"><defs><clipPath id="c701fd3cbc"><path d="M 81.414062 37.5 L 300.414062 37.5 L 300.414062 328.5 L 81.414062 328.5 Z M 81.414062 37.5 " clip-rule="nonzero"/></clipPath></defs><g clip-path="url(#c701fd3cbc)"><path fill="#2e2d2d" d="M 295.632812 40.78125 C 295.664062 40.730469 295.71875 40.65625 295.785156 40.566406 C 296.1875 40.011719 297.253906 38.542969 297.117188 37.992188 C 297.101562 37.945312 297.082031 37.910156 297.050781 37.882812 C 296.664062 38.171875 296.363281 38.617188 296.070312 39.050781 C 295.949219 39.230469 295.828125 39.40625 295.707031 39.566406 C 295.167969 40.28125 294.722656 40.875 294.316406 41.441406 C 294.183594 41.625 294.0625 41.824219 293.929688 42.03125 C 293.742188 42.335938 293.546875 42.644531 293.328125 42.90625 L 293.285156 42.953125 C 293.214844 43.035156 293.101562 43.105469 292.992188 43.171875 C 292.894531 43.234375 292.769531 43.308594 292.742188 43.367188 C 292.683594 43.476562 292.699219 43.695312 292.710938 43.886719 C 292.722656 44.050781 292.730469 44.207031 292.707031 44.339844 C 292.625 44.804688 292.496094 45.277344 292.375 45.734375 C 292.304688 45.992188 292.234375 46.25 292.171875 46.507812 L 291.960938 47.394531 C 291.726562 48.371094 291.484375 49.382812 291.222656 50.367188 C 290.882812 51.640625 290.320312 52.851562 289.773438 54.019531 C 289.230469 55.191406 288.664062 56.402344 288.328125 57.675781 C 288.015625 58.855469 287.847656 60.097656 287.6875 61.292969 L 287.667969 61.429688 C 287.621094 61.785156 287.59375 62.179688 287.5625 62.597656 C 287.488281 63.636719 287.410156 64.714844 287.011719 65.542969 L 286.96875 65.632812 L 286.878906 65.601562 C 286.335938 65.417969 286.367188 63.925781 286.453125 62.28125 C 286.46875 61.984375 286.480469 61.75 286.476562 61.613281 C 286.453125 60.175781 286.242188 58.914062 285.789062 57.519531 C 285.6875 57.207031 285.589844 56.890625 285.488281 56.574219 C 285.164062 55.519531 284.824219 54.429688 284.371094 53.429688 C 284.023438 52.667969 282.953125 50.691406 282.136719 50.699219 C 281.898438 50.699219 281.75 50.75 281.695312 50.847656 C 281.574219 51.054688 281.84375 51.523438 282.0625 51.898438 C 282.21875 52.171875 282.355469 52.40625 282.386719 52.582031 C 282.492188 53.183594 282.375 53.789062 282.257812 54.378906 C 282.179688 54.78125 282.097656 55.195312 282.09375 55.59375 C 282.070312 57.671875 283.234375 59.308594 284.375 60.632812 L 284.460938 60.730469 C 284.984375 61.339844 285.582031 62.03125 285.738281 62.871094 C 285.804688 63.238281 285.824219 63.613281 285.84375 63.980469 C 285.855469 64.207031 285.867188 64.445312 285.894531 64.679688 C 285.917969 64.917969 285.976562 65.15625 286.03125 65.390625 C 286.089844 65.644531 286.148438 65.902344 286.175781 66.167969 C 286.261719 67.117188 285.570312 67.929688 284.964844 68.652344 C 284.808594 68.832031 284.660156 69.007812 284.53125 69.175781 C 284.203125 69.609375 283.886719 70.070312 283.578125 70.515625 C 283.113281 71.179688 282.636719 71.871094 282.109375 72.496094 C 281.4375 73.292969 280.546875 73.828125 279.6875 74.34375 C 279.425781 74.5 279.164062 74.65625 278.910156 74.820312 C 277.71875 75.582031 276.710938 76.511719 275.800781 77.402344 C 274.109375 79.054688 271.941406 81.265625 270.203125 83.695312 C 269.195312 85.101562 268.414062 86.671875 267.652344 88.1875 C 267.253906 88.992188 266.835938 89.824219 266.394531 90.625 C 265.640625 91.976562 264.886719 93.160156 264.09375 94.238281 C 264.039062 94.3125 263.96875 94.410156 263.890625 94.527344 C 263.148438 95.589844 262.296875 96.71875 261.601562 96.675781 L 261.515625 96.671875 L 261.5 96.585938 C 261.441406 96.257812 261.484375 95.90625 261.523438 95.570312 C 261.558594 95.289062 261.59375 95 261.570312 94.726562 C 261.519531 94.128906 261.640625 93.707031 261.792969 93.171875 C 261.980469 92.519531 262.550781 90.53125 262.132812 89.484375 C 262.066406 89.316406 261.980469 89.15625 261.898438 89.007812 C 261.753906 88.742188 261.605469 88.472656 261.550781 88.125 C 261.453125 87.515625 261.582031 86.898438 261.738281 86.265625 C 262.101562 84.773438 262.101562 83.480469 261.738281 81.933594 C 261.707031 81.789062 261.667969 81.582031 261.628906 81.339844 C 261.476562 80.460938 261.195312 78.824219 260.609375 78.632812 C 260.488281 78.59375 260.332031 78.5625 260.253906 78.632812 C 260.253906 78.636719 260.25 78.636719 260.246094 78.640625 C 260.09375 78.804688 260.238281 79.375 260.332031 79.757812 C 260.390625 79.992188 260.441406 80.195312 260.445312 80.335938 C 260.472656 81.464844 260.09375 82.582031 259.730469 83.664062 C 259.378906 84.699219 259.019531 85.769531 259.027344 86.828125 C 259.03125 87.015625 259.050781 87.207031 259.070312 87.390625 C 259.097656 87.648438 259.125 87.914062 259.105469 88.1875 C 259.09375 88.359375 259.070312 88.523438 259.050781 88.679688 C 259.007812 89.007812 258.964844 89.316406 259.011719 89.664062 C 259.125 90.472656 259.5 91.160156 259.894531 91.886719 C 259.976562 92.039062 260.058594 92.1875 260.136719 92.339844 C 260.648438 93.308594 260.875 94.261719 260.871094 95.429688 C 260.871094 95.660156 260.902344 95.898438 260.933594 96.128906 C 261.007812 96.664062 261.082031 97.21875 260.773438 97.726562 C 260.320312 98.476562 259.488281 99.160156 258.753906 99.761719 C 258.464844 99.996094 258.195312 100.214844 257.953125 100.433594 C 257.484375 100.859375 256.996094 101.277344 256.523438 101.679688 C 256.078125 102.0625 255.617188 102.453125 255.171875 102.851562 C 253.640625 104.230469 252.359375 105.941406 251.121094 107.601562 C 250.726562 108.128906 250.316406 108.675781 249.910156 109.199219 C 249.671875 109.507812 249.433594 109.8125 249.199219 110.121094 C 247.742188 112.015625 246.238281 113.976562 244.242188 115.453125 C 243.292969 116.15625 242.253906 116.761719 241.246094 117.351562 L 240.691406 117.675781 C 240.363281 117.871094 240.027344 118.085938 239.675781 118.316406 C 238.847656 118.855469 237.992188 119.414062 237.121094 119.707031 L 237.023438 119.738281 L 236.988281 119.640625 C 236.84375 119.289062 237.160156 118.863281 237.464844 118.457031 C 237.609375 118.261719 237.746094 118.078125 237.808594 117.929688 C 238.0625 117.316406 238.15625 116.625 238.253906 115.953125 C 238.273438 115.792969 238.296875 115.628906 238.320312 115.472656 L 238.449219 114.636719 C 238.671875 113.175781 238.902344 111.660156 239.253906 110.191406 C 239.410156 109.546875 239.496094 108.871094 239.582031 108.21875 C 239.695312 107.351562 239.8125 106.457031 240.085938 105.609375 C 240.300781 104.9375 240.574219 104.285156 240.839844 103.652344 C 241.203125 102.78125 241.582031 101.875 241.808594 100.921875 C 242.023438 100.027344 242.304688 99.148438 242.574219 98.296875 C 243.253906 96.15625 243.898438 94.136719 243.601562 91.84375 C 243.558594 91.53125 243.515625 91.222656 243.472656 90.917969 C 243.28125 89.585938 243.101562 88.328125 243.207031 86.945312 C 243.210938 86.859375 243.234375 86.699219 243.269531 86.476562 C 243.394531 85.660156 243.722656 83.492188 243.222656 83.144531 C 243.125 83.078125 242.984375 83.089844 242.808594 83.179688 C 242.710938 83.472656 242.742188 83.773438 242.777344 84.089844 C 242.792969 84.253906 242.816406 84.425781 242.8125 84.597656 C 242.8125 84.957031 242.765625 85.324219 242.722656 85.679688 C 242.707031 85.820312 242.6875 85.960938 242.671875 86.101562 C 242.574219 87.042969 242.53125 87.871094 242.535156 88.625 C 242.539062 89.425781 242.671875 90.226562 242.800781 91 C 242.957031 91.933594 243.117188 92.902344 243.058594 93.875 C 242.957031 95.425781 242.445312 96.929688 241.949219 98.382812 C 241.84375 98.683594 241.742188 98.984375 241.644531 99.285156 C 241.550781 99.566406 241.460938 99.847656 241.371094 100.128906 C 241.125 100.886719 240.875 101.671875 240.59375 102.425781 L 240.578125 102.46875 C 240.328125 103.148438 239.804688 104.554688 238.984375 104.710938 L 238.917969 104.722656 L 238.878906 104.667969 C 238.492188 104.160156 238.324219 103.433594 238.167969 102.734375 C 238.097656 102.414062 238.027344 102.113281 237.941406 101.84375 C 237.917969 101.777344 237.894531 101.710938 237.871094 101.644531 C 237.746094 101.296875 237.621094 100.941406 237.796875 100.597656 C 237.859375 100.476562 237.949219 100.40625 238.027344 100.347656 C 238.109375 100.289062 238.179688 100.234375 238.222656 100.125 C 238.371094 99.757812 238.144531 98.921875 237.980469 98.3125 C 237.917969 98.078125 237.863281 97.878906 237.832031 97.726562 C 237.667969 96.851562 237.550781 96.117188 237.523438 95.351562 C 237.488281 94.355469 237.378906 93.984375 236.863281 93.144531 L 236.691406 92.867188 C 236.285156 92.199219 235.867188 91.511719 235.414062 90.863281 L 235.355469 90.777344 C 234.085938 88.917969 233.457031 88.574219 233.148438 88.613281 C 233.015625 88.628906 232.910156 88.734375 232.828125 88.929688 C 232.933594 89.117188 233.074219 89.308594 233.214844 89.511719 C 233.679688 90.152344 234.199219 90.878906 233.898438 91.738281 L 233.871094 91.804688 L 233.800781 91.8125 C 233.667969 91.824219 233.53125 91.851562 233.40625 91.894531 C 233.527344 92.132812 233.679688 92.347656 233.839844 92.574219 C 234.074219 92.90625 234.320312 93.25 234.460938 93.679688 C 234.648438 94.273438 234.714844 94.894531 234.78125 95.488281 C 234.792969 95.613281 234.808594 95.734375 234.820312 95.855469 C 235 97.394531 235.421875 98.667969 236.113281 99.746094 C 236.207031 99.890625 236.296875 100.023438 236.382812 100.148438 C 236.726562 100.648438 237 101.042969 237.070312 101.753906 C 237.125 102.28125 237.238281 102.4375 237.441406 102.71875 C 237.523438 102.835938 237.617188 102.96875 237.726562 103.15625 C 238.339844 104.167969 237.984375 106.488281 237.796875 107.296875 C 237.757812 107.472656 237.714844 107.644531 237.675781 107.816406 C 237.386719 109.011719 237.117188 110.136719 237.304688 111.378906 C 237.332031 111.566406 237.367188 111.75 237.398438 111.929688 C 237.496094 112.457031 237.589844 112.957031 237.550781 113.523438 C 237.5 114.28125 237.320312 115.042969 237.144531 115.78125 C 237.105469 115.945312 237.066406 116.105469 237.027344 116.269531 C 236.902344 116.820312 236.777344 117.375 236.652344 117.925781 C 236.402344 119.039062 236.144531 120.191406 235.867188 121.316406 C 235.820312 121.511719 235.769531 121.703125 235.722656 121.894531 C 235.582031 122.421875 235.441406 122.96875 235.367188 123.515625 C 235.339844 123.734375 235.332031 123.972656 235.324219 124.222656 C 235.304688 124.8125 235.285156 125.417969 234.988281 125.894531 L 234.929688 125.992188 L 234.832031 125.925781 C 233.929688 125.324219 233.886719 123.660156 233.855469 122.441406 C 233.847656 122.140625 233.839844 121.859375 233.820312 121.636719 C 233.800781 121.425781 233.789062 121.214844 233.773438 121.003906 C 233.695312 119.710938 233.617188 118.488281 232.507812 117.71875 C 232.335938 117.597656 232.136719 117.496094 231.945312 117.394531 C 231.5 117.164062 231.039062 116.925781 230.789062 116.425781 C 230.503906 115.847656 230.601562 115.140625 230.6875 114.511719 C 230.703125 114.382812 230.722656 114.257812 230.734375 114.140625 C 230.746094 114.042969 230.769531 113.90625 230.796875 113.742188 C 230.921875 112.996094 231.15625 111.617188 230.5625 111.421875 C 230.167969 111.707031 229.757812 112.640625 229.945312 115.367188 C 230.03125 116.636719 230.628906 117.242188 231.695312 117.914062 C 232.796875 118.609375 233.035156 119.269531 233.125 120.394531 C 233.167969 120.925781 233.191406 121.480469 233.207031 122.011719 C 233.242188 122.855469 233.273438 123.726562 233.390625 124.542969 C 233.492188 125.242188 233.769531 125.929688 234.042969 126.597656 C 234.269531 127.160156 234.507812 127.746094 234.640625 128.34375 C 234.886719 129.425781 234.792969 130.433594 234.585938 131.609375 L 234.511719 132.023438 C 234.269531 133.363281 234.023438 134.753906 233.761719 136.117188 C 233.746094 136.203125 233.722656 136.34375 233.691406 136.523438 C 233.355469 138.644531 233.015625 140.066406 232.472656 140.105469 L 232.402344 140.109375 L 232.367188 140.050781 C 232.175781 139.714844 232.164062 139.269531 232.152344 138.835938 C 232.144531 138.554688 232.136719 138.289062 232.082031 138.0625 C 231.929688 137.433594 231.628906 136.730469 231.21875 136.027344 C 230.492188 134.78125 229.207031 133.792969 227.789062 133.386719 C 226.980469 133.152344 226.667969 133.277344 226.535156 133.40625 C 226.304688 133.664062 226.503906 133.949219 226.835938 134.355469 C 226.96875 134.519531 227.09375 134.667969 227.167969 134.820312 C 227.355469 135.199219 227.40625 135.585938 227.453125 135.960938 C 227.488281 136.253906 227.523438 136.527344 227.617188 136.800781 C 227.800781 137.320312 228.160156 137.8125 228.503906 138.292969 C 228.613281 138.441406 228.714844 138.585938 228.8125 138.726562 C 229.574219 139.839844 230.304688 140.769531 231.542969 140.882812 C 231.644531 140.890625 231.734375 140.894531 231.816406 140.898438 C 232.046875 140.90625 232.230469 140.914062 232.324219 141.046875 C 232.410156 141.167969 232.402344 141.339844 232.296875 141.671875 C 232.171875 142.066406 231.980469 142.464844 231.792969 142.851562 C 231.671875 143.101562 231.546875 143.359375 231.445312 143.605469 C 230.867188 145.015625 230.167969 146.414062 229.359375 147.769531 C 228.980469 148.402344 228.554688 149.015625 228.140625 149.609375 C 227.699219 150.238281 227.246094 150.890625 226.851562 151.5625 C 225.839844 153.304688 225.515625 155.304688 225.203125 157.238281 C 225.0625 158.109375 224.917969 159.007812 224.710938 159.878906 C 224.070312 162.5625 223.140625 165.207031 222.238281 167.761719 L 221.648438 169.445312 C 221.203125 170.734375 220.742188 172.066406 220.128906 173.324219 C 219.753906 174.101562 219.285156 174.824219 218.828125 175.523438 C 218.496094 176.035156 218.152344 176.5625 217.847656 177.105469 C 217.289062 178.109375 216.960938 179.261719 216.640625 180.371094 C 216.550781 180.6875 216.460938 181.003906 216.367188 181.3125 C 216.273438 181.613281 216.195312 181.929688 216.121094 182.238281 C 216.007812 182.6875 215.894531 183.152344 215.734375 183.582031 C 215.492188 184.234375 214.972656 184.449219 214.417969 184.679688 C 214.324219 184.71875 214.230469 184.757812 214.136719 184.800781 C 213.609375 185.035156 213.085938 185.265625 212.558594 185.496094 C 210.136719 186.554688 207.628906 187.652344 205.292969 188.988281 C 205 189.15625 204.667969 189.34375 204.296875 189.433594 C 204.222656 189.449219 204.105469 189.453125 203.972656 189.453125 C 203.804688 189.457031 203.574219 189.460938 203.488281 189.503906 C 203.238281 189.617188 203.121094 189.816406 202.984375 190.042969 C 202.894531 190.199219 202.800781 190.359375 202.65625 190.507812 C 202.363281 190.808594 201.996094 191.066406 201.640625 191.316406 C 201.4375 191.460938 201.242188 191.601562 201.058594 191.742188 C 200.953125 191.832031 200.835938 191.941406 200.707031 192.0625 C 200.316406 192.429688 199.867188 192.847656 199.390625 192.878906 L 199.273438 192.890625 L 199.273438 192.769531 C 199.285156 191.960938 199.824219 190.664062 200.1875 190.042969 C 200.40625 189.667969 200.671875 189.328125 200.925781 189 C 201.242188 188.59375 201.570312 188.175781 201.808594 187.6875 C 202.585938 186.097656 203.050781 185.039062 202.808594 183.40625 C 202.671875 182.472656 202.671875 181.503906 202.816406 180.523438 C 202.832031 180.410156 202.851562 180.300781 202.867188 180.191406 C 202.964844 179.589844 203.050781 179.070312 202.816406 178.492188 C 202.769531 178.375 202.71875 178.257812 202.671875 178.144531 C 202.429688 177.589844 202.226562 177.105469 202.273438 176.390625 C 202.277344 176.3125 202.292969 176.21875 202.304688 176.125 C 202.34375 175.8125 202.394531 175.425781 202.234375 175.238281 C 202.175781 175.167969 202.082031 175.128906 201.953125 175.117188 C 201.449219 175.515625 201.476562 176.253906 201.5 176.96875 C 201.511719 177.265625 201.519531 177.546875 201.488281 177.796875 C 201.417969 178.363281 201.15625 178.847656 200.90625 179.3125 C 200.707031 179.679688 200.5 180.0625 200.394531 180.480469 C 200.296875 180.851562 200.21875 181.230469 200.144531 181.597656 C 199.980469 182.386719 199.8125 183.203125 199.472656 183.976562 C 199.386719 184.175781 199.296875 184.355469 199.214844 184.523438 C 198.890625 185.175781 198.675781 185.609375 198.941406 186.449219 C 199 186.640625 199.066406 186.832031 199.132812 187.019531 C 199.375 187.714844 199.621094 188.433594 199.59375 189.214844 C 199.558594 190.082031 199.164062 190.96875 198.8125 191.746094 L 198.683594 192.035156 C 198.511719 192.433594 198.261719 192.777344 198.019531 193.109375 C 197.722656 193.511719 197.445312 193.890625 197.300781 194.351562 L 197.257812 194.484375 C 197.089844 195.03125 196.976562 195.394531 196.503906 195.851562 C 196.351562 196 196.179688 196.132812 196.015625 196.261719 C 195.855469 196.386719 195.6875 196.515625 195.542969 196.660156 C 195.1875 197.003906 194.820312 197.335938 194.464844 197.660156 C 194.007812 198.074219 193.53125 198.503906 193.089844 198.953125 C 192.265625 199.789062 191.207031 200.441406 190.175781 200.742188 C 190.054688 200.777344 189.96875 200.773438 189.894531 200.773438 C 189.8125 200.773438 189.746094 200.769531 189.628906 200.824219 C 189.386719 200.9375 189.109375 201.21875 188.839844 201.496094 C 188.667969 201.667969 188.507812 201.832031 188.359375 201.949219 C 188.085938 202.164062 187.816406 202.375 187.542969 202.589844 C 186.785156 203.179688 186 203.789062 185.273438 204.433594 C 184.554688 205.070312 183.871094 205.769531 183.214844 206.445312 C 182.132812 207.558594 181.011719 208.710938 179.6875 209.613281 C 179.332031 209.855469 178.976562 210.113281 178.617188 210.371094 C 177.910156 210.882812 177.179688 211.410156 176.433594 211.835938 L 176.242188 211.941406 C 175.800781 212.1875 175.382812 212.421875 174.988281 212.761719 C 174.875 212.855469 174.757812 212.980469 174.632812 213.117188 C 174.375 213.390625 174.113281 213.675781 173.800781 213.792969 L 173.609375 213.863281 L 173.65625 213.667969 C 174.101562 211.753906 175.3125 210.5 176.601562 209.171875 L 176.640625 209.128906 C 176.980469 208.777344 177.414062 208.5625 177.835938 208.355469 C 178.308594 208.121094 178.75 207.902344 179.058594 207.507812 C 179.34375 207.144531 179.425781 206.6875 179.519531 206.207031 C 179.585938 205.851562 179.65625 205.476562 179.820312 205.148438 C 180.046875 204.679688 180.40625 204.324219 180.757812 203.976562 C 180.988281 203.746094 181.226562 203.511719 181.421875 203.246094 C 181.855469 202.652344 182.089844 201.972656 182.15625 201.101562 C 182.214844 200.386719 182.347656 199.820312 182.507812 199.167969 C 182.542969 199.027344 182.574219 198.882812 182.609375 198.730469 C 182.679688 198.433594 182.636719 197.964844 182.417969 197.675781 C 182.316406 197.542969 182.1875 197.464844 182.03125 197.445312 C 181.789062 197.710938 181.722656 198.082031 181.652344 198.46875 C 181.597656 198.769531 181.542969 199.082031 181.394531 199.351562 C 181.085938 199.929688 180.527344 200.265625 179.988281 200.585938 L 179.839844 200.675781 C 179.609375 200.816406 179.367188 200.957031 179.125 201.097656 C 178.042969 201.722656 176.929688 202.371094 176.164062 203.347656 C 175.691406 203.957031 175.5 204.59375 175.34375 205.421875 C 175.179688 206.296875 174.855469 206.6875 174.242188 207.1875 C 173.679688 207.636719 173.785156 208.445312 173.886719 209.296875 C 173.949219 209.804688 174.011719 210.332031 173.925781 210.785156 C 173.710938 211.925781 173.132812 213.050781 172.109375 214.320312 C 171.828125 214.671875 171.566406 215.054688 171.285156 215.457031 C 170.828125 216.117188 170.359375 216.796875 169.808594 217.324219 C 168.996094 218.101562 167.929688 218.621094 166.898438 219.125 C 166.496094 219.320312 166.113281 219.507812 165.746094 219.707031 C 164.515625 220.378906 163.257812 221.144531 162.003906 221.980469 C 159.632812 223.558594 157.15625 225.382812 155.078125 228.023438 C 154.621094 228.605469 154.199219 229.230469 153.796875 229.832031 C 153.324219 230.535156 152.839844 231.257812 152.289062 231.921875 C 151.984375 232.289062 151.757812 232.664062 151.5 233.207031 C 151.15625 233.949219 150.730469 234.519531 150.246094 235.140625 C 149.875 235.617188 149.492188 236.09375 149.101562 236.578125 C 147.621094 238.40625 146.089844 240.300781 145.179688 242.425781 C 145.078125 242.667969 145.003906 242.929688 144.921875 243.210938 C 144.796875 243.660156 144.664062 244.125 144.402344 244.492188 C 144.136719 244.871094 143.71875 245.136719 143.3125 245.390625 C 143.203125 245.460938 143.097656 245.53125 142.996094 245.597656 L 142.414062 245.992188 C 141.335938 246.71875 140.222656 247.46875 139.15625 248.246094 C 138.707031 248.574219 138.261719 248.921875 137.828125 249.257812 C 137.0625 249.855469 136.265625 250.472656 135.421875 251.007812 C 134.9375 251.308594 134.4375 251.605469 133.953125 251.890625 C 133.140625 252.371094 132.296875 252.867188 131.511719 253.421875 L 131.238281 253.617188 C 130.117188 254.410156 128.960938 255.230469 127.773438 255.984375 L 127.59375 256.097656 C 127.050781 256.445312 126.488281 256.800781 125.917969 257.128906 C 125.78125 257.207031 125.632812 257.304688 125.472656 257.414062 C 125.03125 257.710938 124.527344 258.046875 124.046875 258.066406 L 123.96875 258.066406 L 123.941406 257.996094 C 123.769531 257.539062 123.824219 257.003906 123.882812 256.480469 C 123.902344 256.269531 123.925781 256.070312 123.929688 255.886719 C 123.933594 255.78125 123.925781 255.652344 123.917969 255.511719 C 123.894531 255.105469 123.863281 254.640625 124.050781 254.347656 L 124.058594 254.332031 L 124.074219 254.320312 C 124.234375 254.1875 124.394531 254.058594 124.558594 253.929688 C 124.648438 253.746094 124.710938 253.550781 124.734375 253.351562 C 124.769531 253.21875 124.796875 253.105469 124.824219 252.992188 C 124.890625 252.710938 124.960938 252.421875 125.089844 252.136719 C 125.496094 251.226562 126.152344 250.632812 126.851562 250.003906 C 126.949219 249.914062 127.050781 249.824219 127.148438 249.734375 C 127.960938 248.984375 128.1875 248.210938 128.277344 247.210938 C 128.289062 247.039062 128.304688 246.867188 128.316406 246.699219 C 128.371094 245.953125 128.421875 245.246094 128.683594 244.515625 L 128.816406 244.15625 C 129.148438 243.25 129.433594 242.46875 129.429688 241.4375 C 129.429688 241.378906 129.433594 241.3125 129.433594 241.230469 C 129.441406 240.730469 129.464844 239.6875 129.117188 239.371094 C 129.042969 239.304688 128.953125 239.277344 128.847656 239.289062 C 128.472656 239.332031 128.410156 240.183594 128.363281 240.808594 C 128.34375 241.089844 128.324219 241.332031 128.285156 241.492188 C 128 242.59375 127.449219 243.578125 126.71875 244.324219 C 126.421875 244.625 126.074219 244.863281 125.734375 245.09375 C 125.40625 245.320312 125.070312 245.550781 124.792969 245.832031 C 124.777344 245.847656 124.761719 245.867188 124.746094 245.878906 C 123.824219 246.855469 123.855469 248.054688 123.886719 249.320312 C 123.898438 249.828125 123.914062 250.351562 123.859375 250.855469 C 123.804688 251.378906 123.660156 251.894531 123.523438 252.390625 C 123.429688 252.71875 123.335938 253.058594 123.269531 253.394531 C 123.121094 254.128906 123.179688 254.820312 123.238281 255.546875 C 123.261719 255.824219 123.285156 256.101562 123.296875 256.386719 C 123.332031 257.21875 122.996094 257.609375 122.488281 258.101562 C 122.34375 258.242188 122.203125 258.386719 122.058594 258.535156 C 121.546875 259.058594 121.019531 259.601562 120.394531 259.910156 C 120.160156 260.027344 119.945312 260.113281 119.738281 260.195312 C 119.1875 260.417969 118.75 260.59375 118.332031 261.210938 C 117.9375 261.789062 117.738281 262.414062 117.523438 263.074219 C 117.464844 263.25 117.40625 263.433594 117.347656 263.613281 C 116.949219 264.757812 116.421875 265.871094 115.914062 266.949219 C 115.542969 267.726562 115.164062 268.53125 114.835938 269.339844 C 113.074219 273.695312 110.945312 277.835938 108.917969 281.699219 C 107.796875 283.839844 106.730469 286.058594 105.703125 288.199219 C 104.734375 290.214844 103.734375 292.296875 102.6875 294.316406 C 100.9375 297.683594 99.128906 301.085938 97.378906 304.378906 L 96.394531 306.230469 C 95.921875 307.117188 95.453125 308.035156 95 308.921875 C 93.386719 312.078125 91.71875 315.339844 89.476562 318.171875 C 88.097656 319.914062 86.535156 321.886719 84.894531 323.730469 C 84.421875 324.257812 83.949219 324.785156 83.476562 325.308594 L 82.890625 325.957031 C 82.71875 326.148438 82.542969 326.320312 82.371094 326.484375 C 81.828125 326.996094 81.429688 327.378906 81.585938 328.039062 C 82.019531 327.722656 82.320312 327.324219 82.632812 326.902344 C 82.796875 326.6875 82.964844 326.464844 83.160156 326.242188 C 83.929688 325.363281 84.734375 324.492188 85.511719 323.652344 L 86.0625 323.050781 C 87.804688 321.160156 89.441406 319.042969 91.074219 316.570312 C 91.9375 315.269531 92.707031 313.894531 93.453125 312.566406 C 93.949219 311.6875 94.460938 310.773438 94.992188 309.886719 C 95.507812 309.039062 95.9375 308.0625 96.355469 307.121094 C 96.992188 305.679688 97.648438 304.1875 98.640625 303.027344 L 98.78125 302.863281 L 98.828125 303.074219 C 99.015625 303.855469 98.515625 304.925781 98.113281 305.785156 C 97.988281 306.058594 97.867188 306.316406 97.78125 306.539062 C 97.230469 307.957031 96.703125 309.1875 96.167969 310.296875 C 94.957031 312.792969 93.714844 315 92.46875 316.851562 C 91.746094 317.925781 90.871094 318.878906 90.023438 319.800781 C 89.125 320.78125 88.195312 321.796875 87.457031 322.945312 C 87.316406 323.167969 87.175781 323.390625 87.035156 323.613281 C 86.476562 324.507812 85.894531 325.433594 85.1875 326.246094 C 85.144531 326.292969 85.070312 326.367188 84.984375 326.457031 C 84.644531 326.789062 83.953125 327.480469 84.042969 327.878906 C 84.070312 327.984375 84.15625 328.070312 84.316406 328.132812 C 84.839844 327.804688 85.308594 327.078125 85.722656 326.4375 C 85.90625 326.15625 86.078125 325.890625 86.242188 325.671875 C 86.800781 324.941406 87.316406 324.167969 87.816406 323.421875 L 88.132812 322.949219 C 88.804688 321.949219 89.632812 321.058594 90.433594 320.195312 C 91.117188 319.460938 91.824219 318.699219 92.425781 317.878906 C 94.804688 314.652344 96.894531 310.746094 98.476562 306.589844 C 98.699219 306.007812 98.910156 305.410156 99.121094 304.832031 C 99.519531 303.71875 99.929688 302.5625 100.417969 301.464844 C 100.828125 300.554688 101.390625 299.730469 101.933594 298.933594 C 102.375 298.28125 102.832031 297.609375 103.203125 296.894531 C 104.804688 293.800781 106.527344 290.402344 108.621094 286.199219 C 108.679688 286.085938 108.738281 285.941406 108.796875 285.789062 C 108.96875 285.351562 109.167969 284.855469 109.519531 284.621094 C 109.699219 284.507812 109.886719 284.488281 110.066406 284.46875 C 110.234375 284.453125 110.394531 284.4375 110.539062 284.34375 C 110.796875 284.179688 111.03125 283.894531 111.257812 283.617188 C 111.410156 283.433594 111.570312 283.238281 111.734375 283.085938 C 112.988281 281.921875 114.242188 281.246094 116.066406 280.75 C 117.84375 280.265625 119.417969 279.195312 120.8125 278.25 C 122.644531 277.007812 124.191406 276.164062 125.820312 275.511719 C 126.785156 275.125 127.539062 274.742188 128.195312 274.304688 C 128.382812 274.179688 128.566406 274.039062 128.761719 273.886719 C 129.199219 273.550781 129.648438 273.203125 130.171875 273.03125 C 130.546875 272.90625 130.941406 272.921875 131.328125 272.9375 C 131.558594 272.945312 131.792969 272.953125 132.015625 272.929688 L 132.058594 272.925781 C 132.769531 272.855469 133.28125 272.804688 133.867188 273.402344 C 134.070312 273.609375 134.25 273.84375 134.421875 274.066406 C 134.574219 274.257812 134.726562 274.457031 134.894531 274.636719 C 134.972656 274.722656 135.050781 274.796875 135.128906 274.871094 C 135.269531 275.003906 135.414062 275.140625 135.546875 275.328125 C 135.792969 275.671875 135.960938 276.066406 136.125 276.445312 C 136.261719 276.757812 136.402344 277.082031 136.578125 277.371094 C 137.429688 278.726562 138.765625 278.84375 140.085938 278.773438 C 140.882812 278.726562 140.992188 278.761719 141.503906 279.242188 C 141.585938 279.320312 141.648438 279.433594 141.714844 279.554688 C 141.878906 279.847656 141.992188 280.023438 142.277344 279.921875 C 142.402344 279.878906 142.476562 279.816406 142.503906 279.734375 C 142.582031 279.507812 142.335938 279.132812 142.175781 278.878906 C 142.144531 278.832031 142.113281 278.78125 142.085938 278.742188 C 141.359375 277.550781 140.472656 276.214844 139.390625 275.332031 C 138.628906 274.710938 137.796875 274.257812 137.167969 274.113281 C 136.929688 274.0625 136.695312 274.085938 136.445312 274.109375 C 136.113281 274.144531 135.773438 274.179688 135.425781 274.023438 C 135.058594 273.855469 134.789062 273.542969 134.53125 273.242188 C 134.304688 272.980469 134.09375 272.730469 133.820312 272.570312 C 133.59375 272.433594 133.3125 272.371094 133.042969 272.308594 C 132.75 272.242188 132.441406 272.175781 132.203125 272.007812 L 132.085938 271.929688 L 132.191406 271.835938 C 132.964844 271.167969 134 270.664062 134.996094 270.175781 C 135.273438 270.039062 135.542969 269.910156 135.800781 269.777344 C 136.847656 269.238281 137.964844 268.632812 139.03125 267.875 C 139.90625 267.246094 140.742188 266.515625 141.554688 265.804688 C 142.628906 264.867188 143.742188 263.898438 144.960938 263.152344 C 146.023438 262.5 146.929688 262.046875 147.738281 261.761719 C 148.507812 261.488281 149.214844 261.527344 149.964844 261.570312 C 150.289062 261.585938 150.621094 261.605469 150.957031 261.597656 C 152.21875 261.566406 153.105469 261.285156 153.914062 260.652344 C 154.214844 260.417969 154.507812 260.167969 154.792969 259.921875 C 155.363281 259.429688 155.949219 258.921875 156.632812 258.539062 C 156.699219 258.5 156.773438 258.464844 156.855469 258.421875 C 157.167969 258.273438 157.558594 258.085938 157.582031 257.765625 C 157.597656 257.601562 157.566406 257.488281 157.488281 257.429688 C 157.378906 257.34375 157.160156 257.34375 156.890625 257.433594 C 156.621094 257.523438 156.335938 257.765625 156.082031 257.984375 C 155.96875 258.078125 155.859375 258.171875 155.761719 258.246094 L 155.710938 258.277344 C 155.144531 258.699219 154.554688 259.136719 154 259.597656 L 153.917969 259.664062 C 153.117188 260.335938 152.484375 260.867188 151.371094 260.894531 C 150.996094 260.902344 150.625 260.890625 150.265625 260.871094 C 149.4375 260.835938 148.652344 260.804688 147.835938 261.066406 C 147.28125 261.246094 146.734375 261.484375 146.203125 261.714844 C 145.683594 261.941406 145.148438 262.171875 144.601562 262.351562 C 144.355469 262.433594 144.113281 262.464844 143.875 262.492188 C 143.710938 262.515625 143.542969 262.535156 143.378906 262.574219 C 142.875 262.6875 142.601562 262.941406 142.21875 263.289062 L 142.140625 263.359375 C 141.800781 263.667969 141.464844 263.980469 141.128906 264.292969 C 140.449219 264.921875 139.746094 265.574219 139.03125 266.1875 L 138.757812 266.421875 C 137.863281 267.191406 136.753906 268.152344 135.6875 268.453125 L 135.527344 268.496094 L 135.546875 268.335938 C 135.675781 267.3125 136.414062 266.191406 137.066406 265.203125 C 137.226562 264.960938 137.378906 264.730469 137.507812 264.515625 C 138.078125 263.59375 138.734375 262.46875 139.253906 261.136719 C 139.925781 259.417969 141.023438 255.902344 140.371094 254.890625 C 140.261719 254.71875 140.101562 254.632812 139.894531 254.621094 C 139.527344 254.601562 139.410156 255.222656 139.300781 255.820312 C 139.21875 256.25 139.144531 256.65625 138.96875 256.878906 C 138.703125 257.214844 138.367188 257.296875 138.039062 257.378906 C 137.792969 257.4375 137.5625 257.492188 137.359375 257.648438 C 137.078125 257.871094 136.964844 258.167969 136.835938 258.511719 L 136.773438 258.683594 C 136.34375 259.824219 135.898438 261.007812 135.5 262.160156 C 135.226562 262.96875 135.324219 263.558594 135.433594 264.242188 C 135.472656 264.492188 135.519531 264.75 135.546875 265.039062 C 135.636719 265.933594 135.402344 266.796875 134.824219 267.679688 C 134.640625 267.960938 134.429688 268.230469 134.222656 268.488281 C 134.042969 268.714844 133.859375 268.949219 133.695312 269.1875 C 133.601562 269.328125 133.515625 269.464844 133.429688 269.605469 C 133.203125 269.976562 132.964844 270.359375 132.621094 270.65625 C 131.929688 271.261719 130.964844 271.632812 130.03125 271.988281 C 129.683594 272.121094 129.355469 272.246094 129.050781 272.382812 L 128.324219 272.699219 C 127.292969 273.15625 126.222656 273.625 125.183594 274.109375 C 123.375 274.953125 121.605469 275.953125 119.894531 276.921875 C 119.320312 277.246094 118.75 277.570312 118.175781 277.886719 L 116.835938 278.628906 C 116.050781 279.058594 115.265625 279.492188 114.484375 279.929688 C 114.339844 280.011719 114.191406 280.09375 114.042969 280.175781 C 113.675781 280.378906 113.296875 280.585938 112.933594 280.804688 C 112.722656 280.933594 112.515625 281.09375 112.316406 281.246094 C 112.007812 281.484375 111.6875 281.730469 111.324219 281.886719 L 111.214844 281.933594 L 111.175781 281.820312 C 111.019531 281.335938 111.480469 280.554688 111.851562 279.929688 C 111.96875 279.730469 112.070312 279.558594 112.132812 279.425781 C 112.527344 278.605469 112.835938 277.78125 113.195312 276.792969 C 114.035156 274.492188 114.746094 272.726562 115.511719 271.066406 C 116.367188 269.210938 117.0625 267.386719 117.570312 265.65625 C 117.648438 265.386719 117.714844 265.09375 117.78125 264.789062 C 117.933594 264.09375 118.089844 263.375 118.441406 262.816406 C 118.773438 262.289062 119.367188 262.019531 119.9375 261.757812 C 120.171875 261.652344 120.394531 261.550781 120.59375 261.433594 C 122.074219 260.566406 123.625 259.777344 125.125 259.015625 C 126.871094 258.128906 128.671875 257.210938 130.375 256.171875 C 131 255.789062 131.652344 255.421875 132.28125 255.070312 C 133.253906 254.527344 134.257812 253.964844 135.1875 253.324219 C 136.117188 252.683594 137.046875 251.992188 137.941406 251.324219 C 138.433594 250.957031 138.925781 250.589844 139.417969 250.230469 C 140.789062 249.230469 142.195312 248.101562 143.84375 246.675781 C 145.3125 245.402344 146.125 244.289062 146.839844 242.566406 L 147.050781 242.050781 C 147.636719 240.625 148.1875 239.277344 149.117188 238.050781 C 150.105469 236.742188 151.300781 235.222656 152.632812 233.84375 L 152.851562 233.613281 C 153.460938 232.980469 154.214844 232.1875 155.023438 231.910156 C 155.382812 231.785156 155.773438 231.730469 156.15625 231.675781 C 156.539062 231.625 156.933594 231.570312 157.300781 231.441406 C 157.792969 231.269531 158.269531 231.042969 158.730469 230.828125 C 158.972656 230.710938 159.214844 230.597656 159.460938 230.492188 C 159.957031 230.273438 160.355469 230.28125 160.816406 230.289062 C 160.945312 230.292969 161.082031 230.296875 161.234375 230.292969 C 161.519531 230.292969 161.828125 230.300781 162.15625 230.3125 C 162.953125 230.332031 163.859375 230.359375 164.558594 230.1875 C 164.933594 230.09375 165.039062 229.90625 165.1875 229.648438 C 165.265625 229.503906 165.359375 229.347656 165.507812 229.179688 C 166.03125 228.582031 166.765625 228.253906 167.472656 227.925781 C 168.265625 227.558594 169.085938 227.175781 169.609375 226.453125 C 169.871094 226.085938 169.976562 225.71875 169.863281 225.535156 C 169.761719 225.378906 169.496094 225.386719 169.292969 225.421875 C 168.855469 225.5 168.429688 225.710938 168.019531 225.917969 C 167.796875 226.027344 167.570312 226.140625 167.34375 226.230469 C 166.457031 226.585938 165.53125 226.605469 164.640625 226.625 C 164.070312 226.636719 163.484375 226.648438 162.910156 226.75 C 161.46875 227 160.332031 227.738281 159.445312 229 C 159.070312 229.527344 158.683594 230.078125 158.027344 230.4375 C 157.523438 230.714844 156.417969 231.148438 155.839844 230.800781 L 155.769531 230.757812 L 155.789062 230.679688 C 155.996094 229.957031 156.695312 229.191406 157.253906 228.578125 C 157.339844 228.488281 157.421875 228.398438 157.5 228.3125 C 158.027344 227.722656 158.621094 227.167969 159.257812 226.671875 C 160.304688 225.855469 161.425781 225.101562 162.507812 224.371094 C 162.820312 224.160156 163.136719 223.949219 163.449219 223.738281 C 164.546875 222.988281 165.699219 222.285156 166.816406 221.605469 C 168.375 220.65625 169.992188 219.671875 171.472656 218.550781 C 173.183594 217.257812 174.753906 215.75 176.277344 214.289062 C 176.929688 213.664062 177.605469 213.015625 178.28125 212.390625 C 178.570312 212.128906 178.855469 211.855469 179.140625 211.582031 C 179.902344 210.859375 180.6875 210.109375 181.542969 209.488281 C 182.054688 209.113281 182.597656 208.773438 183.125 208.445312 C 183.75 208.050781 184.398438 207.648438 184.992188 207.183594 C 188.734375 204.277344 192.410156 201.125 195.960938 198.074219 C 196.875 197.289062 197.785156 196.507812 198.699219 195.726562 C 199.15625 195.335938 199.601562 194.941406 200.050781 194.542969 C 201.636719 193.136719 203.277344 191.683594 205.25 190.660156 L 205.460938 190.546875 C 206.425781 190.042969 207.519531 189.472656 208.621094 189.695312 C 209.03125 189.777344 209.429688 189.875 209.820312 189.972656 C 210.671875 190.179688 211.476562 190.378906 212.375 190.425781 C 215.292969 190.585938 218.078125 190.5 220.652344 190.164062 L 220.953125 190.125 C 222.15625 189.96875 223.402344 189.804688 224.632812 189.949219 C 225.183594 190.011719 225.757812 190.148438 226.496094 190.386719 C 226.695312 190.453125 226.910156 190.542969 227.136719 190.640625 C 227.605469 190.84375 228.089844 191.050781 228.519531 191.042969 C 228.617188 190.945312 228.601562 190.878906 228.597656 190.859375 C 228.542969 190.617188 227.996094 190.351562 226.96875 190.058594 C 226.898438 190.042969 226.847656 190.027344 226.824219 190.015625 C 226.664062 189.964844 226.503906 189.90625 226.339844 189.847656 C 225.605469 189.589844 224.847656 189.320312 224.082031 189.257812 C 223.074219 189.179688 222.039062 189.316406 221.039062 189.449219 C 220.515625 189.519531 219.972656 189.589844 219.445312 189.628906 C 219.015625 189.664062 218.585938 189.640625 218.171875 189.621094 C 217.789062 189.601562 217.394531 189.585938 217.011719 189.609375 C 216.632812 189.628906 216.253906 189.703125 215.886719 189.773438 C 215.484375 189.851562 215.0625 189.933594 214.632812 189.949219 L 214.421875 189.957031 C 212.972656 190.019531 210.78125 190.109375 209.652344 189.273438 L 209.597656 189.230469 L 209.609375 189.164062 C 209.6875 188.75 210.3125 188.496094 210.8125 188.292969 C 210.980469 188.226562 211.136719 188.164062 211.238281 188.105469 C 211.902344 187.734375 212.554688 187.308594 213.101562 186.941406 L 214.105469 186.277344 C 214.832031 185.792969 215.558594 185.308594 216.28125 184.816406 C 216.359375 184.765625 216.441406 184.703125 216.523438 184.636719 C 216.726562 184.476562 216.941406 184.308594 217.171875 184.238281 C 217.488281 184.136719 217.667969 184.199219 217.851562 184.269531 C 217.949219 184.300781 218.046875 184.339844 218.179688 184.359375 C 218.863281 184.457031 219.785156 184.066406 220.601562 183.722656 C 220.90625 183.59375 221.195312 183.46875 221.457031 183.378906 C 224.449219 182.347656 226.933594 180.875 229.171875 179.4375 C 229.816406 179.023438 230.464844 178.617188 231.113281 178.210938 C 231.683594 177.855469 232.25 177.5 232.816406 177.136719 C 234.117188 176.304688 234.707031 176.804688 235.632812 177.761719 C 235.984375 178.128906 236.265625 178.546875 236.535156 178.953125 C 236.917969 179.527344 237.277344 180.066406 237.824219 180.472656 C 238.691406 181.113281 239.703125 181.238281 240.777344 181.371094 C 240.960938 181.394531 241.144531 181.417969 241.324219 181.441406 C 241.453125 181.460938 241.601562 181.476562 241.753906 181.488281 C 242.257812 181.539062 242.828125 181.59375 243.230469 181.824219 C 243.632812 182.058594 243.71875 182.34375 243.800781 182.621094 C 243.847656 182.777344 243.890625 182.9375 243.996094 183.101562 C 244.171875 183.386719 244.375 183.507812 244.566406 183.441406 C 244.8125 183.351562 245.042969 182.941406 244.988281 182.464844 C 244.929688 181.941406 244.097656 180.894531 243.691406 180.648438 C 243.476562 180.519531 243.257812 180.40625 243.042969 180.292969 C 242.632812 180.074219 242.207031 179.851562 241.816406 179.527344 C 241.5625 179.316406 241.359375 179.066406 241.160156 178.828125 C 241.03125 178.671875 240.898438 178.507812 240.753906 178.359375 C 240.140625 177.730469 239.128906 177.527344 238.234375 177.347656 L 237.976562 177.296875 C 237.902344 177.28125 237.800781 177.261719 237.671875 177.238281 C 236.25 176.992188 234.9375 176.667969 234.957031 175.984375 L 234.957031 175.933594 L 235 175.902344 C 236.082031 175.085938 237.675781 174.578125 238.957031 174.171875 L 239.199219 174.09375 C 240.558594 173.660156 242.019531 173.210938 243.492188 172.898438 C 243.902344 172.808594 244.324219 172.738281 244.734375 172.671875 C 245.707031 172.507812 246.710938 172.34375 247.617188 171.921875 C 248.199219 171.65625 248.761719 171.339844 249.308594 171.035156 C 249.96875 170.664062 250.65625 170.285156 251.375 169.980469 C 252.050781 169.691406 252.722656 169.402344 253.398438 169.109375 C 255.464844 168.21875 257.605469 167.296875 259.757812 166.503906 C 260.230469 166.332031 260.746094 166.1875 261.246094 166.050781 C 262.054688 165.824219 262.890625 165.597656 263.589844 165.226562 C 263.996094 165.011719 264.09375 164.796875 264.234375 164.496094 C 264.300781 164.347656 264.375 164.179688 264.503906 163.992188 C 264.5625 163.90625 264.691406 163.792969 264.84375 163.664062 C 264.9375 163.582031 265.1875 163.371094 265.28125 163.238281 C 264.617188 163.492188 263.996094 163.875 263.390625 164.246094 C 262.6875 164.675781 261.957031 165.121094 261.148438 165.386719 C 260.710938 165.53125 260.265625 165.664062 259.828125 165.800781 C 258.875 166.09375 257.898438 166.394531 256.953125 166.777344 C 255.765625 167.261719 254.574219 167.808594 253.425781 168.339844 C 253.039062 168.519531 252.648438 168.699219 252.257812 168.875 C 251.933594 169.023438 251.585938 169.203125 251.21875 169.394531 C 250.296875 169.875 249.347656 170.375 248.445312 170.507812 L 248.390625 170.519531 L 248.351562 170.476562 C 248.320312 170.445312 248.285156 170.390625 248.285156 170.304688 C 248.289062 169.867188 249.300781 168.828125 250.394531 167.769531 C 250.511719 167.652344 250.601562 167.566406 250.648438 167.519531 C 251.363281 166.78125 252.277344 165.980469 253.613281 165.640625 C 253.707031 165.617188 253.800781 165.59375 253.894531 165.574219 C 254.234375 165.5 254.585938 165.421875 254.851562 165.207031 C 255.183594 164.933594 255.257812 164.609375 255.339844 164.238281 C 255.378906 164.074219 255.417969 163.90625 255.480469 163.730469 C 255.753906 162.953125 256.199219 162.183594 256.625 161.4375 C 256.804688 161.128906 256.976562 160.824219 257.136719 160.527344 C 257.265625 160.285156 257.410156 160.046875 257.566406 159.792969 C 258.0625 158.988281 258.578125 158.15625 258.488281 157.265625 C 258.460938 156.96875 258.28125 156.484375 258.039062 156.378906 C 257.9375 156.335938 257.828125 156.363281 257.703125 156.460938 C 257.605469 156.539062 257.566406 156.761719 257.53125 156.980469 C 257.492188 157.222656 257.449219 157.472656 257.320312 157.636719 C 257.105469 157.90625 256.804688 158.101562 256.507812 158.292969 C 256.289062 158.4375 256.082031 158.570312 255.910156 158.734375 C 255.585938 159.035156 255.335938 159.398438 255.089844 159.746094 C 254.910156 160 254.726562 160.265625 254.511719 160.507812 C 253.988281 161.117188 253.386719 161.347656 252.753906 161.597656 C 252.394531 161.738281 252.023438 161.878906 251.664062 162.097656 C 250.519531 162.796875 249.929688 163.605469 249.757812 164.726562 C 249.722656 164.957031 249.691406 165.1875 249.664062 165.417969 C 249.535156 166.382812 249.402344 167.382812 248.941406 168.296875 C 248.746094 168.683594 248.488281 168.984375 248.21875 169.300781 L 248.089844 169.449219 C 247.769531 169.828125 247.660156 170.09375 247.507812 170.457031 C 247.460938 170.578125 247.40625 170.710938 247.339844 170.855469 C 246.917969 171.789062 245.785156 171.960938 244.789062 172.109375 C 244.457031 172.160156 244.144531 172.207031 243.867188 172.277344 C 242.976562 172.503906 242.066406 172.695312 241.1875 172.882812 L 240.484375 173.03125 C 239.710938 173.199219 238.964844 173.46875 238.246094 173.730469 C 237.730469 173.917969 237.199219 174.113281 236.65625 174.269531 C 235.507812 174.597656 234.367188 175.007812 233.257812 175.40625 L 232.632812 175.628906 C 232.046875 175.835938 231.441406 176.050781 230.859375 176.289062 C 230.601562 176.390625 230.339844 176.53125 230.089844 176.664062 C 229.683594 176.882812 229.265625 177.105469 228.820312 177.207031 L 228.695312 177.234375 L 228.6875 177.109375 C 228.632812 176.457031 229.566406 175.804688 230.1875 175.375 C 230.3125 175.289062 230.421875 175.210938 230.5 175.148438 C 230.683594 175.007812 230.871094 174.867188 231.058594 174.722656 C 231.589844 174.324219 232.136719 173.910156 232.625 173.453125 C 233.183594 172.929688 233.660156 172.304688 234.121094 171.699219 C 234.21875 171.574219 234.3125 171.449219 234.40625 171.328125 C 234.492188 171.214844 234.605469 171.085938 234.730469 170.945312 C 235.125 170.492188 235.617188 169.933594 235.640625 169.4375 C 235.097656 169.523438 233.386719 171.519531 232.457031 172.597656 C 232.082031 173.039062 231.785156 173.386719 231.652344 173.511719 C 231.125 174.007812 230.566406 174.445312 230.027344 174.863281 C 229.027344 175.640625 228.082031 176.375 227.351562 177.480469 C 226.433594 178.875 224.726562 179.824219 223.222656 180.660156 C 223.035156 180.765625 222.855469 180.867188 222.679688 180.964844 C 221.808594 181.457031 220.882812 181.976562 219.9375 182.429688 C 219.800781 182.496094 219.644531 182.578125 219.480469 182.664062 C 218.875 182.984375 218.117188 183.382812 217.515625 183.375 L 217.394531 183.371094 L 217.410156 183.25 C 217.464844 182.789062 217.714844 182.339844 217.960938 181.910156 C 218.054688 181.746094 218.144531 181.582031 218.21875 181.429688 C 218.425781 181.007812 218.628906 180.582031 218.835938 180.15625 L 219.066406 179.679688 C 219.484375 178.8125 219.96875 177.972656 220.4375 177.164062 C 220.65625 176.777344 220.882812 176.390625 221.097656 176 C 222.40625 173.640625 223.230469 170.9375 224.023438 168.324219 L 224.171875 167.832031 C 224.347656 167.257812 224.535156 166.691406 224.71875 166.140625 C 225.363281 164.195312 225.976562 162.359375 226.003906 160.28125 C 226.042969 157.746094 228.105469 155.890625 230.121094 154.40625 C 232.554688 152.621094 235.003906 151.171875 237.210938 150.226562 C 238.394531 149.71875 238.851562 149.257812 239.25 148.179688 C 239.667969 147.035156 240.082031 145.886719 240.492188 144.738281 L 240.875 143.675781 C 240.894531 143.613281 240.925781 143.542969 240.960938 143.46875 C 241.074219 143.207031 241.230469 142.851562 241.078125 142.679688 C 241 142.59375 240.921875 142.550781 240.832031 142.554688 C 240.539062 142.570312 240.191406 143.058594 240.027344 143.292969 C 240 143.335938 239.972656 143.371094 239.949219 143.398438 C 238.996094 144.671875 238.046875 145.261719 236.726562 145.851562 C 235.792969 146.269531 235.242188 147.03125 234.65625 147.835938 L 234.476562 148.085938 C 234.292969 148.335938 234.125 148.605469 233.960938 148.863281 C 233.792969 149.128906 233.621094 149.402344 233.429688 149.660156 C 233.367188 149.742188 233.289062 149.832031 233.207031 149.921875 C 232.976562 150.175781 232.738281 150.445312 232.804688 150.738281 C 232.960938 150.679688 233.117188 150.617188 233.269531 150.550781 L 233.433594 150.480469 L 233.421875 150.65625 C 233.371094 151.582031 232.40625 152.167969 231.699219 152.597656 C 231.621094 152.644531 231.542969 152.691406 231.46875 152.738281 C 231.089844 152.976562 230.699219 153.269531 230.324219 153.554688 C 229.75 153.996094 229.148438 154.449219 228.515625 154.75 L 228.449219 154.78125 L 228.394531 154.730469 C 228.019531 154.375 228.210938 153.394531 228.335938 152.746094 C 228.359375 152.636719 228.375 152.539062 228.390625 152.457031 C 228.539062 151.535156 228.761719 150.710938 229.070312 149.9375 C 229.621094 148.539062 230.394531 147.1875 231.140625 145.878906 C 231.429688 145.378906 231.714844 144.878906 231.984375 144.378906 C 232.273438 143.855469 232.613281 143.324219 232.941406 142.816406 C 233.589844 141.8125 234.257812 140.777344 234.582031 139.671875 C 235.058594 138.050781 235.527344 136.234375 236.015625 134.125 C 236.320312 132.808594 236.464844 131.398438 236.484375 129.558594 C 236.5 128.257812 236.765625 126.957031 237.019531 125.699219 C 237.082031 125.40625 237.140625 125.113281 237.199219 124.820312 C 237.28125 124.394531 237.328125 123.933594 237.375 123.492188 C 237.488281 122.4375 237.605469 121.351562 238.167969 120.441406 C 238.878906 119.300781 240.121094 118.652344 241.320312 118.03125 C 241.519531 117.929688 241.714844 117.828125 241.902344 117.726562 C 242.109375 117.613281 242.320312 117.503906 242.53125 117.390625 C 243.773438 116.730469 245.0625 116.050781 246.109375 115.097656 C 246.546875 114.699219 246.894531 114.25 247.261719 113.769531 C 247.425781 113.554688 247.589844 113.339844 247.765625 113.128906 C 248.304688 112.480469 248.933594 111.90625 249.539062 111.351562 L 249.667969 111.234375 C 250.367188 110.59375 251.085938 109.902344 251.800781 109.183594 C 251.902344 109.082031 252 108.972656 252.101562 108.859375 C 252.457031 108.472656 252.851562 108.035156 253.363281 107.878906 C 253.761719 107.757812 254.199219 107.777344 254.621094 107.792969 C 254.914062 107.804688 255.1875 107.816406 255.449219 107.789062 C 255.988281 107.726562 256.539062 107.613281 257.070312 107.507812 C 257.289062 107.464844 257.503906 107.421875 257.722656 107.382812 C 258.394531 107.253906 259.089844 107.160156 259.753906 107.070312 C 260.589844 106.957031 261.453125 106.839844 262.285156 106.660156 C 262.683594 106.574219 263.074219 106.453125 263.457031 106.335938 C 263.746094 106.246094 264.050781 106.152344 264.355469 106.074219 C 264.53125 106.027344 264.703125 105.996094 264.875 105.960938 C 265.328125 105.871094 265.753906 105.785156 266.160156 105.527344 C 266.882812 105.070312 267.367188 104.335938 267.832031 103.628906 C 268.226562 103.023438 268.640625 102.402344 269.199219 101.933594 C 269.253906 101.886719 269.328125 101.835938 269.40625 101.777344 C 269.644531 101.605469 270.003906 101.34375 269.984375 101.144531 C 269.972656 101.027344 269.8125 100.929688 269.679688 100.867188 C 269.410156 100.742188 269.3125 100.820312 269.050781 101.019531 L 268.957031 101.089844 C 268.660156 101.3125 268.382812 101.578125 268.117188 101.832031 C 267.777344 102.160156 267.425781 102.5 267.015625 102.761719 C 266.636719 103.003906 266.21875 103.164062 265.8125 103.320312 C 265.550781 103.417969 265.277344 103.523438 265.027344 103.644531 C 264.945312 103.6875 264.867188 103.726562 264.792969 103.761719 C 264.34375 103.996094 263.984375 104.179688 263.402344 104.019531 C 263.3125 103.992188 263.226562 103.96875 263.152344 103.945312 C 262.65625 103.800781 262.492188 103.75 261.863281 103.960938 C 260.953125 104.265625 260.128906 104.613281 259.421875 104.992188 C 258.832031 105.304688 258.632812 105.621094 258.308594 106.148438 L 258.230469 106.269531 C 257.847656 106.886719 257.441406 106.941406 256.828125 107.019531 C 256.710938 107.035156 256.585938 107.050781 256.449219 107.074219 C 256.367188 107.085938 256.28125 107.101562 256.1875 107.121094 C 255.617188 107.222656 254.832031 107.367188 254.375 107.042969 L 254.304688 106.996094 L 254.332031 106.917969 C 254.527344 106.367188 255.058594 105.816406 255.523438 105.339844 C 255.679688 105.175781 255.832031 105.015625 255.960938 104.871094 C 256.5 104.253906 257.074219 103.65625 257.632812 103.078125 L 257.910156 102.792969 C 258.960938 101.695312 260.023438 100.609375 261.089844 99.519531 L 261.683594 98.910156 C 262.109375 98.476562 262.535156 98.050781 262.957031 97.625 C 265.089844 95.496094 267.101562 93.480469 268.519531 90.769531 C 268.976562 89.890625 269.425781 88.960938 269.859375 88.0625 C 270.867188 85.957031 271.914062 83.78125 273.269531 81.910156 C 274.5 80.199219 276.238281 78.804688 277.914062 77.453125 C 278.753906 76.777344 279.625 76.074219 280.402344 75.355469 C 281.054688 74.753906 281.632812 74.269531 282.332031 73.878906 C 282.726562 73.65625 282.777344 73.558594 282.871094 73.363281 C 282.929688 73.25 282.996094 73.113281 283.140625 72.921875 C 283.3125 72.6875 283.574219 72.492188 283.828125 72.304688 C 284.019531 72.164062 284.210938 72.019531 284.359375 71.867188 C 284.507812 71.707031 284.660156 71.550781 284.808594 71.394531 C 285.222656 70.964844 285.644531 70.519531 286.046875 70.074219 C 286.832031 69.191406 287.195312 68.125 287.582031 67 C 287.722656 66.59375 287.867188 66.175781 288.027344 65.769531 C 288.230469 65.273438 288.464844 64.792969 288.695312 64.324219 C 289.039062 63.628906 289.394531 62.910156 289.621094 62.152344 C 289.980469 60.964844 289.960938 59.828125 289.945312 58.621094 L 289.941406 58.253906 C 289.921875 57.164062 289.898438 55.515625 290.8125 54.777344 C 291.421875 54.285156 292.132812 54.28125 292.816406 54.28125 C 293.367188 54.277344 293.882812 54.277344 294.363281 54.046875 C 295.570312 53.464844 296.816406 52.535156 297.871094 51.425781 C 297.878906 51.421875 297.882812 51.414062 297.890625 51.40625 C 298.390625 50.878906 298.863281 50.253906 299.375 49.445312 C 299.414062 49.386719 299.472656 49.300781 299.550781 49.195312 C 299.789062 48.855469 300.433594 47.960938 300.28125 47.710938 C 300.148438 47.484375 299.476562 47.453125 297.050781 48.566406 L 296.886719 48.640625 C 295.355469 49.328125 294.25 50.472656 293.6875 51.953125 C 293.648438 52.058594 293.613281 52.160156 293.578125 52.261719 C 293.402344 52.769531 293.238281 53.246094 292.695312 53.53125 C 292.25 53.765625 291.351562 53.867188 290.886719 53.738281 L 290.808594 53.714844 L 290.804688 53.632812 C 290.792969 53.242188 291.074219 52.761719 291.324219 52.335938 C 291.449219 52.117188 291.570312 51.910156 291.636719 51.742188 C 291.882812 51.109375 292.019531 50.417969 292.148438 49.753906 L 292.207031 49.464844 C 292.292969 49.039062 292.367188 48.609375 292.441406 48.179688 C 292.632812 47.085938 292.832031 45.957031 293.21875 44.875 C 293.695312 43.542969 294.4375 42.488281 295.21875 41.371094 C 295.355469 41.175781 295.492188 40.980469 295.632812 40.78125 Z M 284.199219 59.53125 L 284.128906 59.414062 C 283.738281 58.726562 283.335938 58.011719 283.03125 57.269531 C 282.820312 56.753906 282.71875 56.171875 282.742188 55.636719 C 282.769531 55.046875 282.871094 54.453125 282.96875 53.878906 C 283.011719 53.632812 283.050781 53.390625 283.085938 53.144531 L 283.101562 53.050781 L 283.496094 53.046875 L 283.53125 53.121094 C 283.664062 53.515625 283.847656 53.898438 284.023438 54.265625 C 284.363281 54.980469 284.714844 55.71875 284.765625 56.589844 C 284.789062 57.050781 285.027344 57.519531 285.257812 57.972656 C 285.339844 58.136719 285.425781 58.300781 285.496094 58.464844 C 285.753906 59.039062 286.046875 59.6875 285.808594 60.4375 L 285.78125 60.519531 L 285.695312 60.511719 C 285.042969 60.464844 284.539062 60.136719 284.199219 59.53125 Z M 261.015625 92.636719 C 260.9375 92.480469 260.875 92.339844 260.8125 92.210938 C 260.695312 91.964844 260.605469 91.769531 260.5 91.578125 C 259.957031 90.59375 259.714844 89.597656 259.734375 88.4375 C 259.761719 87.085938 259.785156 85.695312 260.46875 84.355469 C 260.601562 84.09375 260.597656 83.757812 260.597656 83.402344 C 260.597656 83.230469 260.597656 83.050781 260.613281 82.878906 C 260.621094 82.785156 260.652344 82.695312 260.679688 82.609375 C 260.6875 82.574219 260.699219 82.539062 260.710938 82.503906 L 260.785156 82.226562 L 260.914062 82.484375 C 261.398438 83.457031 261.53125 84.371094 261.320312 85.285156 C 261.28125 85.449219 261.242188 85.613281 261.199219 85.777344 C 260.988281 86.617188 260.769531 87.488281 260.992188 88.378906 C 261.082031 88.726562 261.167969 89.070312 261.269531 89.402344 C 261.558594 90.332031 261.882812 91.386719 261.210938 92.640625 L 261.109375 92.828125 Z M 236.355469 98.8125 C 236.085938 97.839844 235.839844 96.847656 235.597656 95.886719 L 235.40625 95.121094 C 235.285156 94.644531 235.167969 94.167969 235.050781 93.691406 C 234.933594 93.214844 234.816406 92.738281 234.695312 92.261719 C 234.660156 92.121094 234.609375 91.980469 234.558594 91.84375 C 234.539062 91.777344 234.515625 91.714844 234.492188 91.648438 L 234.453125 91.53125 L 235.074219 91.410156 L 235.503906 92.070312 C 235.910156 92.691406 236.320312 93.3125 236.71875 93.941406 C 236.8125 94.089844 236.867188 94.265625 236.863281 94.417969 C 236.808594 96.125 237.1875 97.785156 237.609375 99.480469 C 237.621094 99.527344 237.636719 99.578125 237.652344 99.625 C 237.695312 99.757812 237.742188 99.894531 237.722656 100.042969 L 237.707031 100.191406 L 237.570312 100.128906 C 236.726562 99.761719 236.570312 99.585938 236.355469 98.8125 Z M 237.984375 111.390625 C 237.910156 109.65625 238.160156 108.308594 238.804688 107.015625 L 238.90625 106.808594 L 239 107.019531 C 239.429688 107.964844 239.035156 110.117188 238.1875 111.445312 L 238 111.734375 Z M 200.308594 188.628906 C 200.222656 188.359375 200.140625 188.097656 200.058594 187.851562 C 199.839844 187.171875 199.652344 186.585938 199.488281 185.976562 C 199.425781 185.753906 199.527344 185.453125 199.65625 185.285156 C 200.425781 184.25 200.652344 183.007812 200.871094 181.808594 C 200.921875 181.527344 200.972656 181.246094 201.03125 180.96875 C 201.167969 180.308594 201.390625 179.785156 202.035156 179.375 L 202.234375 179.246094 L 202.199219 179.480469 C 201.984375 180.945312 201.820312 182.371094 202.242188 183.753906 C 202.417969 184.320312 202.386719 184.886719 202.152344 185.441406 C 201.675781 186.570312 201.152344 187.589844 200.503906 188.652344 L 200.378906 188.859375 Z M 174.941406 209.433594 C 174.539062 208.414062 174.617188 208.105469 175.441406 207.488281 L 175.519531 207.425781 L 175.53125 207.441406 C 175.6875 207.261719 176.054688 206.589844 176.113281 206.367188 L 176.097656 206.339844 C 176.089844 206.324219 176.082031 206.308594 176.070312 206.292969 C 176.035156 206.238281 175.992188 206.171875 176.007812 206.09375 C 176.035156 205.957031 176.058594 205.8125 176.082031 205.671875 C 176.144531 205.296875 176.207031 204.914062 176.359375 204.566406 C 176.609375 203.992188 177.050781 203.175781 177.957031 202.710938 C 178.675781 202.34375 179.363281 201.953125 180.089844 201.542969 C 180.394531 201.367188 180.703125 201.191406 181.011719 201.015625 L 181.144531 200.945312 L 181.171875 201.089844 C 181.359375 201.949219 180.890625 202.488281 180.433594 203.011719 L 180.324219 203.140625 C 179.96875 203.554688 179.601562 204.015625 179.160156 204.597656 C 178.972656 204.847656 178.800781 205.101562 178.617188 205.375 C 178.550781 205.476562 178.480469 205.578125 178.410156 205.679688 C 178.550781 205.882812 178.609375 206.140625 178.574219 206.40625 C 178.542969 206.671875 178.414062 206.933594 178.214844 207.144531 C 178.152344 207.210938 178.082031 207.269531 178.007812 207.324219 C 177.476562 207.714844 176.925781 208.09375 176.390625 208.460938 C 176.152344 208.625 175.914062 208.789062 175.675781 208.953125 L 175.554688 209.035156 L 175.523438 208.9375 C 175.429688 208.980469 175.21875 209.175781 175.148438 209.421875 L 175.058594 209.730469 Z M 124.664062 250.144531 C 124.699219 249.324219 124.730469 248.574219 124.773438 247.824219 C 124.828125 246.890625 125.464844 246.355469 126.082031 245.835938 L 126.199219 245.738281 C 126.457031 245.519531 126.730469 245.324219 126.96875 245.148438 C 127.070312 245.078125 127.167969 245.007812 127.257812 244.9375 L 127.410156 244.828125 L 127.433594 245.011719 C 127.449219 245.132812 127.464844 245.257812 127.488281 245.386719 C 127.53125 245.695312 127.582031 246.042969 127.605469 246.386719 C 127.664062 247.246094 127.660156 248.011719 127.011719 248.699219 C 126.972656 248.734375 126.9375 248.773438 126.898438 248.8125 C 126.417969 249.324219 125.980469 249.890625 125.515625 250.484375 C 125.289062 250.773438 125.054688 251.074219 124.808594 251.382812 L 124.597656 251.640625 Z M 136.199219 275.046875 L 136.152344 274.929688 L 136.277344 274.902344 C 137.722656 274.585938 139.566406 275.792969 140.664062 277.773438 L 140.734375 277.898438 L 140.589844 277.929688 C 138.183594 278.464844 137.238281 277.84375 136.199219 275.046875 Z M 136.398438 264.363281 C 135.957031 263.710938 135.910156 263.074219 136.253906 262.425781 C 136.792969 261.402344 137.167969 260.328125 137.398438 259.140625 C 137.488281 258.6875 137.636719 257.9375 138.574219 258.042969 C 138.6875 258.054688 138.84375 257.949219 139.011719 257.832031 C 139.105469 257.765625 139.214844 257.6875 139.332031 257.625 L 139.539062 257.511719 L 139.492188 257.742188 C 139.023438 259.996094 138.109375 261.945312 137.285156 263.597656 C 137.230469 263.707031 137.152344 263.804688 137.066406 263.898438 C 136.996094 263.972656 136.917969 264.042969 136.839844 264.117188 C 136.75 264.199219 136.660156 264.28125 136.570312 264.378906 L 136.476562 264.476562 Z M 122.640625 275.871094 L 123.730469 275.238281 L 123.949219 275.589844 L 122.855469 276.226562 Z M 121.703125 276.480469 L 121.175781 276.984375 C 119.171875 278.925781 117.183594 279.941406 114.921875 280.175781 L 114.335938 280.238281 Z M 111.402344 279.183594 C 110.445312 281.433594 109.457031 283.761719 108.082031 285.871094 C 107.460938 286.828125 106.957031 287.886719 106.472656 288.914062 C 106.234375 289.417969 105.984375 289.945312 105.726562 290.453125 C 105.351562 291.183594 104.980469 291.800781 104.589844 292.34375 L 104.378906 292.636719 L 104.652344 292.457031 L 103.46875 294.496094 C 103.464844 294.507812 103.464844 294.519531 103.464844 294.53125 L 103.464844 294.558594 L 103.449219 294.585938 C 103.445312 294.589844 103.441406 294.59375 103.441406 294.597656 C 103.453125 295.195312 103.140625 295.644531 102.839844 296.078125 C 102.660156 296.335938 102.472656 296.601562 102.367188 296.894531 C 102.078125 297.675781 101.503906 298.324219 100.886719 298.976562 C 100.882812 298.980469 100.878906 298.984375 100.875 298.988281 L 100.410156 299.480469 L 100.695312 298.867188 C 100.773438 298.699219 100.851562 298.527344 100.925781 298.351562 C 101.089844 297.972656 101.257812 297.578125 101.476562 297.21875 C 101.875 296.554688 102.3125 295.898438 102.734375 295.265625 C 102.894531 295.023438 103.058594 294.78125 103.21875 294.535156 C 103.21875 294.535156 103.21875 294.53125 103.21875 294.53125 L 103.214844 294.496094 L 103.253906 294.429688 C 103.320312 293.707031 103.644531 293.140625 104.21875 292.746094 L 104.398438 292.242188 C 106.023438 287.722656 108.40625 283.5 110.714844 279.414062 C 111.234375 278.492188 111.753906 277.570312 112.269531 276.644531 L 112.460938 276.742188 C 112.097656 277.550781 111.742188 278.378906 111.402344 279.183594 Z M 120.023438 261.183594 L 119.207031 261.734375 L 118.917969 261.359375 L 119.796875 260.84375 Z M 129.9375 255.972656 L 128.820312 256.558594 L 128.613281 256.160156 L 129.792969 255.585938 Z M 140.269531 248.925781 L 140.1875 248.996094 L 140.121094 248.910156 L 140.175781 249.003906 C 137.632812 251.101562 134.996094 253.265625 131.847656 254.597656 L 131.488281 254.75 L 131.71875 254.433594 C 132.378906 253.527344 133.332031 253.027344 134.253906 252.546875 C 134.785156 252.269531 135.335938 251.980469 135.820312 251.617188 C 136.757812 250.910156 137.726562 250.214844 138.664062 249.539062 C 139.082031 249.242188 139.496094 248.941406 139.914062 248.640625 L 139.996094 248.578125 Z M 160.203125 229.570312 C 161.132812 227.875 162.570312 227.527344 164.082031 227.292969 C 164.597656 227.210938 165.125 227.234375 165.679688 227.257812 C 165.941406 227.269531 166.203125 227.277344 166.476562 227.28125 L 166.808594 227.28125 L 166.398438 227.582031 C 166.289062 227.664062 166.191406 227.738281 166.089844 227.804688 C 166 227.863281 165.910156 227.917969 165.816406 227.976562 C 165.71875 228.035156 165.621094 228.09375 165.527344 228.15625 C 165.453125 228.203125 165.371094 228.25 165.292969 228.296875 C 165.117188 228.394531 164.933594 228.492188 164.875 228.625 C 164.492188 229.425781 163.804688 229.511719 163.136719 229.53125 C 162.523438 229.546875 161.902344 229.601562 161.246094 229.65625 C 160.945312 229.679688 160.632812 229.707031 160.308594 229.730469 L 160.105469 229.746094 Z M 177.046875 212.984375 C 176.339844 213.664062 175.664062 214.308594 174.992188 214.957031 C 172.90625 216.964844 171.179688 218.367188 169.398438 219.496094 C 169.007812 219.746094 168.601562 219.980469 168.207031 220.210938 C 167.910156 220.382812 167.613281 220.554688 167.316406 220.734375 C 165.964844 221.558594 164.519531 222.453125 162.894531 223.457031 C 162.796875 223.515625 162.710938 223.589844 162.613281 223.667969 C 162.472656 223.78125 162.328125 223.898438 162.15625 223.972656 C 160.367188 224.75 158.988281 226.0625 157.503906 227.570312 C 156.777344 228.304688 156.148438 229.171875 155.542969 230.003906 C 155.402344 230.199219 155.261719 230.390625 155.121094 230.582031 L 155.097656 230.609375 C 154.859375 230.941406 154.605469 231.28125 153.84375 231.265625 L 153.640625 231.261719 L 154.070312 230.648438 C 155.613281 228.441406 157.066406 226.355469 159.226562 224.867188 C 159.753906 224.503906 160.277344 224.132812 160.796875 223.761719 C 161.726562 223.097656 162.691406 222.414062 163.664062 221.789062 C 164.480469 221.265625 165.351562 220.816406 166.199219 220.375 C 166.488281 220.226562 166.777344 220.078125 167.066406 219.921875 C 169.480469 218.640625 171.417969 217.1875 173.011719 215.445312 C 173.855469 214.507812 174.886719 213.710938 175.777344 213.039062 C 176.207031 212.710938 176.699219 212.460938 177.21875 212.191406 C 177.464844 212.066406 177.722656 211.9375 177.988281 211.792969 L 178.71875 211.386719 Z M 190.839844 201.582031 C 188.703125 203.8125 186.238281 205.808594 183.308594 207.683594 L 182.5 208.199219 L 183.171875 207.515625 C 185.472656 205.15625 187.785156 202.914062 190.710938 201.40625 L 191.292969 201.109375 Z M 200.152344 193.691406 L 198.785156 195.140625 L 198.527344 194.890625 L 199.894531 193.445312 Z M 213.613281 186.0625 L 213.503906 186.132812 C 211.703125 187.261719 209.835938 188.429688 207.691406 188.96875 L 207.59375 188.992188 L 207.417969 188.503906 L 213.429688 185.679688 Z M 250.222656 166.535156 C 250.257812 166.316406 250.28125 166.097656 250.308594 165.878906 C 250.363281 165.390625 250.421875 164.886719 250.566406 164.410156 C 250.859375 163.445312 251.671875 162.71875 252.855469 162.367188 C 254.089844 161.996094 254.960938 161.277344 255.671875 160.03125 C 255.996094 159.46875 256.417969 158.925781 257.304688 158.777344 L 257.519531 158.738281 L 257.421875 158.933594 C 257.347656 159.078125 257.285156 159.222656 257.222656 159.355469 C 257.09375 159.632812 256.972656 159.894531 256.8125 160.128906 C 255.859375 161.523438 255.160156 163.003906 254.605469 164.269531 C 254.550781 164.398438 254.457031 164.539062 254.34375 164.660156 C 254.230469 164.78125 254.09375 164.878906 253.957031 164.925781 L 253.742188 164.996094 C 252.542969 165.382812 251.410156 165.75 250.582031 166.761719 L 250.511719 166.84375 L 250.214844 166.597656 Z M 236.902344 177.972656 L 236.882812 177.867188 L 236.988281 177.847656 C 237.734375 177.6875 238.320312 177.972656 238.882812 178.242188 C 239.21875 178.40625 239.539062 178.558594 239.882812 178.617188 C 240.027344 178.644531 240.144531 178.808594 240.191406 178.910156 C 240.515625 179.636719 241.125 180.058594 241.941406 180.472656 L 242.269531 180.636719 L 241.90625 180.679688 C 239.28125 180.96875 237.226562 179.855469 236.902344 177.972656 Z M 220.695312 182.816406 C 222.945312 181.71875 224.96875 180.472656 226.886719 179.007812 C 227.554688 178.496094 228.347656 178.136719 229.113281 177.789062 C 229.445312 177.640625 229.785156 177.484375 230.105469 177.324219 C 230.523438 177.113281 230.945312 176.910156 231.421875 176.675781 L 232.625 176.085938 L 232.277344 176.492188 C 232.242188 176.535156 232.199219 176.578125 232.15625 176.625 C 230.285156 178.605469 223.136719 182.640625 220.761719 183.023438 L 220.039062 183.140625 Z M 225.359375 160.207031 C 225.328125 162.042969 224.917969 163.492188 224.476562 164.777344 C 224.230469 165.5 223.996094 166.226562 223.761719 166.949219 C 223.425781 167.988281 223.078125 169.0625 222.703125 170.105469 C 222.539062 170.5625 222.382812 171.019531 222.226562 171.476562 C 221.546875 173.46875 220.84375 175.523438 219.535156 177.257812 C 218.972656 178.003906 218.632812 178.859375 218.300781 179.6875 C 218.0625 180.289062 217.816406 180.910156 217.484375 181.488281 C 217.242188 181.914062 217.03125 182.375 216.828125 182.820312 C 216.734375 183.027344 216.640625 183.234375 216.539062 183.4375 L 216.496094 183.53125 L 216.195312 183.40625 L 216.226562 183.308594 C 216.417969 182.753906 216.601562 182.195312 216.789062 181.632812 C 217.222656 180.320312 217.671875 178.960938 218.207031 177.664062 C 218.484375 176.996094 218.894531 176.378906 219.292969 175.78125 C 219.542969 175.410156 219.800781 175.027344 220.019531 174.632812 C 221.199219 172.53125 221.898438 170.199219 222.574219 167.941406 L 222.8125 167.148438 C 223.097656 166.199219 223.421875 165.242188 223.738281 164.320312 C 223.953125 163.6875 224.167969 163.058594 224.371094 162.429688 C 224.464844 162.132812 224.539062 161.820312 224.609375 161.519531 C 224.664062 161.292969 224.71875 161.066406 224.78125 160.839844 C 224.8125 160.730469 224.875 160.628906 224.964844 160.480469 C 225.015625 160.394531 225.078125 160.289062 225.152344 160.152344 L 225.367188 159.769531 Z M 234.394531 150.539062 C 234.421875 150.441406 234.457031 150.335938 234.492188 150.230469 C 234.566406 149.988281 234.65625 149.714844 234.722656 149.441406 C 235.347656 146.972656 237.515625 146.167969 239.425781 145.457031 L 240.125 145.199219 L 238.796875 146.203125 C 239.007812 146.917969 238.90625 147.730469 238.515625 148.449219 C 238.382812 148.691406 238.226562 148.910156 238.046875 149.09375 C 237.730469 149.433594 237.347656 149.671875 236.945312 149.773438 C 236.375 149.921875 235.816406 150.152344 235.273438 150.375 C 235.03125 150.476562 234.785156 150.578125 234.539062 150.671875 L 234.328125 150.75 Z M 227.757812 151.472656 C 227.757812 151.542969 227.753906 151.613281 227.753906 151.683594 C 227.75 151.835938 227.75 151.996094 227.726562 152.152344 L 227.652344 152.664062 C 227.539062 153.453125 227.421875 154.265625 227.269531 155.0625 C 227.164062 155.640625 226.957031 156.359375 226.320312 157.03125 C 226.1875 157.175781 226.03125 157.316406 225.851562 157.453125 L 225.660156 157.605469 L 225.675781 157.359375 C 225.839844 155.195312 226.4375 153.304688 227.554688 151.414062 L 227.777344 151.039062 Z M 231.601562 140.03125 L 231.546875 140.0625 C 231 140.398438 230.4375 140.234375 230.003906 139.609375 C 229.398438 138.738281 228.78125 137.789062 228.359375 136.757812 C 228.1875 136.335938 228.199219 135.863281 228.210938 135.3125 C 228.21875 135.054688 228.222656 134.789062 228.210938 134.503906 L 228.203125 134.320312 L 228.371094 134.40625 C 230.613281 135.554688 231.578125 137.21875 231.601562 139.96875 Z M 236.890625 121.644531 C 237.382812 122.203125 237.261719 122.738281 237.167969 123.167969 C 237.15625 123.234375 237.140625 123.296875 237.128906 123.363281 C 237.042969 123.820312 236.929688 124.28125 236.820312 124.726562 C 236.671875 125.332031 236.515625 125.953125 236.429688 126.574219 C 236.242188 127.917969 236.082031 129.226562 236.132812 130.5 C 236.210938 132.410156 235.695312 134.207031 235.199219 135.945312 L 235.054688 136.449219 C 234.972656 136.742188 234.847656 137.023438 234.722656 137.296875 C 234.683594 137.390625 234.640625 137.484375 234.601562 137.578125 C 234.601562 137.597656 234.601562 137.617188 234.601562 137.636719 L 234.601562 137.671875 L 234.578125 137.699219 C 234.570312 137.714844 234.558594 137.726562 234.550781 137.742188 L 233.875 140.839844 L 233.742188 140.496094 C 233.433594 139.683594 233.800781 138.4375 234.34375 137.652344 L 234.359375 137.589844 C 234.367188 137.574219 234.375 137.550781 234.382812 137.535156 C 234.382812 137.421875 234.378906 137.304688 234.375 137.191406 C 234.363281 136.882812 234.355469 136.5625 234.414062 136.253906 C 234.503906 135.769531 234.601562 135.285156 234.699219 134.796875 C 235.09375 132.828125 235.5 130.789062 235.535156 128.714844 C 235.554688 127.277344 235.777344 125.820312 235.992188 124.414062 C 236.058594 123.984375 236.125 123.554688 236.183594 123.125 C 236.226562 122.808594 236.359375 122.507812 236.496094 122.183594 C 236.566406 122.023438 236.636719 121.859375 236.703125 121.679688 L 236.769531 121.507812 Z M 259.390625 106.042969 C 260.21875 105.242188 261.261719 104.738281 262.671875 104.453125 C 262.878906 104.410156 263.09375 104.484375 263.300781 104.558594 C 263.480469 104.621094 263.652344 104.679688 263.800781 104.660156 C 264.109375 104.621094 264.40625 104.492188 264.722656 104.351562 C 264.855469 104.292969 264.984375 104.234375 265.117188 104.183594 L 265.171875 104.164062 C 265.589844 104.003906 266.019531 103.835938 266.488281 103.753906 L 266.71875 103.714844 L 266.597656 103.917969 C 266.480469 104.117188 266.347656 104.292969 266.207031 104.445312 C 265.527344 105.164062 264.59375 105.40625 263.683594 105.644531 C 263.550781 105.679688 263.421875 105.714844 263.289062 105.75 C 262.191406 106.050781 260.882812 106.34375 259.460938 106.226562 L 259.21875 106.210938 Z M 258.628906 101.136719 C 258.578125 101.214844 258.535156 101.296875 258.488281 101.382812 C 258.382812 101.570312 258.277344 101.765625 258.117188 101.910156 C 257.351562 102.59375 256.664062 103.382812 256.003906 104.148438 C 255.617188 104.597656 255.222656 105.050781 254.808594 105.488281 C 254.144531 106.191406 253.429688 106.855469 252.59375 107.386719 L 252.199219 107.640625 L 252.441406 107.238281 C 254.058594 104.574219 256.394531 102.585938 258.46875 100.992188 L 258.96875 100.609375 Z M 272.5625 82.019531 C 272.355469 82.890625 271.960938 83.558594 271.578125 84.207031 C 271.472656 84.386719 271.367188 84.5625 271.269531 84.742188 C 271.035156 85.167969 270.792969 85.585938 270.554688 86.007812 C 269.863281 87.214844 269.152344 88.460938 268.589844 89.777344 C 267.941406 91.296875 267.148438 92.542969 266.191406 93.558594 C 265.898438 93.871094 265.585938 94.160156 265.257812 94.429688 L 264.855469 94.761719 L 265.089844 94.296875 C 265.214844 94.054688 265.332031 93.808594 265.445312 93.5625 C 265.699219 93.027344 265.964844 92.472656 266.292969 91.972656 C 267.425781 90.25 268.242188 88.445312 268.890625 86.90625 C 269.152344 86.289062 269.515625 85.660156 270.003906 84.980469 C 270.503906 84.285156 271.039062 83.609375 271.605469 82.894531 C 271.855469 82.582031 272.105469 82.261719 272.367188 81.925781 L 272.675781 81.53125 Z M 274.433594 80.132812 L 274.210938 79.945312 L 275.082031 79.019531 L 275.429688 79.078125 Z M 275.808594 78.792969 L 275.523438 78.457031 L 275.589844 78.382812 C 275.6875 78.28125 275.785156 78.175781 275.886719 78.070312 C 276.707031 77.1875 277.566406 76.265625 278.886719 75.910156 L 279.359375 75.785156 Z M 286.550781 68.023438 C 286.480469 68.695312 286.316406 69.140625 285.839844 69.644531 C 285.503906 70.003906 285.007812 70.390625 284.273438 70.910156 L 283.707031 71.308594 L 284.125 70.753906 C 284.257812 70.574219 284.382812 70.40625 284.503906 70.246094 C 284.761719 69.894531 284.984375 69.59375 285.222656 69.296875 C 285.472656 68.984375 285.726562 68.679688 286 68.363281 C 286.117188 68.222656 286.238281 68.082031 286.359375 67.941406 L 286.589844 67.667969 Z M 289.375 57.640625 C 289.820312 60.078125 289.476562 62.15625 288.332031 63.988281 L 288.058594 64.425781 L 288.132812 63.917969 C 288.214844 63.324219 288.277344 62.714844 288.335938 62.128906 C 288.488281 60.632812 288.644531 59.085938 289.167969 57.625 L 289.304688 57.238281 Z M 294.441406 53.207031 C 294.285156 52.699219 294.359375 52.132812 294.65625 51.570312 C 295.269531 50.410156 296.726562 49.386719 298.558594 48.824219 L 298.785156 48.757812 L 298.691406 48.976562 C 298.289062 49.875 297.765625 50.613281 297.171875 51.242188 C 296.394531 52.066406 295.496094 52.699219 294.605469 53.269531 L 294.484375 53.34375 L 294.441406 53.207031 " fill-opacity="1" fill-rule="nonzero"/></g></svg>