<svg xmlns="http://www.w3.org/2000/svg" xmlns:xlink="http://www.w3.org/1999/xlink" width="500" zoomAndPan="magnify" viewBox="0 0 375 374.999991" height="500" preserveAspectRatio="xMidYMid meet" version="1.0"><defs><clipPath id="0a329f4141"><path d="M 112.5 121.488281 L 262 121.488281 L 262 253.488281 L 112.5 253.488281 Z M 112.5 121.488281 " clip-rule="nonzero"/></clipPath></defs><g clip-path="url(#0a329f4141)"><path fill="#000000" d="M 247.652344 196.828125 C 247.828125 196.636719 248.003906 196.445312 248.179688 196.25 C 248.351562 196.0625 248.519531 195.871094 248.691406 195.679688 C 248.769531 195.589844 248.84375 195.5 248.921875 195.410156 C 249.535156 194.703125 250.128906 193.992188 250.699219 193.269531 C 258.871094 182.929688 262.492188 171.074219 261.46875 157.921875 C 260.160156 141.125 244.824219 124.671875 227.976562 122 C 225.816406 121.660156 223.652344 121.484375 221.542969 121.484375 C 213.835938 121.484375 206.695312 123.714844 200.324219 128.113281 C 195.148438 131.683594 190.664062 136.632812 187.277344 142.496094 C 183.886719 136.632812 179.40625 131.683594 174.230469 128.113281 C 167.855469 123.714844 160.71875 121.484375 153.011719 121.484375 C 150.902344 121.484375 148.738281 121.65625 146.578125 122 C 129.730469 124.671875 114.394531 141.125 113.089844 157.921875 C 112.507812 165.398438 113.425781 172.457031 115.828125 179.054688 L 123.714844 179.054688 C 120.914062 172.691406 119.785156 165.820312 120.355469 158.488281 C 121.402344 145.03125 134.191406 131.347656 147.722656 129.199219 C 149.503906 128.917969 151.285156 128.773438 153.015625 128.773438 C 164.957031 128.773438 175.425781 135.605469 181.730469 147.523438 C 182.210938 148.429688 182.71875 149.273438 183.210938 150.085938 C 183.414062 150.421875 183.613281 150.753906 183.804688 151.078125 C 184.8125 153.121094 186.570312 153.34375 187.28125 153.34375 C 187.988281 153.34375 189.734375 153.121094 190.753906 151.078125 C 190.945312 150.753906 191.144531 150.421875 191.347656 150.082031 C 191.839844 149.273438 192.347656 148.433594 192.828125 147.523438 C 199.132812 135.609375 209.597656 128.773438 221.542969 128.773438 C 223.269531 128.773438 225.050781 128.917969 226.835938 129.199219 C 240.367188 131.347656 253.152344 145.035156 254.199219 158.488281 C 255.226562 171.660156 250.773438 183.355469 240.976562 193.269531 C 233.828125 193.269531 224.683594 193.269531 217.859375 193.269531 C 213.933594 193.269531 210.007812 193.269531 206.082031 193.269531 C 204.667969 193.269531 203.570312 194.214844 203.136719 195.515625 C 202.316406 197.976562 201.496094 200.4375 200.675781 202.898438 C 200.425781 201.390625 200.183594 199.882812 199.933594 198.375 C 198.375 188.804688 196.816406 179.238281 195.253906 169.671875 C 194.648438 165.953125 194.042969 162.234375 193.433594 158.519531 C 192.957031 155.582031 188.03125 155.59375 187.539062 158.519531 C 186.613281 163.988281 185.695312 169.453125 184.773438 174.921875 C 183.429688 182.898438 182.085938 190.875 180.742188 198.855469 C 180.363281 196.984375 179.984375 195.113281 179.605469 193.238281 C 178.8125 189.308594 178.019531 185.382812 177.226562 181.449219 C 176.691406 178.796875 172.894531 178.539062 171.636719 180.71875 C 169.226562 184.902344 166.816406 189.085938 164.40625 193.269531 C 158.628906 193.269531 140.230469 193.269531 133.582031 193.269531 C 133.34375 193.269531 133.121094 193.269531 132.914062 193.269531 C 129.714844 193.269531 126.632812 193.269531 123.855469 193.269531 C 125.503906 195.355469 127.335938 197.382812 129.351562 199.34375 C 136.15625 205.953125 143.691406 211.90625 150.980469 217.664062 C 152.472656 218.84375 153.96875 220.023438 155.453125 221.210938 C 156.710938 222.210938 157.992188 223.21875 159.230469 224.191406 C 169.261719 232.066406 178.738281 239.507812 183.644531 250.78125 C 184.621094 253.285156 186.679688 253.480469 187.296875 253.480469 C 187.929688 253.480469 190.023438 253.277344 190.9375 250.726562 C 195.851562 239.484375 205.3125 232.054688 215.328125 224.191406 C 216.566406 223.21875 217.847656 222.210938 219.105469 221.210938 C 220.589844 220.027344 222.078125 218.847656 223.570312 217.667969 C 225.273438 216.324219 226.988281 214.96875 228.703125 213.597656 L 216.972656 213.597656 C 216.167969 214.234375 215.359375 214.871094 214.558594 215.511719 C 213.320312 216.496094 212.050781 217.496094 210.824219 218.457031 C 202.160156 225.261719 193.246094 232.257812 187.277344 242.019531 C 181.304688 232.257812 172.394531 225.261719 163.730469 218.457031 C 162.503906 217.496094 161.234375 216.496094 159.996094 215.511719 C 158.5 214.320312 157 213.132812 155.496094 211.945312 C 150.375 207.898438 145.128906 203.75 140.15625 199.382812 C 148.886719 199.382812 161.277344 199.382812 166.171875 199.382812 C 167.246094 199.382812 168.277344 198.800781 168.8125 197.867188 C 170.171875 195.511719 171.527344 193.15625 172.886719 190.800781 C 173.8125 195.402344 174.746094 200.007812 175.675781 204.613281 C 176.46875 208.542969 177.261719 212.472656 178.054688 216.402344 C 178.320312 217.722656 179.714844 218.648438 181.003906 218.648438 C 182.257812 218.648438 183.730469 217.726562 183.953125 216.402344 C 184.871094 210.933594 185.792969 205.464844 186.714844 200 C 187.953125 192.640625 189.195312 185.285156 190.433594 177.929688 C 191.917969 187.035156 193.402344 196.144531 194.890625 205.25 C 195.496094 208.964844 196.101562 212.683594 196.710938 216.402344 C 196.925781 217.722656 198.410156 218.648438 199.65625 218.648438 C 201.074219 218.648438 202.171875 217.703125 202.605469 216.402344 C 204.496094 210.730469 206.386719 205.054688 208.28125 199.382812 C 214.882812 199.382812 221.488281 199.382812 228.09375 199.382812 C 229.824219 199.382812 232.078125 199.382812 234.394531 199.382812 C 237.324219 199.382812 240.351562 199.382812 242.546875 199.382812 C 243.398438 199.382812 244.269531 199.382812 245.15625 199.382812 C 245.171875 199.371094 245.1875 199.355469 245.199219 199.34375 C 245.527344 199.023438 245.847656 198.703125 246.167969 198.382812 C 246.265625 198.28125 246.363281 198.183594 246.460938 198.082031 C 246.699219 197.835938 246.933594 197.59375 247.164062 197.347656 C 247.328125 197.175781 247.492188 197 247.652344 196.828125 Z M 247.652344 196.828125 " fill-opacity="1" fill-rule="nonzero"/></g></svg>