<svg xmlns="http://www.w3.org/2000/svg" xmlns:xlink="http://www.w3.org/1999/xlink" width="500" zoomAndPan="magnify" viewBox="0 0 375 374.999991" height="500" preserveAspectRatio="xMidYMid meet" version="1.0"><path fill="#000000" d="M 191.222656 310.378906 C 129.476562 310.378906 63.277344 302.914062 50.925781 278.734375 C 47.886719 272.773438 47.511719 266.746094 49.820312 260.816406 C 53.628906 251.023438 64.875 242.035156 80.675781 236.160156 C 81.289062 235.933594 81.972656 235.96875 82.550781 236.273438 C 103.941406 247.296875 175.476562 241.902344 205.246094 239.070312 C 234.621094 236.285156 271.285156 228.242188 286.085938 214.027344 C 286.765625 213.375 287.773438 213.191406 288.636719 213.574219 C 318.488281 226.691406 327.632812 249.652344 326.230469 266.761719 C 324.824219 283.941406 313.421875 297.726562 297.191406 301.878906 C 279.941406 306.300781 236.789062 310.371094 191.222656 310.371094 Z M 81.367188 240.886719 C 67.5 246.222656 57.363281 254.265625 54.160156 262.507812 C 52.351562 267.144531 52.664062 271.894531 55.074219 276.617188 C 75.148438 315.921875 257.351562 307.285156 296.03125 297.371094 C 310.308594 293.71875 320.335938 281.554688 321.578125 266.386719 C 322.828125 251.144531 314.652344 230.691406 288.136719 218.472656 C 267.714844 236.558594 220.03125 242.355469 205.679688 243.71875 C 175.917969 246.550781 104.867188 251.863281 81.359375 240.890625 Z M 81.367188 240.886719 " fill-opacity="1" fill-rule="nonzero"/><path fill="#000000" d="M 134.976562 247.515625 C 112.152344 247.515625 90.871094 245.804688 80.417969 240.417969 C 80.074219 240.238281 79.953125 240.175781 79.824219 240.097656 C 67.039062 233.152344 57.605469 217.316406 57.484375 202.484375 C 57.386719 190.699219 63.050781 180.929688 73.441406 174.933594 C 77.613281 170.5625 85.371094 166.832031 97.136719 163.53125 C 97.613281 163.402344 98.117188 163.421875 98.582031 163.59375 C 121.894531 172.328125 247.441406 184.046875 260.210938 170.34375 C 260.976562 169.515625 261.503906 168.855469 261.914062 168.214844 C 262.542969 167.242188 263.789062 166.863281 264.847656 167.359375 C 288.046875 178.042969 299.421875 191.203125 296.882812 204.417969 C 296.03125 208.960938 293.484375 213.320312 289.324219 217.378906 C 269.597656 236.320312 220.320312 242.324219 205.6875 243.710938 C 189.539062 245.246094 161.242188 247.515625 134.976562 247.515625 Z M 97.675781 168.226562 C 87.078125 171.257812 79.996094 174.664062 76.617188 178.359375 C 76.453125 178.542969 76.257812 178.695312 76.042969 178.816406 C 64.445312 185.367188 62.082031 195.28125 62.140625 202.445312 C 62.253906 215.683594 70.660156 229.816406 82.132812 236.046875 C 82.425781 236.199219 82.554688 236.269531 82.6875 236.351562 C 103.941406 247.296875 175.484375 241.902344 205.246094 239.074219 C 234.621094 236.289062 271.285156 228.246094 286.085938 214.03125 C 289.535156 210.664062 291.632812 207.140625 292.304688 203.558594 C 292.304688 203.558594 292.304688 203.554688 292.304688 203.550781 C 294.3125 193.105469 284.238281 181.808594 264.605469 172.402344 C 264.242188 172.835938 263.90625 173.214844 263.625 173.519531 C 248.703125 189.519531 122.308594 176.75 97.679688 168.226562 Z M 97.675781 168.226562 " fill-opacity="1" fill-rule="nonzero"/><path fill="#000000" d="M 216.6875 181.160156 C 172.503906 181.160156 111.863281 173.550781 96.949219 167.960938 C 95.050781 167.28125 93.636719 166.515625 92.777344 165.695312 C 87.59375 160.828125 85.371094 152.871094 87.117188 145.429688 C 88.34375 140.226562 92.5625 130.847656 107.101562 126.484375 C 107.386719 126.398438 107.683594 126.367188 107.980469 126.398438 C 109.839844 126.566406 111.863281 126.636719 114.136719 126.605469 C 118.03125 126.542969 122.230469 126.535156 126.660156 126.527344 C 155.71875 126.46875 195.515625 126.386719 228.074219 110.851562 C 228.46875 110.660156 228.910156 110.585938 229.351562 110.644531 C 232.265625 110.988281 235.054688 111.363281 237.75 111.773438 C 252.316406 114.039062 263.285156 122.347656 268.648438 135.171875 C 273.726562 147.304688 272.601562 161.28125 265.796875 170.796875 C 265.078125 171.910156 264.214844 172.878906 263.625 173.519531 C 258.445312 179.074219 239.816406 181.160156 216.6875 181.160156 Z M 108.011719 131.082031 C 96.066406 134.820312 92.632812 142.328125 91.652344 146.503906 C 90.277344 152.347656 91.972656 158.550781 95.96875 162.308594 C 96.039062 162.371094 96.621094 162.890625 98.546875 163.585938 C 121.890625 172.328125 247.4375 184.046875 260.207031 170.347656 C 260.972656 169.519531 261.5 168.859375 261.910156 168.21875 C 261.933594 168.183594 261.953125 168.152344 261.976562 168.117188 C 267.796875 160.019531 268.75 147.5 264.347656 136.972656 C 261.617188 130.441406 254.4375 119.085938 237.039062 116.375 C 234.605469 116.007812 232.085938 115.664062 229.464844 115.347656 C 196.078125 131.042969 155.988281 131.125 126.667969 131.183594 C 122.257812 131.195312 118.082031 131.203125 114.199219 131.261719 C 111.933594 131.289062 109.902344 131.230469 108.011719 131.074219 Z M 108.011719 131.082031 " fill-opacity="1" fill-rule="nonzero"/><path fill="#000000" d="M 113.089844 131.277344 C 111.082031 131.277344 109.261719 131.199219 107.554688 131.042969 C 94.082031 129.902344 84.234375 124.296875 79.835938 115.261719 C 75.722656 106.804688 76.933594 96.15625 83.078125 86.773438 C 86.429688 81.667969 97.617188 77.226562 117.28125 73.203125 C 162.433594 63.964844 243.484375 59.429688 252.792969 65.625 C 258.910156 69.6875 262.421875 77.375 261.738281 85.207031 C 260.914062 94.648438 254.242188 102.792969 243.421875 107.582031 C 239.265625 110.308594 234.773438 112.824219 230.074219 115.0625 C 196.566406 131.050781 156.167969 131.132812 126.667969 131.195312 C 122.257812 131.203125 118.082031 131.210938 114.199219 131.273438 C 113.820312 131.273438 113.449219 131.277344 113.085938 131.277344 Z M 227.3125 67.472656 C 199.082031 67.472656 151.273438 71.007812 118.214844 77.769531 C 94.441406 82.632812 88.4375 87.101562 86.972656 89.332031 C 81.738281 97.320312 80.636719 106.25 84.023438 113.21875 C 87.675781 120.71875 96.175781 125.398438 107.964844 126.394531 C 109.835938 126.566406 111.84375 126.625 114.136719 126.605469 C 118.03125 126.542969 122.230469 126.535156 126.660156 126.527344 C 155.71875 126.46875 195.515625 126.386719 228.074219 110.851562 C 232.648438 108.671875 237.003906 106.226562 241.03125 103.574219 C 241.144531 103.503906 241.257812 103.441406 241.378906 103.386719 C 254.132812 97.8125 256.703125 89.347656 257.097656 84.800781 C 257.636719 78.644531 254.9375 72.636719 250.222656 69.507812 C 248.171875 68.144531 239.59375 67.472656 227.316406 67.472656 Z M 227.3125 67.472656 " fill-opacity="1" fill-rule="nonzero"/><path fill="#000000" d="M 113.765625 93.371094 C 113.128906 93.371094 112.53125 92.976562 112.304688 92.339844 C 112.015625 91.53125 112.433594 90.640625 113.242188 90.351562 C 121.855469 87.265625 130.820312 85.121094 139.890625 83.980469 C 140.769531 83.878906 141.519531 84.476562 141.628906 85.328125 C 141.738281 86.179688 141.132812 86.957031 140.28125 87.066406 C 131.433594 88.179688 122.6875 90.273438 114.289062 93.285156 C 114.113281 93.347656 113.941406 93.375 113.765625 93.375 Z M 113.765625 93.371094 " fill-opacity="1" fill-rule="nonzero"/><path fill="#000000" d="M 158.890625 84.242188 C 158.222656 84.242188 157.605469 83.804688 157.402344 83.132812 C 157.160156 82.308594 157.625 81.445312 158.445312 81.195312 L 161.691406 80.222656 C 162.515625 79.976562 163.378906 80.445312 163.625 81.265625 C 163.871094 82.085938 163.40625 82.953125 162.585938 83.203125 L 159.339844 84.175781 C 159.191406 84.21875 159.042969 84.242188 158.890625 84.242188 Z M 158.890625 84.242188 " fill-opacity="1" fill-rule="nonzero"/><path fill="#000000" d="M 246.992188 134.757812 C 246.472656 134.757812 245.964844 134.496094 245.671875 134.023438 C 240.417969 125.546875 230.585938 120.117188 220.621094 120.355469 C 219.824219 120.414062 219.054688 119.6875 219.039062 118.828125 C 219.023438 117.972656 219.707031 117.261719 220.566406 117.246094 C 231.609375 117.019531 242.492188 122.996094 248.3125 132.382812 C 248.765625 133.113281 248.539062 134.070312 247.8125 134.519531 C 247.558594 134.679688 247.277344 134.753906 246.996094 134.753906 Z M 246.992188 134.757812 " fill-opacity="1" fill-rule="nonzero"/><path fill="#000000" d="M 253.738281 144.683594 C 253.089844 144.683594 252.488281 144.277344 252.269531 143.632812 L 251.9375 142.652344 C 251.664062 141.839844 252.101562 140.960938 252.910156 140.683594 C 253.730469 140.414062 254.605469 140.847656 254.878906 141.660156 L 255.207031 142.628906 C 255.484375 143.445312 255.050781 144.328125 254.238281 144.605469 C 254.070312 144.664062 253.902344 144.6875 253.734375 144.6875 Z M 253.738281 144.683594 " fill-opacity="1" fill-rule="nonzero"/><path fill="#000000" d="M 85.027344 195.792969 C 84.847656 195.792969 84.667969 195.765625 84.492188 195.699219 C 83.6875 195.398438 83.273438 194.507812 83.574219 193.703125 C 87.429688 183.269531 96.449219 174.84375 107.109375 171.707031 C 107.945312 171.476562 108.796875 171.941406 109.039062 172.761719 C 109.28125 173.585938 108.808594 174.449219 107.984375 174.695312 C 98.246094 177.554688 90.007812 185.25 86.484375 194.78125 C 86.253906 195.410156 85.660156 195.796875 85.027344 195.796875 Z M 85.027344 195.792969 " fill-opacity="1" fill-rule="nonzero"/><path fill="#000000" d="M 82.40625 210.023438 C 81.683594 210.023438 81.03125 209.507812 80.882812 208.773438 L 80.074219 204.730469 C 79.910156 203.886719 80.453125 203.070312 81.296875 202.902344 C 82.128906 202.722656 82.957031 203.28125 83.125 204.125 L 83.929688 208.164062 C 84.097656 209.007812 83.550781 209.824219 82.710938 209.992188 C 82.609375 210.015625 82.503906 210.023438 82.40625 210.023438 Z M 82.40625 210.023438 " fill-opacity="1" fill-rule="nonzero"/><path fill="#000000" d="M 222.550781 196.527344 C 220.492188 196.527344 218.429688 196.425781 216.378906 196.222656 C 215.523438 196.136719 214.898438 195.375 214.988281 194.519531 C 215.074219 193.664062 215.839844 193.0625 216.6875 193.128906 C 226.449219 194.097656 236.378906 192.625 245.441406 188.878906 C 246.230469 188.554688 247.140625 188.921875 247.46875 189.71875 C 247.792969 190.511719 247.417969 191.421875 246.625 191.75 C 239.003906 194.90625 230.785156 196.527344 222.554688 196.527344 Z M 222.550781 196.527344 " fill-opacity="1" fill-rule="nonzero"/><path fill="#000000" d="M 135.1875 260.242188 C 131.636719 260.242188 128.089844 260.011719 124.59375 259.542969 C 123.742188 259.429688 123.144531 258.648438 123.257812 257.796875 C 123.371094 256.945312 124.144531 256.34375 125.003906 256.460938 C 135.65625 257.878906 146.730469 257.039062 157.039062 254.027344 C 157.871094 253.78125 158.726562 254.261719 158.964844 255.085938 C 159.207031 255.910156 158.734375 256.773438 157.910156 257.011719 C 150.574219 259.15625 142.867188 260.238281 135.1875 260.238281 Z M 135.1875 260.242188 " fill-opacity="1" fill-rule="nonzero"/><path fill="#000000" d="M 305.4375 274.652344 C 305.1875 274.652344 304.9375 274.59375 304.707031 274.46875 C 303.949219 274.066406 303.664062 273.121094 304.070312 272.367188 C 309.582031 262.054688 306.394531 248.050781 296.957031 241.152344 C 296.265625 240.648438 296.117188 239.671875 296.621094 238.980469 C 297.125 238.285156 298.097656 238.132812 298.792969 238.640625 C 309.429688 246.421875 313.027344 262.203125 306.808594 273.828125 C 306.53125 274.351562 305.992188 274.652344 305.441406 274.652344 Z M 305.4375 274.652344 " fill-opacity="1" fill-rule="nonzero"/></svg>